<svg width="263" height="153" viewBox="0 0 263 153" fill="none" xmlns="http://www.w3.org/2000/svg">
<rect width="263" height="153" rx="5" fill="white"/>
<g clip-path="url(#clip0_3_214)">
<path d="M184.48 88.8606C180.804 93.3356 176.222 96.9808 171.035 99.556C165.778 102.23 160.022 103.484 153.663 103.484C148.164 103.484 143.073 102.471 138.314 100.462C133.672 98.5317 129.422 95.767 125.776 92.3049C122.213 88.8658 119.377 84.7458 117.437 80.1896C115.386 75.5035 114.336 70.4404 114.356 65.3249L120.036 52.9679L126.033 65.9896L131.879 78.4372C134.15 81.4587 136.987 84.0088 140.233 85.9451C141.396 86.7004 142.65 87.3651 143.994 87.9543C147.07 89.3005 150.396 89.98 153.753 89.9483C158.27 89.9483 162.364 88.9513 165.868 86.8666C169.359 84.8193 172.351 82.0229 174.63 78.6789L184.48 88.8606ZM128.979 34.7647C135.895 29.6259 144.306 26.8982 152.922 27C159.267 27 165.038 28.3294 170.295 30.9277C175.34 33.4238 179.806 36.9487 183.407 41.2755L173.543 51.3817C171.271 48.1193 168.271 45.43 164.781 43.5264C161.157 41.5098 157.069 40.4736 152.922 40.5202C149.508 40.5202 146.245 41.2 143.164 42.5294C140.207 43.805 137.513 45.6183 135.218 47.877L128.979 34.7647Z" fill="#50AFCF"/>
<path d="M132.725 77.6064L126.864 65.0681L119.93 50.1279L95.1404 103.302H79.4298L114.326 29.5077H125.519L153.663 89.0268C145.566 88.7851 137.212 83.7698 132.71 77.5913L132.725 77.6064Z" fill="#4498C6"/>
<path d="M76.7106 126.279H73.5987L72.2543 123.439L70.1847 118.847L68.8553 115.916L67.4957 118.756L64.5047 125.191L64.0062 126.279H61L67.7677 111.898H69.9128L76.6804 126.249L76.7106 126.279ZM87.6326 126.279H78.2213V111.898H87.6477V114.239H80.88V117.653H87.5721V119.919H80.88V123.847H87.6477V126.264L87.6326 126.279ZM99.4911 126.279H89.8079V111.898H92.6479V123.5H99.4911V126.264V126.279ZM110.851 126.279H101.077V111.898H103.902V123.5H110.745V126.264H110.836L110.851 126.279ZM126.954 126.279H123.873L122.951 124.346L122.528 123.439L120.111 118.258L119.024 115.916L116.607 121.098L115.096 124.346L114.19 126.279H111.093L117.86 111.913H120.036L126.954 126.264V126.279ZM147.076 123.681C146.353 124.531 145.477 125.239 144.493 125.766C143.496 126.279 142.318 126.521 141.064 126.521C139.991 126.521 138.979 126.37 138.058 125.932C136.27 125.155 134.823 123.761 133.979 122.004C133.556 121.098 133.375 120.191 133.375 119.089C133.362 118.102 133.557 117.124 133.948 116.219C134.338 115.313 134.915 114.5 135.641 113.831C136.305 113.167 137.151 112.668 138.058 112.245C138.979 111.822 139.991 111.656 141.079 111.656C142.318 111.656 143.405 111.913 144.493 112.411C145.474 112.911 146.351 113.592 147.076 114.421L145.158 116.415C144.741 115.744 144.13 115.217 143.405 114.904C142.752 114.561 142.031 114.368 141.294 114.339C140.557 114.311 139.823 114.447 139.145 114.738C138.569 114.995 138.035 115.336 137.559 115.75C137.13 116.202 136.765 116.711 136.471 117.261C136.21 117.835 136.071 118.458 136.064 119.089C136.064 119.753 136.215 120.342 136.471 120.931C136.728 121.521 137.061 122.019 137.559 122.442C137.982 122.85 138.481 123.182 139.145 123.439C139.734 123.681 140.399 123.847 141.064 123.847C141.985 123.847 142.726 123.696 143.405 123.273C144.07 122.85 144.659 122.351 145.067 121.687L147.076 123.681ZM159.358 126.279H156.261L155.264 123.016C155.173 122.684 155.007 122.351 154.841 122.019C154.72 121.721 154.522 121.46 154.267 121.264C154.039 121.02 153.745 120.847 153.421 120.765C153.067 120.663 152.701 120.607 152.333 120.599H151.336V126.279H148.587V111.898H154.267C154.841 111.898 155.43 111.973 155.929 112.23C156.427 112.487 156.926 112.729 157.273 113.061C157.681 113.393 157.938 113.907 158.179 114.406C158.436 114.904 158.512 115.493 158.512 116.067C158.512 116.49 158.436 116.913 158.361 117.321C158.179 117.744 158.013 118.076 157.756 118.409C157.523 118.748 157.244 119.054 156.926 119.315C156.597 119.565 156.236 119.768 155.853 119.919C156.261 120.07 156.684 120.327 156.926 120.675C157.182 120.992 157.439 121.324 157.605 121.838C157.681 121.989 157.756 122.246 157.847 122.412C157.938 122.578 158.013 122.835 158.104 123.092L158.346 123.847C158.439 124.133 158.556 124.41 158.693 124.678L159.025 125.675C159.101 125.826 159.176 126.083 159.358 126.264V126.279ZM155.762 116.249C155.762 115.916 155.687 115.584 155.596 115.342L155.098 114.587L154.342 114.088C154.01 113.998 153.753 113.922 153.436 113.922H151.427V118.424H153.421C153.753 118.424 154.101 118.333 154.342 118.258C154.675 118.167 154.931 118.001 155.098 117.835C155.332 117.674 155.507 117.44 155.596 117.17C155.687 116.928 155.762 116.581 155.762 116.264V116.249ZM170.536 126.279H161.11V111.898H170.521V114.239H163.769V117.653H170.446V119.919H163.769V123.847H170.521V126.264L170.536 126.279ZM185.492 119.089C185.507 120.942 184.822 122.733 183.573 124.104C182.978 124.773 182.232 125.29 181.398 125.614C180.535 126.021 179.587 126.218 178.633 126.189H172.636V111.837H178.633C179.587 111.808 180.535 112.005 181.398 112.411C182.229 112.834 182.984 113.318 183.573 113.922C184.147 114.587 184.646 115.342 184.993 116.173C185.32 117.11 185.488 118.096 185.492 119.089ZM182.652 119.013C182.652 118.333 182.561 117.669 182.319 117.094C182.095 116.522 181.784 115.987 181.398 115.508C180.975 115.085 180.491 114.662 179.887 114.421C179.258 114.145 178.58 114.002 177.893 113.998H175.476V123.938H177.893C178.649 123.938 179.313 123.847 179.887 123.605C180.491 123.349 180.975 123.016 181.398 122.593C181.821 122.185 182.153 121.687 182.304 121.083C182.486 120.433 182.652 119.753 182.652 119.013ZM190.416 126.264H187.652V111.913H190.416V126.264ZM202.94 114.421H199.012V126.279H196.172V114.421H192.244V111.898H202.94V114.406V114.421Z" fill="#283947"/>
</g>
<defs>
<clipPath id="clip0_3_214">
<rect width="142" height="99.5511" fill="white" transform="translate(61 27)"/>
</clipPath>
</defs>
</svg>
