<svg width="263" height="153" viewBox="0 0 263 153" fill="none" xmlns="http://www.w3.org/2000/svg">
<g clip-path="url(#clip0_3_252)">
<rect width="263" height="153" rx="5" fill="white"/>
<path d="M142.736 65.1506C140.787 65.1506 139.499 66.386 139.499 67.9694C139.499 69.5528 140.787 70.7882 142.736 70.7882C144.685 70.7882 145.972 69.5528 145.972 67.8824C145.955 66.299 144.685 65.1506 142.736 65.1506ZM140.074 72.4586V87.5618H145.363V72.4586H140.074ZM162.102 78.566C162.102 78.3398 162.085 78.131 162.067 77.9222C161.702 73.955 159.144 72.1976 155.873 72.1976C153.976 72.1976 152.271 72.8414 151.07 74.0942V72.4586H146.024V87.5618H151.314V80.2538C151.314 77.7482 152.619 76.6868 154.324 76.6868C155.855 76.6868 156.812 77.609 156.812 79.784V87.5618H162.102V78.914V78.566Z" fill="#231F20"/>
<path d="M174.056 72.4586V74.303C173.029 72.8762 171.411 72.215 169.323 72.215C165.808 72.215 162.746 74.4074 162.067 77.9396C162.032 78.1484 161.998 78.3746 161.963 78.6008C161.928 78.8966 161.911 79.1924 161.911 79.5056C161.911 80.132 161.98 80.7236 162.102 81.2804V78.914V78.566L163.355 78.4964L167.496 78.2528C167.983 77.1044 169.132 76.4084 170.576 76.4084C172.472 76.4084 173.864 77.6438 173.864 79.4708C173.864 81.3152 172.472 82.568 170.576 82.568C169.549 82.568 168.662 82.2026 168.07 81.5762L163.807 81.4022L162.119 81.3326C162.92 84.7082 165.895 86.7788 169.323 86.7788C171.254 86.7788 172.786 86.1872 173.812 84.9866V85.4912C173.812 87.8576 172.612 89.1452 169.775 89.1452C167.983 89.1452 165.93 88.5362 164.677 87.527L162.746 91.2332C164.59 92.5382 167.339 93.2168 170.245 93.2168C175.274 93.2168 178.388 91.0592 178.997 86.5178C179.067 86.0132 179.102 85.4912 179.102 84.917V72.4412H174.056V72.4586Z" fill="#231F20"/>
<path d="M183.782 77.0174C183.782 76.4606 184.426 75.956 186.201 75.956C187.541 75.956 189.055 76.2344 190.551 77.0696L192.134 73.4678C190.638 72.6326 188.289 72.1802 186.166 72.1802C182.321 72.1802 179.867 73.607 179.084 75.6776C178.893 76.1648 178.806 76.6694 178.806 77.2088C178.806 77.8526 178.91 78.392 179.084 78.8444C180.581 82.8116 187.732 81.1412 187.732 82.9682C187.732 83.612 187.141 83.9948 185.366 83.9948C183.521 83.9948 181.486 83.4728 180.094 82.6028L179.084 84.8996L178.51 86.222L178.98 86.483C180.511 87.2486 182.895 87.7706 185.192 87.7706C190.099 87.7706 192.656 85.5956 192.656 82.8116C192.674 76.8608 183.782 79.1228 183.782 77.0174ZM169.132 73.7636C166.174 73.7636 163.72 75.8342 163.355 78.4964L167.496 78.2528L169.132 78.1658C170.263 78.0962 171.202 78.8618 171.202 79.8884C171.202 80.8976 170.28 81.6806 169.132 81.6284L168.07 81.5936L163.807 81.4196C164.712 83.3162 166.748 84.6386 169.132 84.6386C172.351 84.6386 174.961 82.2026 174.961 79.2098C174.961 76.1996 172.351 73.7636 169.132 73.7636Z" fill="#231F20"/>
<path d="M169.514 80.6018C169.908 80.6018 170.228 80.2824 170.228 79.8884C170.228 79.4944 169.908 79.175 169.514 79.175C169.12 79.175 168.801 79.4944 168.801 79.8884C168.801 80.2824 169.12 80.6018 169.514 80.6018Z" fill="#231F20"/>
<path d="M132.017 72.4412C129.877 76.13 127.754 79.784 125.614 83.4554C125.475 83.699 125.336 83.9426 125.179 84.1862C124.448 85.439 123.735 86.6744 123.004 87.9272C120.707 83.9252 118.445 79.9754 116.183 76.0082C116.096 75.8516 115.992 75.695 115.905 75.521C115.905 75.5036 115.888 75.5036 115.888 75.4862L115.105 74.129V74.1116L114.269 72.65C114.217 72.563 114.165 72.4586 114.113 72.3716H117.889C118.619 72.3716 119.333 72.3716 120.064 72.389C120.168 72.389 120.325 72.4934 120.377 72.5978C121.195 74.0072 122.012 75.434 122.83 76.8434C122.882 76.9304 122.987 77.0348 123.056 77.0348C123.126 77.0348 123.213 76.913 123.265 76.826C124.1 75.4166 124.918 73.9898 125.753 72.5804C125.806 72.4934 125.945 72.389 126.049 72.389C127.998 72.4238 129.947 72.4412 132.017 72.4412Z" fill="#C32026"/>
<path d="M125.597 83.4554C125.458 83.699 125.318 83.9426 125.162 84.1862C125.092 84.047 125.023 83.9252 124.97 83.8208C124.727 83.4032 124.518 83.1596 124.292 83.177C123.805 83.2466 123.352 83.5772 122.83 83.264C122.691 83.177 122.552 83.0552 122.413 82.8812C122.099 82.4984 121.595 81.8024 121.16 81.1412C120.603 80.2886 120.151 79.4708 120.29 79.3664C120.464 79.2272 121.16 80.1842 121.647 80.8454C121.821 81.089 121.96 81.2804 122.047 81.4022C122.378 81.8372 123.196 81.5414 123.039 81.1934C122.952 81.002 122.639 80.567 122.326 80.132C122.03 79.7144 121.717 79.3142 121.577 79.1402C121.299 78.7748 121.421 78.5138 121.421 78.5138C121.421 78.5138 121.717 78.4616 121.995 78.827C122.099 78.9662 122.326 79.2794 122.587 79.61C122.969 80.0972 123.387 80.654 123.578 80.7932C123.631 80.828 123.683 80.8454 123.735 80.8454C123.857 80.828 123.979 80.741 124.048 80.6018C124.17 80.4104 124.205 80.1146 124.048 79.9058C123.822 79.5926 123.056 78.7052 122.708 78.131C122.569 77.8874 122.5 77.7134 122.569 77.6612C122.795 77.5394 124.222 79.1576 125.023 80.2016C125.162 80.3756 125.266 80.5322 125.371 80.6714C126.014 81.611 125.388 81.9938 125.144 82.568C125.023 82.7942 125.231 83.0726 125.597 83.4554Z" fill="white"/>
<path d="M139.43 72.4238C139.378 72.5282 139.308 72.6152 139.256 72.7196C138.977 73.2068 138.699 73.694 138.403 74.1638C136.576 77.2958 134.767 80.4104 132.957 83.525C132.626 84.0992 132.296 84.6734 131.948 85.2476C131.426 86.135 130.921 87.0224 130.399 87.9098C129.442 86.2394 128.503 84.5864 127.546 82.9334L133.322 72.4238C133.357 72.4064 133.392 72.4064 133.427 72.4064H139.43V72.4238Z" fill="url(#paint0_linear_3_252)"/>
<path d="M132.957 83.525C132.626 84.0991 132.296 84.6733 131.948 85.2475C131.791 85.0387 131.635 84.8125 131.478 84.5863C130.921 83.7685 130.451 82.9856 130.277 82.4984C130.19 82.2548 130.138 82.0286 130.103 81.8198C130.051 81.4892 130.034 81.1934 130.069 80.9672C130.121 80.567 130.295 80.393 130.469 80.5844C130.608 80.741 130.956 81.1412 131.426 81.6806C131.878 82.22 132.418 82.8638 132.957 83.525Z" fill="white"/>
<path d="M95.5818 74.1986V72.389H90.5358V87.4922H95.8254V80.5496C95.8254 77.9048 97.3044 76.8086 99.4446 76.8086C99.8274 76.8086 100.175 76.8434 100.645 76.8956V72.128C98.418 72.128 96.6606 72.824 95.5818 74.1986Z" fill="#231F20"/>
<path d="M106.352 72.128C104.386 72.128 102.281 72.5456 100.645 73.346C100.315 73.5026 99.984 73.694 99.6882 73.8854L100.645 75.7994L101.48 77.4872C102.507 76.6868 104.125 76.1822 105.569 76.1822C107.657 76.1822 108.684 77.0522 108.771 78.5834H105.761C101.08 78.5834 99.0444 80.306 99.0444 83.1074C99.0444 85.7348 101.045 87.7532 104.665 87.7532C106.857 87.7532 108.371 87.005 109.119 85.5608V87.5096H114.078V79.1228C114.078 74.303 111.259 72.128 106.352 72.128ZM108.788 82.6376C108.371 83.8382 107.344 84.395 106.161 84.395C104.908 84.395 104.177 83.7512 104.177 82.8638C104.177 81.9416 104.786 81.3326 106.492 81.3326H108.771V82.6376H108.788ZM90.3966 81.8198C89.7354 85.7174 86.1162 88.7102 81.7314 88.7102C76.8942 88.7102 72.9618 85.0562 72.9618 80.5496C72.9618 76.043 76.8942 72.389 81.7314 72.389C86.0814 72.389 89.6832 75.347 90.3792 79.2098L88.2042 79.3316C87.9954 79.349 87.7866 79.3664 87.5952 79.4186C87.0906 78.0092 85.716 76.9652 84.15 76.8608C82.0968 76.739 78.2862 78.1484 78.147 80.2016C78.0252 82.2548 81.6444 84.134 83.6802 84.2732C85.4202 84.3776 87.0732 83.2814 87.6126 81.6806C87.804 81.7154 87.9954 81.7502 88.2042 81.7502L90.3966 81.8198Z" fill="#231F20"/>
<path d="M195.176 74.4337H199.391C200.347 74.4337 201.154 74.5794 201.813 74.8709C202.478 75.1624 202.982 75.5939 203.326 76.1652C203.676 76.7307 203.851 77.4274 203.851 78.2553C203.851 78.8383 203.731 79.3718 203.492 79.8557C203.259 80.3338 202.921 80.7419 202.478 81.08C202.041 81.4123 201.516 81.6601 200.904 81.8234L200.432 82.007H196.47L196.452 80.634H199.443C200.05 80.634 200.554 80.5291 200.956 80.3192C201.359 80.1035 201.662 79.8149 201.866 79.4534C202.07 79.0919 202.172 78.6926 202.172 78.2553C202.172 77.7656 202.076 77.3371 201.883 76.9698C201.691 76.6025 201.388 76.3197 200.974 76.1215C200.566 75.9174 200.038 75.8154 199.391 75.8154H196.863V87.1667H195.176V74.4337ZM202.618 87.1667L199.522 81.3948L201.28 81.3861L204.419 87.0617V87.1667H202.618Z" fill="#231F20"/>
<path d="M194.797 74.216C193.648 74.216 192.709 73.2764 192.709 72.128C192.709 70.9796 193.648 70.04 194.797 70.04C195.945 70.04 196.885 70.9796 196.885 72.128C196.885 73.2938 195.945 74.216 194.797 74.216ZM194.797 70.3358C193.805 70.3358 193.004 71.1362 193.004 72.128C193.004 73.1198 193.805 73.9202 194.797 73.9202C195.788 73.9202 196.589 73.1198 196.589 72.128C196.589 71.1536 195.788 70.3358 194.797 70.3358Z" fill="#231F20"/>
</g>
<defs>
<linearGradient id="paint0_linear_3_252" x1="127.559" y1="80.1643" x2="139.421" y2="80.1643" gradientUnits="userSpaceOnUse">
<stop stop-color="#EFB65E"/>
<stop offset="1" stop-color="#ED9348"/>
</linearGradient>
<clipPath id="clip0_3_252">
<rect width="263" height="153" rx="5" fill="white"/>
</clipPath>
</defs>
</svg>
