<svg width="263" height="153" viewBox="0 0 263 153" fill="none" xmlns="http://www.w3.org/2000/svg">
<rect width="263" height="153" rx="5" fill="white"/>
<g clip-path="url(#clip0_3_243)">
<path fill-rule="evenodd" clip-rule="evenodd" d="M184.415 91.6964C183.785 91.4953 183.235 91.2626 182.77 90.9976L180.575 96.8789C181.556 97.3176 182.574 97.6693 183.616 97.9302C184.679 98.1953 185.843 98.3278 187.106 98.3278C189.1 98.3278 190.838 97.9106 192.318 97.08C193.798 96.2494 194.97 94.8171 195.832 92.7914L208 63.9749H199.026L194.139 78.1806L189.204 63.9749H179.729L190.051 87.2549L188.655 90.4004C188.387 90.9983 188.061 91.411 187.68 91.6437C187.299 91.8771 186.794 91.9931 186.16 91.9931C185.63 91.9931 185.048 91.8967 184.415 91.6964ZM170.465 77.4102C170.963 77.362 171.465 77.3176 171.962 77.2859V81.8231C171.529 82.1552 171.051 82.4239 170.542 82.6213C170.024 82.8216 169.455 82.918 168.821 82.918C167.958 82.918 167.284 82.6974 166.803 82.2478C166.321 81.799 166.077 81.2252 166.077 80.5271C166.077 79.8614 166.293 79.2559 166.726 78.7062C167.16 78.1602 167.89 77.7995 168.921 77.6346C169.432 77.5369 169.947 77.462 170.465 77.4102ZM172.511 86.4092L173.21 88.3061H180.539V72.9491C180.539 69.6914 179.592 67.2884 177.695 65.7438C175.802 64.1948 173.258 63.4244 170.069 63.4244C167.774 63.4244 165.804 63.758 164.159 64.4237C162.528 65.0778 161.019 66.0045 159.698 67.1641L163.585 71.501C164.34 70.8979 165.169 70.3947 166.052 70.0039C166.912 69.6374 167.838 69.4518 168.772 69.4587C169.635 69.4587 170.386 69.6914 171.015 70.1567C171.645 70.6221 171.962 71.3518 171.962 72.3512V72.9491C171.121 72.988 170.281 73.0455 169.443 73.1215C168.451 73.2147 167.462 73.3403 166.478 73.4981C165.352 73.6524 164.249 73.9367 163.189 74.3452C162.157 74.7421 161.25 75.2595 160.469 75.889C159.696 76.5106 159.068 77.2924 158.627 78.1806C158.178 79.079 157.953 80.1302 157.953 81.3253C157.953 82.4888 158.149 83.5197 158.551 84.4144C158.936 85.2969 159.505 86.0875 160.219 86.7338C160.934 87.3837 161.776 87.8731 162.739 88.206C163.701 88.5343 164.749 88.703 165.88 88.703C167.376 88.703 168.688 88.4786 169.82 88.029C170.947 87.584 171.846 87.0425 172.511 86.4084V86.4092ZM119.175 57.8277L129.958 88.3054H136.59L140.377 75.5396L144.217 88.3054H150.896L159.526 63.9742H150.599L147.008 76.8876L143.27 63.9734H137.585L133.846 76.8883L127.612 57.8285H119.175V57.8277ZM103.73 63.9734V70.0558H107.171V80.7266C107.171 81.9541 107.296 83.0656 107.545 84.0649C107.793 85.0635 108.219 85.9099 108.817 86.608C109.414 87.3061 110.204 87.8483 111.183 88.2293C112.166 88.6104 113.37 88.8032 114.798 88.8032C116.495 88.8032 117.983 88.6021 119.264 88.2052C120.543 87.8039 121.731 87.2263 122.826 86.4597L120.583 81.1724C120.125 81.5219 119.631 81.823 119.111 82.0708C118.577 82.3342 117.989 82.4715 117.394 82.4722C116.76 82.4722 116.355 82.2395 116.17 81.7741C115.989 81.3088 115.897 80.6589 115.897 79.8282V70.0566H121.75L119.596 63.9742H115.897V57.8405H107.172V63.9742H103.73V63.9734ZM94.5829 70.0799C95.2644 70.8255 95.6538 71.8496 95.7539 73.1486H88.1759C88.3085 71.885 88.7498 70.8699 89.496 70.104C90.2461 69.3419 91.1166 68.9564 92.1152 68.9564C93.0783 68.9564 93.9007 69.3329 94.5829 70.0799ZM89.548 81.2003C88.6654 80.3863 88.1925 79.2469 88.124 77.7822H103.931C103.898 72.8964 102.811 69.2817 100.665 66.9382C98.5222 64.5962 95.638 63.4244 92.015 63.4244C90.2544 63.4244 88.6172 63.7053 87.1051 64.2709C85.5922 64.8364 84.2887 65.667 83.1892 66.7657C82.0897 67.8614 81.2275 69.1974 80.5979 70.778C79.9639 72.3587 79.6506 74.1592 79.6506 76.1895C79.6506 78.2837 79.9797 80.1174 80.6454 81.6981C81.3118 83.2742 82.2102 84.5898 83.3413 85.6336C84.4686 86.6848 85.7887 87.4748 87.3054 88.0042C88.8175 88.5343 90.4343 88.8024 92.1634 88.8024C93.5919 88.8024 94.8796 88.6864 96.0265 88.4537C97.1742 88.2211 98.1893 87.8882 99.0681 87.4552C99.9023 87.0542 100.689 86.5617 101.415 85.9867C102.097 85.437 102.702 84.8308 103.236 84.1651L97.9001 79.9766C97.2299 80.8072 96.5085 81.4255 95.7298 81.8216C94.9474 82.2237 94.0091 82.4203 92.9134 82.4203C91.5504 82.4203 90.4268 82.0151 89.5472 81.2003H89.548ZM63.8198 82.3487C63.4704 82.296 63.1097 82.2245 62.7445 82.1198V70.3533C63.1459 70.2208 63.5427 70.1123 63.9441 70.0325C64.3703 69.946 64.8044 69.9041 65.2394 69.9075C66.6355 69.9075 67.7915 70.4053 68.7057 71.4C69.6169 72.3993 70.074 73.9439 70.074 76.0381C70.074 78.2001 69.6086 79.8049 68.6778 80.8524C67.747 81.8991 66.5354 82.4203 65.039 82.4203C64.5736 82.4203 64.1685 82.3962 63.8191 82.3487H63.8198ZM64.8666 63.5976C64.149 63.7075 63.4399 63.867 62.7445 64.0751V55.0482H54.0226V86.8573C55.5151 87.4236 57.144 87.8965 58.9054 88.2783C60.6706 88.6631 62.6481 88.8559 64.8387 88.8559C66.8321 88.8559 68.6695 88.587 70.3511 88.0576C72.0274 87.5237 73.4838 86.7172 74.7113 85.6343C75.9433 84.5589 76.8982 83.1869 77.5804 81.5226C78.2619 79.8614 78.6031 77.8997 78.6031 75.6413C78.6031 73.9439 78.3546 72.3512 77.853 70.8548C77.356 69.3585 76.6331 68.0625 75.6865 66.9638C74.7399 65.8681 73.5644 65.0021 72.1682 64.3718C70.7721 63.7422 69.1952 63.4252 67.4345 63.4252C66.4676 63.4252 65.6121 63.4809 64.8666 63.5976Z" fill="black"/>
</g>
<defs>
<clipPath id="clip0_3_243">
<rect width="154" height="43.376" fill="white" transform="translate(54 55)"/>
</clipPath>
</defs>
</svg>
