<svg width="263" height="153" viewBox="0 0 263 153" fill="none" xmlns="http://www.w3.org/2000/svg">
<rect width="263" height="153" rx="5" fill="white"/>
<g clip-path="url(#clip0_3_232)">
<path fill-rule="evenodd" clip-rule="evenodd" d="M154.773 88.7364L170.149 70.0548C171.223 68.7322 171.885 67.4096 175.274 67.4096C179.985 67.4096 186.102 66.3349 191.228 65.1777C198.337 63.6071 204.288 60.6312 209 58.3167C207.677 60.8792 198.667 63.5244 194.121 65.9216C198.089 64.9297 198.833 64.6817 202.718 63.3591C199.824 66.0043 196.435 65.7563 191.724 68.0709C195.195 67.3269 195.361 67.3269 198.75 66.2523C196.683 68.4842 192.715 68.1535 189.657 69.8894C192.798 69.3935 192.55 69.5588 195.443 68.7322C193.377 70.0548 189.905 72.204 183.457 74.8492L171.223 77.6597C170.314 77.825 168.082 78.073 166.181 79.8916C163.784 82.2888 160.477 85.0993 159.485 85.7606C158.328 86.6699 157.005 88.2405 154.773 88.7364ZM153.781 87.9925L167.751 69.9721C168.826 68.5668 169.074 66.7483 166.346 65.7563C162.626 64.351 158.576 64.0204 154.939 62.5325C147.416 59.6393 143.035 52.6957 138.572 46C137.084 48.8932 142.705 52.5303 144.027 56.2501C141.878 54.1009 139.894 51.869 138.158 49.3892C137.91 52.7783 142.87 54.9275 144.358 58.6473C142.291 56.8288 140.307 55.0102 138.654 53.0263C138.076 55.8368 143.945 58.482 144.689 61.0446C142.705 59.722 140.803 58.234 139.398 56.5808C139.729 58.482 141.713 61.1272 145.763 64.351C149.648 67.9882 156.013 72.5346 156.179 78.7343C156.179 80.6355 155.352 82.1235 154.443 83.7767C153.864 84.8513 153.451 86.3392 153.781 87.9925Z" fill="#949599"/>
<path fill-rule="evenodd" clip-rule="evenodd" d="M57.0665 100.144H56.8186L57.1492 98.9866C58.3065 98.3253 59.3811 97.9946 60.4557 97.9946C62.6876 98.16 63.1009 99.6479 62.7702 100.888L61.7783 105.848C61.6956 106.426 62.1089 106.592 62.7702 106.344L62.6876 106.674C61.117 107.418 60.2904 107.005 60.373 105.93C59.2158 106.922 58.3065 107.253 57.3145 107.253C55.7439 107.253 54.8347 106.178 55 105.021C55.3306 102.789 57.6452 102.376 59.2984 102.21C61.117 101.962 61.2823 101.466 61.365 100.557C61.5303 99.8132 61.0343 98.9039 59.5464 98.8213C58.6371 98.7386 57.7278 99.1519 57.0665 100.144ZM60.9517 102.458L60.373 105.104C59.7117 105.93 58.8024 106.426 58.1411 106.344C57.0665 106.344 56.6532 105.93 56.5706 105.186C56.5706 104.36 56.9839 103.533 57.9758 103.12C58.7198 102.789 59.7117 102.706 60.9517 102.458ZM87.1556 100.227H86.9076L87.1556 99.0692C88.3129 98.4079 89.4702 98.0773 90.5448 98.0773C92.694 98.2426 93.1073 99.7305 92.8593 100.97L91.8674 105.93C91.7847 106.509 92.198 106.674 92.8593 106.426L92.7767 106.757C91.2061 107.335 90.3795 107.005 90.4621 106.013C89.3048 107.005 88.3956 107.335 87.3209 107.335C85.7504 107.335 84.9237 106.261 85.0891 105.104C85.4197 102.872 87.7343 102.458 89.3875 102.293C91.1234 102.045 91.2887 101.549 91.4541 100.64C91.5367 99.8959 91.1234 98.9866 89.6355 98.9039C88.7262 98.8213 87.7343 99.2346 87.1556 100.227ZM90.9581 102.541L90.4621 105.186C89.8008 105.93 88.8089 106.426 88.2302 106.426C87.073 106.344 86.6596 105.93 86.6596 105.186C86.577 104.36 86.9903 103.616 87.9822 103.12C88.7262 102.872 89.8008 102.789 90.9581 102.541ZM66.4074 98.0773C66.9034 98.2426 67.3993 98.2426 67.8953 98.0773L67.5647 99.8959C68.6393 98.4906 69.5485 97.8293 70.9538 98.0773L70.3752 99.6479C69.3832 98.9866 67.978 99.5652 67.3167 101.053L66.1594 107.005H64.5888L66.4074 98.0773ZM101.622 98.0773H103.192L102.861 99.8132C103.853 98.4906 104.845 97.8293 106.168 98.0773L105.589 99.6479C104.68 98.9039 103.275 99.4826 102.613 101.053L101.456 107.005H99.8856L101.622 98.0773ZM132.62 98.16H134.19L133.777 99.8959C134.521 98.2426 138.241 96.5067 139.316 99.8132C141.795 96.672 145.598 97.9946 145.019 100.557L143.779 107.005H142.374L143.449 101.301C143.779 99.1519 142.457 98.9866 141.713 98.9866C140.555 98.9039 139.481 100.227 139.316 101.053L138.158 107.005H136.67L137.828 100.888C138.076 98.2426 134.438 98.3253 133.612 101.136L132.455 107.005H130.967L132.62 98.16ZM72.9377 98.0773C73.4337 98.2426 73.9297 98.16 74.5083 98.0773L72.6897 107.087H71.2018L72.9377 98.0773ZM74.591 93.9442C75.0869 93.9442 75.4176 94.4401 75.2522 94.9361C75.1696 95.5148 74.6736 95.8454 74.1776 95.8454C73.599 95.8454 73.2684 95.3494 73.4337 94.8535C73.5163 94.3575 74.0123 93.9442 74.591 93.9442ZM96.8271 98.0773H98.3977L96.5791 107.087H95.0912L96.8271 98.0773ZM98.4804 93.9442C98.9763 93.9442 99.307 94.4401 99.2243 94.9361C99.059 95.4321 98.563 95.8454 98.067 95.8454C97.5711 95.8454 97.2404 95.3494 97.3231 94.8535C97.4057 94.3575 97.9844 93.9442 98.4804 93.9442ZM107.656 104.938C108.235 104.938 108.648 105.517 108.482 106.096C108.317 106.757 107.821 107.17 107.16 107.17C106.581 107.17 106.168 106.592 106.333 106.013C106.499 105.352 107.077 104.938 107.656 104.938ZM78.7241 92.9522H80.2946L78.5587 102.045C79.0547 101.962 79.5507 101.714 80.0467 101.301L83.6011 98.0773H85.2544L80.2946 101.88L83.7665 107.005H81.8652L79.1374 102.954C78.8894 102.541 78.5587 102.458 78.3934 102.706L77.5668 107.005H75.9962L78.7241 92.9522ZM126.586 97.912C129.065 97.912 130.305 99.7305 129.809 102.541C129.313 105.352 126.751 107.17 124.271 107.17C121.791 107.17 119.973 105.269 120.634 102.706C121.626 99.1519 124.106 97.9946 126.586 97.912ZM126.338 98.4906C127.825 98.4906 128.569 100.061 128.073 102.541C127.577 105.104 125.842 106.674 124.271 106.674C122.783 106.674 121.708 104.938 122.287 102.706C123.114 99.5652 124.767 98.4906 126.338 98.4906ZM119.229 100.144L120.055 98.8213C119.311 98.2426 118.402 97.912 117.41 97.912C114.93 97.912 112.285 98.9866 111.541 102.706C110.962 105.352 112.698 107.17 115.095 107.17C116.253 107.17 117.41 107.005 118.402 106.261L118.65 105.269C118.237 105.677 117.746 105.997 117.206 106.21C116.666 106.423 116.089 106.525 115.509 106.509C113.938 106.426 112.616 104.938 113.112 102.706C113.69 99.7305 115.591 98.6559 117.162 98.5733C117.906 98.5733 118.733 99.0692 119.229 100.144Z" fill="#8C0D3A"/>
<path fill-rule="evenodd" clip-rule="evenodd" d="M55.248 88.1578H60.3731L64.4235 79.6436H74.343L75.9962 88.1578H84.2625L76.7402 57.7381H71.3671L55.248 88.1578ZM65.8288 76.7504L71.2845 66.3349L73.6817 76.7504H65.8288ZM91.7848 66.3349H98.7284L98.2324 71.0467C100.299 67.4095 102.448 65.7563 104.763 66.3349L103.853 73.2786C100.712 71.956 98.5631 72.9479 97.6538 76.3371L96.3312 88.1578H88.9742L91.7848 66.3349ZM110.218 66.3349H116.914L113.773 88.1578H107.077L110.218 66.3349ZM124.519 59.7219H130.967L128.735 75.6758H130.388L138.406 66.3349H144.854L135.926 75.6758L142.209 88.1578H133.612L129.975 78.6516H128.239L126.916 88.1578H120.386L124.519 59.7219Z" fill="#0D3F84"/>
</g>
<defs>
<clipPath id="clip0_3_232">
<rect width="154" height="61.3355" fill="white" transform="translate(55 46)"/>
</clipPath>
</defs>
</svg>
