<svg width="263" height="153" viewBox="0 0 263 153" fill="none" xmlns="http://www.w3.org/2000/svg">
<rect width="263" height="153" rx="5" fill="white"/>
<g clip-path="url(#clip0_3_263)">
<path d="M99.4611 78.7121H88.7284H88.7075L88.6527 78.7695L88.6814 78.8165L88.5249 78.8713L88.4387 78.9887H88.3135L88.2561 79.007V79.0409L88.1908 79.1166V79.1714L88.2222 79.1949L88.1439 79.3123L88.0708 79.4063V79.5289L88.003 79.675L87.836 79.9177L87.7368 79.9595H87.6794L87.7029 79.9856V80.056L87.6716 80.103L87.5724 80.4083L87.4967 80.6014V80.7084L87.6272 80.8206L87.7237 80.9302H87.7864L87.8464 81.0998L87.8203 81.1546L87.7812 81.1415L87.7264 81.1781L87.6977 81.2903V81.4599L87.7655 81.5277V81.6373L87.7029 81.6895L87.7185 81.7913L87.7681 81.9139H87.742L87.7707 81.9713L87.789 82.0601L87.8438 82.107L87.7968 82.1827L87.8412 82.2349L87.8881 82.3732L87.8725 82.4437L88.0369 82.6002L88.1569 82.6185L88.2561 82.702V82.749L88.29 82.7698L88.2743 82.8794L88.2482 82.9342L88.2743 82.9551L88.1778 83.0908V83.1404L88.1961 83.1743V83.203L88.1595 83.2369L88.1804 83.4013L88.2326 83.5005L88.2065 83.5292V83.6466L88.2326 83.6753V83.7901L88.183 83.8371L88.2013 83.9598L88.1674 84.1894H88.1491L88.1752 84.2285V84.4347H88.1047V84.4608L88.1282 84.4947H88.2195L88.2456 84.5156L88.2665 84.693L88.2195 84.7609L88.17 84.787L88.1987 84.8287V84.8731H88.1387L88.0734 84.9409L88.0917 84.9644L88.1126 84.9461H88.17L88.1282 85.0061V85.1001H88.0708L87.969 85.2279V85.2854L87.8777 85.4106H87.802V85.4967L87.4941 85.6637H87.4498L87.4263 85.729L87.1314 85.8855H87.0192V85.909L86.8835 85.9716L86.6982 86.0943L86.6539 86.063V86.1204L86.5417 86.2587L86.4843 86.2848L86.4529 86.2091L86.4321 86.3291L86.3799 86.3448L86.3616 86.4126L86.1763 86.5249V86.5718L86.1294 86.6136L86.085 86.6266V86.6919H85.965L85.704 86.8563V86.9606L85.6231 87.0206H85.5135L85.4666 87.0807L85.3805 87.0259H85.3309V87.0963L85.3752 87.1485V87.2216L85.3413 87.2685V87.3364L85.2917 87.4095L85.4248 87.5895V87.6521L85.3674 87.6991L85.4118 87.72L85.4613 87.8009V87.9105L85.5161 88.0122L85.4927 88.2993L85.5188 88.4011H85.5527V88.3202L85.6049 88.2106V88.3071H85.6257V88.4324L85.5892 88.4793V88.6046L85.6101 88.6229L85.5553 88.769V88.8473L85.5135 88.8995V88.9934H85.4874L85.5057 89.0743L85.5762 89.0325L85.5918 89.0847L85.5344 89.1708L85.5057 89.2909L85.3387 89.4683L85.0386 89.604L84.6342 89.6849L84.4776 89.8336L84.3602 89.8623L84.3236 89.9171L84.2662 89.9641L84.2323 90.0789H84.1853L84.141 90.1076L84.1618 90.1337L84.2062 90.2172V90.3007L84.2479 90.2459L84.3132 90.2668L84.3341 90.1885H84.3654V90.2277L84.3471 90.3581L84.3001 90.4338V90.5278L84.2453 90.6008H84.2714L84.2166 90.7678L84.201 90.9113L84.1331 91.0496L84.0888 91.2271L84.0209 91.308L84.0001 91.3889L83.8774 91.5324H83.8357L83.8096 91.5715L83.7156 91.6159L83.6713 91.6681L83.5591 91.7412L83.5043 91.8508L83.4129 91.9551V91.9995L83.3607 92.0987H83.272L83.2016 92.2343L83.0189 92.5762L82.8702 92.7145L82.8467 92.845L82.7606 92.8815L82.6797 92.978H82.6327L82.6118 93.0146L82.1291 93.4895H82.0717V93.513L81.9934 93.6017L81.6776 93.8052L81.6098 93.8783L81.4976 93.9122V93.9409L81.3201 93.9879L81.221 94.0505H81.1166L81.0644 94.0114H80.9235L80.8087 94.0479L80.7591 94.1314L80.827 94.1888V94.2149H80.6652L80.5712 94.168H80.4956L80.4303 94.2332L80.459 94.2906L80.4303 94.3193L80.2085 94.2723L80.1459 94.2227L79.9319 94.1706L79.7936 94.1967V94.2306L79.7205 94.2567L79.6136 94.1993H79.3657L79.2926 94.2332L79.2717 94.3115L79.2221 94.288L79.1647 94.3036L79.1125 94.3454L79.0864 94.3819H78.9768L78.9038 94.4132L78.7681 94.3637L78.6585 94.4028L78.6376 94.4341L78.5254 94.4106L78.4263 94.5228L78.3428 94.5385L78.314 94.6063L78.2645 94.5881L78.2201 94.6089L77.9905 94.502L77.9435 94.5281V94.4185L77.8574 94.3715L77.7895 94.4054L77.7478 94.3871L77.7843 94.3558L77.7608 94.2593L77.6539 94.241L77.5756 94.3089V94.3924L77.5182 94.348V94.2541L77.5495 94.1758L77.5286 94.061L77.5912 93.9566L77.5103 93.8105L77.4294 93.7374L77.3538 93.62V93.4999L77.4033 93.4556L77.4477 93.5025H77.4895L77.5443 93.4425L77.5704 93.3016L77.5208 93.145V93.0746L77.3903 92.8554V92.7536L77.2624 92.5866L77.2024 92.3257L77.0928 92.0543V91.9238L76.9937 91.642L76.8449 91.5324L76.8188 91.3837L76.6623 91.2715L76.6362 91.2062L76.5266 91.0966L76.4144 90.8748L76.3309 90.76V90.5826L76.2578 90.5017V90.4077L76.3074 90.3712L76.2656 90.2877L76.203 90.2538L76.1691 90.0137L76.1143 89.9432L76.1795 89.9015L76.1378 89.7684L76.1534 89.5727L76.0151 89.21V88.8551L75.9499 88.6176L76.0073 88.5915V88.4011L75.7646 88.0488V87.9183L75.5324 87.5895L75.4984 87.3834L75.2688 86.8615L75.1227 86.6005L74.8617 86.3213L74.8356 85.9273V85.8803L74.8565 85.7342V85.5098L74.8774 85.3636V85.1966L75.0053 85.0427L75.0313 84.8678L75.1436 84.7191V84.3486L75.1853 84.3146V84.1607L75.4463 83.9363V83.8241L75.6498 83.6701H75.7046L75.8872 83.3283V82.9238L75.8298 82.8533V82.7777L75.655 82.4906V82.3706L75.5846 82.2584V82.0914L75.5011 82.0496L75.6472 81.8618L75.6681 81.6791L75.5298 81.4834V81.1233L75.2688 80.8362V80.771L75.2192 80.711L75.3523 80.6379L75.2662 80.6092H75.1331L75.1096 80.5544L75.0861 80.4996L75.1383 80.4031L75.107 80.27L75.0496 80.21L74.9974 80.1499L75.0053 80.0508L74.9322 79.9699V79.8864L74.7939 79.7977L74.7443 79.7481L74.653 79.6594L74.6321 79.6385L74.5512 79.6072L74.546 79.5289L74.379 79.448L74.3346 79.3462L74.1259 79.1792L74.0006 79.0461L74.0345 79.0227L73.9171 78.9235L73.8675 78.8165L73.7971 78.7461V78.6051L73.7136 78.4982V78.4251L73.6614 78.3833L73.5648 78.1798V78.1328L73.677 78.1694L73.7658 78.0963L73.7866 77.8354L73.7997 77.7075L73.8519 77.7597L74.0554 77.7101L73.9119 77.6762L73.8206 77.5301L73.9197 77.5144V77.4048V77.3787L73.8049 77.3187L73.9197 77.0995L74.0658 76.9351L74.0319 76.8542L74.0502 76.8359L74.1233 76.7655L74.0554 76.695L74.118 76.5332L74.1024 76.3558L74.0189 76.2384V76.1079L74.0502 76.0479L73.9797 75.9383L73.844 75.9957L73.8023 75.9487H73.7214L73.6666 75.6643L73.5935 75.7034L73.5309 75.6747L73.497 75.6956L73.4187 75.6147L73.3717 75.7452L73.2543 75.7687L73.1786 75.7243L72.9647 75.8026L72.9177 75.7739L72.8264 75.8287L72.3801 75.8548L72.2131 75.8078L72.0931 75.7008L72.0409 75.539L71.9783 75.5077V75.3538L71.8635 75.1294L71.6756 74.9467L71.3364 74.7666L71.1902 74.8267L71.0102 74.7901H70.9919L70.6736 74.8971L70.5092 74.8762H70.4596L70.2117 75.0302H70.1725L69.9116 75.0615L69.6924 75.1685L69.4523 75.3694L69.1731 75.3955L68.7739 75.586L68.5938 75.5051L68.3329 75.4712L68.3094 75.4294L68.2442 75.3068L68.1554 75.3277L68.1346 75.4425L67.9336 75.3538L67.7014 75.4294H67.0908L66.9159 75.4529V75.4999L66.595 75.6147L66.5611 75.6617H66.4593L66.2975 75.8L66.2557 75.7843L65.7991 75.6147L65.4468 75.3538H65.3503L65.0632 75.0667H65.0423L64.8701 74.9519H64.7997L64.6822 74.7823L64.6066 74.7484L64.6405 74.6831H64.6274L64.5674 74.6153H64.3926L64.1473 74.4874L64.0429 74.4613L64.069 74.4039L64.0012 74.3309L63.9438 74.2735L63.9829 74.1952V74.1743L63.889 74.2082L63.7846 74.096V73.9916L63.7376 73.8455H63.6489L63.615 73.7724L63.6776 73.655L63.6124 73.6185V73.548L63.6619 73.4619L63.5941 73.4071L63.4688 73.3419L63.4323 73.201H63.3358L63.294 73.1592V73.0861L63.3305 73.0496L63.2627 73.0053L63.2209 73.0653L63.1505 73.0366H63.0461L62.9417 72.893L62.9835 72.7234L62.9104 72.6425L62.8008 72.6739L62.7773 72.6478V72.5695L62.5816 72.5904L62.6912 72.4729H62.639L62.6651 72.4312L62.6234 72.3842H62.5477L62.519 72.3451H62.7408L62.7799 72.3164L62.6573 72.2224L62.5451 72.2459L62.4277 72.2877H62.3755L62.3494 72.2224H62.2554L62.1719 72.1389L62.2554 72.0737H62.1928H62.0389L61.9997 72.0032V71.9145L61.958 71.8649L62.0363 71.8858L62.0858 71.9015L62.185 71.8388L62.0284 71.784L61.924 71.8388L61.9006 71.8049L61.9449 71.7553V71.617L61.8927 71.5492L61.9736 71.4683L62.0676 71.5883H62.1928L62.2633 71.5231L62.1589 71.5518L62.0389 71.4918L62.018 71.4213L62.0049 71.3848L62.0676 71.3378L61.958 71.2595H61.9945V71.1656L61.9084 71.1525L61.8066 70.9751L61.6501 70.8472L61.9397 70.5863L62.0597 70.3697L62.078 70.2184L62.1041 70.0305L62.1772 69.7434L62.2894 69.5869L62.3207 69.2555L62.2294 68.7779L62.1015 68.5692L62.1537 68.53H62.2189L62.2528 68.3735L62.2189 68.2717L62.2789 68.2117L62.1458 68.0134L62.0911 68.0577L62.0467 68.0473L62.0075 67.9351L61.9058 68.0473V67.8698L61.958 67.7602V67.742V67.5906L62.0075 67.4915V67.3767L62.0728 67.3062H62.1302L62.2763 67.0453L62.3572 67.0139L62.2998 66.9722V66.9278L62.4851 66.6825V66.6121L62.5999 66.3511L62.6677 66.3146L62.8843 66.1137L62.9 65.9806L63.1844 65.5683L63.1113 65.4378L63.2366 65.3648L63.2679 65.2734L63.5889 65.1064H63.6724V64.9159L63.8524 64.655L63.962 64.4984L64.4135 64.4149L64.7344 64.1331H64.8806L65.0136 63.9896L65.045 63.8617L65.3346 63.5329L65.3659 63.3998L65.3137 63.3346L65.2746 63.2955L65.3346 63.1232L65.2589 62.9693V62.8701L65.379 62.6248L65.5642 62.4578V62.3456L65.4912 62.1864L65.6999 62.0351L65.7652 61.9359L65.8774 61.8994L66.06 61.7768H66.1331L66.261 61.6411L66.4306 61.5837L66.5323 61.5132H66.5819L66.7907 61.3201L66.8533 61.2001L66.8742 61.0096L66.9733 60.8791L66.9916 60.6182L67.0803 60.519H67.1534L67.1899 60.4851L67.2813 60.4538L67.3074 60.4877L67.2917 60.5138V60.566L67.3126 60.639L67.3622 60.6782L67.49 60.8139L67.5892 60.8347L67.7301 60.8139L67.8266 60.7617H67.9023L68.0511 60.8034L68.1998 60.7721L68.2807 60.6834H68.3146L68.3381 60.7721L68.3955 60.8295L68.6564 60.8504H68.7217H68.8443L68.9852 60.806L69.074 60.7095L69.0896 60.6547L69.147 60.6025L69.2566 60.5451H69.3871L69.4132 60.5086L69.4628 60.4746H69.5254L69.5567 60.5033H69.6063L69.6637 60.4277V60.3572L69.7733 60.2894H69.8385L69.9664 60.2711L70.1908 60.0989L70.2926 60.1145H70.47L70.5692 60.0806L70.6762 60.138H70.7466L70.864 60.0232L70.9528 60.0571H71.0493L71.0963 59.9632L71.1537 59.9501L71.2372 59.9762H71.2842L71.3807 59.9919L71.5034 59.971L71.5608 59.9867H71.686L71.746 60.0806H71.8504L71.9444 60.0075H72.0174L72.0774 60.031L72.1349 59.958L72.2288 59.9397V59.8771L72.3358 59.851L72.401 59.9006V59.9736L72.5602 59.9919L72.6385 59.9136V59.8666L72.7637 59.911L72.8655 59.9997L73.0612 59.9423L73.1291 59.958L73.2595 59.9319L73.283 59.9606L73.403 59.8562L73.5701 59.7727L73.6927 59.7466L73.7397 59.8144V59.7544L73.8414 59.7336L73.8988 59.7857V59.8666L73.9458 59.8823L74.0137 60.0415L74.0606 60.0676L74.1154 60.0102L74.2798 59.8588L74.3216 59.8901V59.9815L74.2302 60.1171V60.2006L74.118 60.2789L74.0972 60.399L74.2094 60.5503L74.3451 60.6025V60.7539L74.379 60.7773L74.3972 60.8426L74.3477 60.8948L74.3868 60.9496L74.3529 61.0018L74.2198 61.1322L73.9902 61.294L73.9458 61.4297L74.0189 61.5628L74.165 61.6646L74.2329 61.6489L74.2537 61.7194L74.3164 61.7481L74.3503 61.7194V61.6854L74.379 61.6646L74.4494 61.7037V61.7689L74.4625 61.8185L74.6008 61.902H74.6556L74.76 61.9229L74.8487 62.0064L75.0757 62.056L75.3993 61.996L75.5271 62.0455H75.7881L75.9447 62.1473L76.2395 62.1891L76.357 62.343V62.4865L76.5005 62.7605L76.6544 62.8388H76.8319L76.8815 62.8101L77.0302 62.8284L77.3746 62.9719L77.5886 63.0815L77.7269 63.1937L77.9044 63.3398L78.1053 63.4207L78.2018 63.3842L78.3584 63.2511L78.3741 63.2067L78.4941 63.0867L78.5332 62.9823L78.4758 62.7971L78.3923 62.6666L78.408 62.4291L78.4654 62.3848L78.4941 62.2595L78.6063 62.1499L78.802 62.056L79.029 62.0351L79.1726 61.962H79.2065L79.3056 62.0116L79.3526 61.9699L79.3918 61.9907L79.5535 62.0325H79.6527L79.8484 62.1395V62.1969L79.8119 62.2099L79.8484 62.2621L80.0128 62.3065H80.1328L80.1955 62.3639L80.506 62.4004L80.5921 62.3874L80.6756 62.4004L80.7408 62.4761L80.7826 62.604H80.8296H81.0592L81.2366 62.6614L81.5967 62.6901L81.7455 62.7214L81.876 62.8127L81.9308 62.7788H81.9829L82.116 62.8623H82.2726H82.3822L82.5492 62.9667H82.7032L82.7214 62.9249L82.8336 62.8284L82.9537 62.7892L83.0111 62.7579L83.1363 62.6901L83.1911 62.6509H83.3216H83.4129L83.3399 62.6822H83.2511V62.7031L83.2825 62.7344L83.3842 62.6927H83.4729H83.5591V62.6614L83.4912 62.6483L83.5173 62.6196L83.6739 62.6614L83.7678 62.6927H83.8435L83.8826 62.7318L83.8383 62.7527L83.8591 62.8336L83.9531 62.8858L84.0157 62.9797V62.9197L83.9296 62.8284L83.9505 62.7501L84.1201 62.8675L84.3497 62.8049L84.6446 62.8545L84.7698 62.8049L84.8299 62.724L84.8794 62.7475L84.9708 62.8806L85.0177 63.0528L85.1482 63.2511L85.25 63.4912L85.2108 63.6034L85.2709 63.7599L85.2526 63.7887L85.1821 64.0496V64.1488L85.1273 64.2871L85.1691 64.3288L85.1352 64.4932L85.0725 64.5532L85.0543 64.608V64.5819L84.9316 64.5141L84.7098 64.2792L84.6837 64.1931L84.5611 64.1383L84.5167 64.047V63.9557L84.3367 63.8043V63.7469L84.2949 63.6973L84.2636 63.5799H84.2192L84.201 63.5512L84.1801 63.5825V63.6451V63.7078L84.2767 63.833V63.9374L84.4489 64.1409L84.4698 64.214L84.7307 64.441L84.7698 64.5141L84.7516 64.5871V64.655L84.9081 64.8246V64.8768L84.9551 64.9368L84.9734 65.1143L85.023 65.1925V65.2891L85.2891 65.6988L85.31 65.8292L85.3857 65.8788L85.5683 66.1398L85.6101 66.2624L85.6623 66.325V66.2937L85.691 66.3172L85.7667 66.4346H85.811L85.8632 66.4894H85.7275L85.6936 66.4607V66.4999L85.7249 66.5625V66.6773L85.704 66.7426L85.7745 66.9852L85.918 67.0766H86.0041L86.0615 67.0505L86.1189 67.1731L86.2155 67.2018L86.2442 67.2592L86.3512 67.3688L86.4321 67.4001V67.4393V67.481L86.4556 67.5176V67.5411L86.4712 67.5619V67.5802L86.4895 67.6063L86.5208 67.7341L86.6095 67.8411V67.8855H86.5886L86.5756 67.8568L86.5391 67.8124L86.5234 67.8281V67.9116L86.6356 68.243L86.6591 68.4257L86.633 68.5953L86.6956 68.7936L86.7791 68.9528L86.8548 68.9684L87.0583 69.1041V69.1928H87.1523L87.2514 69.245V69.3103H87.2697L87.3767 69.4251L87.5698 69.9313L87.6324 70.2627H87.6663L87.6924 70.3854V70.4271L87.7551 70.448L87.7942 70.5445L87.8177 70.6881L87.8986 70.7089V70.5785H87.8777V70.4845L87.9116 70.4689L87.9951 70.5889L87.9638 70.6228L88.0421 70.7402L88.0943 70.795L88.1413 70.7637H88.2091L88.2378 70.782L88.2978 70.7611L88.3813 70.8551L88.4257 70.9099L88.5536 70.9412L88.5823 70.9881L88.7388 71.163L88.8067 71.2804L88.9006 71.3195L88.9685 71.4004H89.005V71.3743L89.0363 71.4161L89.112 71.6092L89.1694 71.6249L89.2346 71.7084L89.219 71.7371L89.2607 71.8284H89.3077L89.3599 71.8545L89.3964 71.8206L89.4121 71.8467H89.4356V71.8806L89.5425 71.985H89.5712V72.0293L89.5869 72.1728L89.5399 72.1911L89.4538 72.2877H89.3886L89.3416 72.3581H89.2425L89.2946 72.4207H89.326L89.3964 72.3894H89.5164L89.5321 72.4207L89.5608 72.4781H89.5895L89.8792 72.8304L89.9131 72.9009L89.9601 72.9139L90.0749 73.0183L90.1871 73.0444L90.3202 73.0287L90.3619 72.9765L90.4819 72.9035H90.5576L90.7116 72.7782H90.7585L90.7846 72.8043H90.9099L90.9543 72.7887L91.0456 72.8304L91.1813 72.8148L91.4605 72.6425L91.5518 72.6243L91.6432 72.6634L91.711 72.6425H91.8363L91.9641 72.5773H92.1102L92.1546 72.6034H92.2016L92.426 72.5616L92.4886 72.4834L92.6243 72.4651L92.6634 72.499V72.4599L92.8044 72.4442L92.8879 72.3633H92.9035L92.9401 72.2981L92.9975 72.2433H93.0366V72.2224L93.0914 72.2616L93.2088 72.3033H93.2636H93.2845L93.2349 72.3738L93.2062 72.4468V72.5225L93.1801 72.5695L93.201 72.6086H93.2715V72.6347L93.2219 72.6765L93.1827 72.773L93.2219 72.8278L93.2375 72.9061L93.2036 72.9792H93.2662V72.9557H93.2949L93.3236 73.0105L93.2923 73.0261V73.0079H93.2323H93.1932L93.1253 73.1227L93.1619 73.1827L93.1436 73.2923L93.1149 73.3419V73.4619L92.9557 73.6837L92.8487 73.9133L92.7809 73.9968H92.7443H99.4872C99.523 73.997 99.5572 73.9821 99.5815 73.9558C99.6058 73.9295 99.618 73.8942 99.615 73.8585C99.615 73.7985 99.5994 73.7411 99.5916 73.6837C99.5472 73.321 99.4924 72.9609 99.4298 72.6034C99.4115 72.4938 99.3906 72.3816 99.3698 72.272C99.2889 71.8545 99.2001 71.4396 99.0958 71.0299C99.0958 70.9986 99.0775 70.9699 99.0697 70.9386C98.9705 70.5576 98.8583 70.1792 98.7383 69.8061C98.7043 69.6991 98.6704 69.5921 98.6339 69.4877C98.5086 69.1224 98.3729 68.7623 98.2373 68.4048C98.2216 68.3709 98.2112 68.3343 98.1955 68.3004C98.0389 67.9142 97.8693 67.5358 97.6919 67.1627C97.6449 67.0635 97.5953 66.967 97.5484 66.8704C97.3935 66.5573 97.2317 66.2494 97.063 65.9467L96.9534 65.7457C96.7499 65.3978 96.5359 65.0499 96.3115 64.702L96.1445 64.441C95.9583 64.1609 95.7652 63.8869 95.5652 63.619L95.359 63.4285C95.1111 63.105 94.858 62.7866 94.5918 62.4787L94.4274 62.2934C94.203 62.0325 93.9734 61.7872 93.7359 61.5419L93.5324 61.3149C93.2454 61.0252 92.9505 60.7408 92.6478 60.4668L92.5304 60.3677C92.2694 60.125 91.9772 59.8927 91.6927 59.6657L91.4318 59.4596C91.1134 59.2143 90.7899 58.9742 90.4585 58.7472L90.435 58.7289C90.0931 58.4967 89.7435 58.2749 89.3912 58.0609L89.0963 57.8965C88.7858 57.7164 88.4727 57.5416 88.1543 57.3746L87.9873 57.2859C87.622 57.1006 87.2462 56.9284 86.8678 56.764L86.5782 56.644C86.2625 56.5109 85.9415 56.383 85.6179 56.2708L85.357 56.1769C84.9656 56.0412 84.5741 55.9159 84.1644 55.8037L83.9035 55.7306C83.5695 55.6419 83.2329 55.561 82.891 55.488L82.5805 55.4201C82.1656 55.3366 81.7481 55.2636 81.3228 55.2061L81.114 55.1801C80.7461 55.1331 80.386 55.0965 80.0154 55.0678L79.671 55.0444C79.2326 55.0183 78.7942 55 78.3506 55H78.2723C77.8548 55 77.4347 55.0183 77.0119 55.0444L76.5709 55.0809C76.2735 55.1044 75.976 55.1357 75.6785 55.1722C75.4906 55.1957 75.2975 55.2166 75.1096 55.2453H75.0679C65.4901 56.7456 58.1211 64.5034 57.1148 74.1456C57.1148 74.1873 57.1148 74.2291 57.1148 74.2708C57.0757 74.5527 57.0548 74.8319 57.0391 75.1189C57.0391 75.2024 57.0391 75.2859 57.0391 75.3799C57 75.6956 57 76.0244 57 76.3558C57 76.3819 57 76.408 57 76.4341C57 76.7394 57 77.0395 57.0209 77.3422L57.0365 77.6031C57.0522 77.8641 57.0705 78.125 57.0965 78.4016L57.1122 78.5869C57.1461 78.9052 57.1879 79.221 57.2349 79.5341C57.2349 79.6124 57.2583 79.6881 57.2714 79.7664C57.3105 80.0273 57.3549 80.2622 57.4045 80.5074C57.4201 80.5909 57.4358 80.6744 57.454 80.7684C57.5167 81.0763 57.5871 81.3842 57.6654 81.6869C57.6654 81.7208 57.6837 81.7574 57.6941 81.7913C57.7646 82.0522 57.8429 82.3315 57.9237 82.5976L58.002 82.8586C58.0829 83.1195 58.1664 83.3544 58.263 83.6023C58.2812 83.6518 58.2969 83.704 58.3152 83.7536C58.4222 84.0433 58.537 84.3303 58.6544 84.6147L58.7483 84.8313C58.8449 85.0531 58.944 85.2749 59.0484 85.4967L59.1528 85.7159C59.2885 85.9925 59.4137 86.2639 59.5703 86.5327L59.6356 86.6475C59.7634 86.8823 59.8965 87.112 60.0348 87.3416L60.1705 87.5634C60.3088 87.7878 60.4497 88.0096 60.5958 88.2288C60.6219 88.2654 60.6454 88.3045 60.6715 88.3436C60.8411 88.6046 61.0186 88.842 61.1934 89.0873L61.3369 89.2778C61.483 89.4683 61.6318 89.6588 61.7831 89.8441C61.8327 89.9067 61.8797 89.9667 61.9319 90.0267C62.125 90.259 62.3233 90.4886 62.5268 90.713L62.6286 90.8252C62.8034 91.0157 62.9835 91.201 63.1635 91.3863L63.3462 91.5689C63.5393 91.7594 63.735 91.9447 63.9333 92.1274L64.0142 92.203C64.2386 92.4092 64.4709 92.6075 64.7031 92.8006L64.8936 92.9546C65.0789 93.1059 65.2694 93.2572 65.4625 93.4034L65.6425 93.5391C65.8852 93.7191 66.1331 93.8966 66.3836 94.061L66.5271 94.1523C66.7385 94.2932 66.9525 94.4315 67.1691 94.5646L67.3909 94.7003C67.6309 94.8438 67.8736 94.9847 68.1189 95.1204L68.1946 95.1622C68.4555 95.3083 68.7373 95.4466 69.0139 95.5797L69.2384 95.6893C69.4602 95.7936 69.6846 95.8928 69.909 95.992L70.1125 96.0807C70.397 96.1981 70.684 96.3129 70.9736 96.4173L71.1511 96.4825C71.3912 96.566 71.6312 96.6495 71.8739 96.7252L72.1349 96.8061C72.4193 96.8922 72.7063 96.9731 72.9934 97.0488L73.0403 97.0618C73.3456 97.1401 73.6536 97.2106 73.9615 97.2758L74.2224 97.3254C74.4834 97.375 74.7182 97.4193 74.9713 97.4611L75.1879 97.495C75.501 97.542 75.8168 97.5811 76.1325 97.615L76.3439 97.6333C76.6049 97.6594 76.8658 97.6777 77.1267 97.6933L77.3877 97.709C77.7139 97.722 78.0427 97.7325 78.3715 97.7325C78.7002 97.7325 79.0551 97.7325 79.3944 97.709C79.5248 97.709 79.6553 97.6907 79.778 97.6829C79.9893 97.6672 80.1981 97.6568 80.4068 97.6385C80.5425 97.6385 80.6678 97.6046 80.8087 97.589C81.0096 97.5681 81.2079 97.5472 81.4063 97.5185L81.8368 97.448C82.0221 97.4167 82.2047 97.3906 82.3874 97.3567C82.5701 97.3228 82.6849 97.2915 82.8336 97.2602C82.9824 97.2288 83.1833 97.1897 83.3555 97.148C83.5277 97.1062 83.6556 97.0697 83.8043 97.0305C83.9531 96.9914 84.141 96.9444 84.308 96.8974C84.475 96.8505 84.6028 96.8061 84.749 96.7591C84.8951 96.7122 85.0778 96.66 85.2395 96.6052C85.4013 96.5504 85.5266 96.5008 85.6701 96.4486C85.8136 96.3964 85.9937 96.3338 86.1555 96.2712C86.3173 96.2085 86.4399 96.1511 86.5834 96.0911C86.7269 96.0311 86.8939 95.9659 87.0479 95.898C87.2019 95.8302 87.3297 95.7649 87.468 95.6997C87.6063 95.6345 87.7733 95.5588 87.9221 95.4857C88.0708 95.4127 88.183 95.3422 88.3291 95.2691C88.4753 95.1961 88.6266 95.1152 88.7728 95.0343C88.9189 94.9534 89.0337 94.8803 89.1668 94.802C89.2999 94.7238 89.459 94.635 89.5999 94.5411C89.7409 94.4472 89.8609 94.3767 89.9835 94.2932C90.1062 94.2097 90.2654 94.1132 90.4037 94.0192C90.542 93.9253 90.6516 93.8418 90.7768 93.7583C90.9021 93.6748 91.0378 93.5678 91.1813 93.4686L91.544 93.1842C91.6745 93.0824 91.8049 92.9833 91.9328 92.8789L92.2799 92.5762C92.4051 92.4692 92.5408 92.3648 92.653 92.2552C92.7652 92.1456 92.8748 92.0465 92.987 91.9421C93.0992 91.8377 93.2297 91.7177 93.3497 91.6002C93.4698 91.4828 93.5611 91.3811 93.6681 91.2741C93.7751 91.1671 93.9003 91.0366 94.0125 90.9166C94.1247 90.7965 94.2187 90.6869 94.3205 90.5747C94.4222 90.4625 94.5423 90.3294 94.6492 90.2042C94.7562 90.0789 94.8423 89.9667 94.9389 89.8467C95.0354 89.7267 95.1503 89.5857 95.252 89.4631C95.3538 89.3405 95.4347 89.2022 95.5286 89.0899C95.6226 88.9777 95.7243 88.829 95.8209 88.6933C95.9174 88.5576 95.9931 88.4324 96.0818 88.3097C96.1706 88.1871 96.2671 88.0488 96.3428 87.9C96.4185 87.7513 96.5046 87.6391 96.5881 87.5034C96.6716 87.3677 96.7603 87.2242 96.849 87.0807C96.9377 86.9371 97.0004 86.8197 97.076 86.6684C97.1517 86.517 97.2352 86.3839 97.3109 86.2404C97.3866 86.0969 97.4544 85.956 97.5249 85.8151C97.5953 85.6742 97.671 85.5228 97.7388 85.3741C97.8067 85.2253 97.8667 85.0844 97.9319 84.9383C97.9972 84.7922 98.065 84.6408 98.1277 84.4895C98.1903 84.3381 98.2425 84.1946 98.2999 84.0459C98.3573 83.8971 98.4199 83.738 98.4773 83.5814C98.5347 83.4248 98.5765 83.2813 98.6287 83.1326C98.6809 82.9838 98.7357 82.8142 98.7852 82.655C98.8348 82.4958 98.874 82.3497 98.9157 82.1958C98.9575 82.0418 99.0096 81.8748 99.0514 81.7104C99.0932 81.546 99.1271 81.3973 99.1636 81.2381C99.2001 81.0789 99.2419 80.9145 99.2758 80.7501C99.3097 80.5857 99.3358 80.4292 99.3645 80.27C99.3932 80.1108 99.4298 79.9386 99.4559 79.7716C99.482 79.6046 99.5002 79.4454 99.5237 79.2836C99.5472 79.1218 99.5655 78.9913 99.5811 78.8452C99.5841 78.7755 99.5307 78.7163 99.4611 78.7121ZM74.332 61.6358L74.2589 61.5784V61.5445H74.3451L74.379 61.5863L74.332 61.6358ZM63.9203 74.4065L63.8577 74.3674L63.8446 74.3256L63.8655 74.2917H63.9151L63.9516 74.3361V74.3987L63.9203 74.4065ZM72.6333 77.7753L72.5811 77.8093H72.5445V77.7232L72.5993 77.6657L72.6567 77.7023L72.6333 77.7753ZM73.4161 76.3036V76.2332H73.4761L73.5126 76.1262L73.6092 76.027L73.6431 76.0583V76.1888L73.5753 76.3688L73.4865 76.3558L73.4161 76.3036Z" fill="#0090FC"/>
<path d="M84.0601 90.4599L84.0157 90.4677L83.9844 90.4756L84.0601 90.4599Z" fill="#0090FC"/>
<path d="M108.145 89.8127L107.102 92.2917H106.037L110.069 83.1378L113.998 92.2917H112.921L111.89 89.8127H108.145ZM110.035 85.408L108.539 88.9073H111.485L110.035 85.408Z" fill="#0090FC"/>
<path d="M128.118 84.4582V87.0676H131.028V87.9705H128.118V92.3048H127.145V83.5527H131.109V84.4582H128.118Z" fill="#0090FC"/>
<path d="M145.552 92.2917H144.579V83.5527H145.842C147.501 83.5527 149.041 83.9937 149.041 85.9638C149.041 87.3077 148.195 88.2601 146.851 88.3749L149.633 92.2891H148.438L145.797 88.4532H145.552V92.2917ZM145.552 87.5947H145.855C146.956 87.5947 148.067 87.386 148.067 86.029C148.067 84.5912 147.024 84.4634 145.842 84.4634H145.552V87.5947Z" fill="#0090FC"/>
<path d="M163.943 92.2917H162.97V83.5527H163.943V92.2917Z" fill="#0090FC"/>
<path d="M184.67 85.4654C183.971 84.7329 183.005 84.3149 181.993 84.3068C180.046 84.3068 178.47 86.0003 178.47 87.9235C178.483 89.8913 180.06 91.4914 182.027 91.5324C183.026 91.506 183.975 91.0891 184.67 90.3712V91.5767C183.911 92.128 182.999 92.4281 182.061 92.4353C180.446 92.4353 178.954 91.5738 178.147 90.1755C177.339 88.7771 177.339 87.0542 178.147 85.6559C178.954 84.2575 180.446 83.3961 182.061 83.3961C183.002 83.382 183.92 83.6833 184.67 84.252V85.4654ZM199.789 89.8127L198.746 92.2917H197.678L201.713 83.1378L205.64 92.2917H204.562L203.518 89.8127H199.789ZM201.679 85.408L200.184 88.9073H203.13L201.679 85.408ZM118.267 72.8539H108.406C108.406 74.7588 109.408 75.7869 111.339 75.7869C112.344 75.7869 113.064 75.4529 113.578 74.5787H118.087C117.755 76.0122 116.854 77.2485 115.59 78.0023C114.311 78.751 112.85 79.1338 111.368 79.1088C106.992 79.1088 103.722 76.6376 103.722 72.0815C103.722 67.6793 106.734 65.0359 111.029 65.0359C115.611 65.0359 118.262 67.8672 118.262 72.3711L118.267 72.8539ZM113.917 70.1505C113.654 68.9053 112.538 68.0266 111.266 68.0629C109.902 68.0629 108.769 68.7831 108.485 70.1505H113.917Z" fill="#0090FC"/>
<path d="M132.739 66.7425V59.2612H137.786V78.6704H132.739V70.7167H125.454V78.6704H120.41V59.2612H125.454V66.7425H132.739Z" fill="#0090FC"/>
<path d="M154.15 72.8539H144.292C144.292 74.7588 145.296 75.7869 147.225 75.7869C148.229 75.7869 148.949 75.4529 149.466 74.5787H153.97C153.637 76.0145 152.731 77.2515 151.462 78.0023C150.183 78.751 148.722 79.1338 147.24 79.1088C142.864 79.1088 139.595 76.6376 139.595 72.0815C139.595 67.6793 142.606 65.0359 146.901 65.0359C151.483 65.0359 154.134 67.8672 154.134 72.3711L154.15 72.8539ZM149.8 70.1505C149.537 68.9053 148.421 68.0266 147.149 68.0629C145.784 68.0629 144.652 68.7831 144.367 70.1505H149.8ZM171.125 78.6704H166.428V77.2038H166.378C165.553 78.5086 163.93 79.1088 162.386 79.1088C158.471 79.1088 155.718 75.8391 155.718 72.0632C155.718 68.2873 158.422 65.0359 162.336 65.0359C163.855 65.0359 165.449 65.6022 166.428 66.7608V65.4639H171.125V78.6704ZM160.569 72.0815C160.569 73.7541 161.676 75.0406 163.581 75.0406C165.486 75.0406 166.597 73.7541 166.597 72.0815C166.597 70.4584 165.486 69.091 163.581 69.091C161.676 69.091 160.569 70.4584 160.569 72.0815Z" fill="#0090FC"/>
<path d="M178.392 78.6704H173.708V57.3041H178.392V78.6704Z" fill="#0090FC"/>
<path d="M196.666 57.3041V67.1392H196.718C197.798 65.6962 199.111 65.0281 200.94 65.0281C204.286 65.0281 205.898 67.2409 205.898 70.5863V78.6756H201.201V71.9014C201.201 70.3566 200.969 68.7701 199.09 68.7701C197.211 68.7701 196.645 70.3671 196.645 71.9014V78.6704H191.948V57.3041H196.666Z" fill="#0090FC"/>
<path d="M190.181 65.4639H187.53V57.3041H182.844V65.4639H180.195V69.3259H182.844V78.6704H187.53V69.3259H190.181V65.4639Z" fill="#0090FC"/>
</g>
<defs>
<clipPath id="clip0_3_263">
<rect width="149" height="42.7951" fill="white" transform="translate(57 55)"/>
</clipPath>
</defs>
</svg>
