<svg width="263" height="153" viewBox="0 0 263 153" fill="none" xmlns="http://www.w3.org/2000/svg">
<rect width="263" height="153" rx="5" fill="white"/>
<path fill-rule="evenodd" clip-rule="evenodd" d="M114.291 95.9438C115.924 95.9539 117.453 96.1104 118.909 96.6409C119.68 96.9116 120.401 97.3086 121.041 97.8157C121.92 98.5184 122.557 99.4789 122.861 100.562C123.216 101.797 123.223 103.107 122.882 104.346C122.415 106.062 121.291 107.217 119.731 107.986C118.701 108.485 117.609 108.756 116.485 108.89C115.107 109.062 113.713 109.062 112.335 108.89C111.035 108.735 109.766 108.412 108.622 107.757C106.843 106.737 105.854 105.209 105.668 103.148C105.588 102.297 105.665 101.438 105.896 100.615C106.344 99.0551 107.331 97.9313 108.736 97.1514C109.842 96.5472 111.035 96.2469 112.263 96.0785C112.97 95.9875 113.677 95.9648 114.291 95.9438ZM114.54 105.984C115.136 105.994 115.73 105.927 116.308 105.785C118.087 105.37 118.982 104.238 118.961 102.437C118.94 100.772 118.129 99.7067 116.517 99.2517C115.435 98.9496 114.343 98.9496 113.241 99.0542C112.656 99.1011 112.085 99.2553 111.556 99.5092C110.682 99.9351 110.12 100.611 109.923 101.569C109.866 101.849 109.836 102.135 109.832 102.421C109.769 104.107 110.612 105.25 112.234 105.719C112.936 105.929 113.664 105.984 114.54 105.984Z" fill="#EB1C24"/>
<path fill-rule="evenodd" clip-rule="evenodd" d="M98.417 92.4905H107.072C107.165 92.4955 107.259 92.4955 107.352 92.4905C107.509 92.4795 107.571 92.5423 107.571 92.6979C107.561 93.5934 107.571 94.4979 107.571 95.3925C107.571 95.5381 107.519 95.5899 107.373 95.5799C107.28 95.5745 107.186 95.5745 107.093 95.5799H101.008C100.914 95.5849 100.82 95.5849 100.727 95.5799C100.591 95.569 100.518 95.6109 100.529 95.7674C100.539 95.8711 100.529 95.9858 100.529 96.0895V108.375C100.529 108.905 100.591 108.873 100.04 108.811C99.0722 108.697 98.1467 108.447 97.315 107.937C96.4404 107.407 95.8271 106.678 95.5987 105.662C95.5343 105.34 95.5062 105.012 95.515 104.684V96.0267C95.515 95.528 95.5668 95.5799 95.0891 95.5799H89.6591C89.5621 95.5745 89.4649 95.5745 89.3679 95.5799C89.2223 95.5899 89.1695 95.528 89.1805 95.3925C89.1905 95.2368 89.1805 95.0912 89.1805 94.9375V92.8545C89.1805 92.4905 89.1805 92.4905 89.5545 92.4905H98.417Z" fill="#EB1C24"/>
<path fill-rule="evenodd" clip-rule="evenodd" d="M157.799 108.714C157.73 108.725 157.661 108.732 157.592 108.735C156.395 108.735 155.199 108.724 153.992 108.745C153.753 108.745 153.669 108.672 153.628 108.433C153.483 107.695 153.223 106.998 152.941 106.301C152.859 106.103 152.754 106.04 152.546 106.04C149.727 106.051 146.908 106.051 144.09 106.04C143.881 106.04 143.767 106.103 143.694 106.301C143.414 106.98 143.185 107.68 143.008 108.394C142.917 108.82 142.956 108.738 142.602 108.738C141.364 108.748 140.126 108.738 138.878 108.738C138.844 108.632 138.848 108.518 138.888 108.415C139.19 106.907 139.794 105.513 140.543 104.181C141.863 101.862 143.517 99.7914 145.366 97.8776C145.782 97.4408 146.239 97.0586 146.665 96.64C147.435 95.8702 149.224 95.943 149.952 96.6191C151.049 97.6387 152.084 98.7223 153.052 99.8642C154.374 101.446 155.559 103.11 156.51 104.951C157.105 106.084 157.536 107.296 157.79 108.55C157.8 108.602 157.79 108.654 157.8 108.717L157.799 108.714ZM151.362 103.411C150.509 102.139 149.541 100.949 148.47 99.8542C148.324 99.7086 148.251 99.7914 148.148 99.8851C147.123 100.904 146.203 102.022 145.401 103.224C145.37 103.277 145.31 103.329 145.349 103.411H151.362Z" fill="#EB1C24"/>
<path fill-rule="evenodd" clip-rule="evenodd" d="M131.829 96.2661H138.891C138.985 96.2715 139.079 96.2715 139.172 96.2661C139.38 96.2451 139.422 96.3498 139.422 96.5391C139.412 97.1324 139.422 97.7357 139.422 98.339C139.422 98.5784 139.536 98.8696 139.36 99.0361C139.203 99.1817 138.912 99.078 138.694 99.088C137.32 99.098 135.937 99.088 134.564 99.088C134.137 99.088 134.179 99.057 134.179 99.4938V107.451C134.179 108.117 134.013 108.387 133.368 108.606C132.37 108.95 131.285 108.947 130.289 108.596C129.675 108.377 129.519 108.117 129.519 107.462V99.5448C129.519 99.077 129.571 99.0971 129.093 99.0971H124.558C124.255 99.0871 124.255 99.0871 124.255 98.7649V97.8267C124.255 97.3899 124.266 96.9531 124.255 96.5163C124.255 96.3343 124.318 96.2661 124.495 96.277C124.588 96.282 124.682 96.282 124.776 96.277H131.829V96.2661Z" fill="#EB1C24"/>
<path fill-rule="evenodd" clip-rule="evenodd" d="M169.72 108.739C168.232 108.739 166.755 108.79 165.268 108.655C164.498 108.593 163.734 108.464 162.986 108.27C161.186 107.781 160.165 106.575 159.782 104.785C159.669 104.238 159.613 103.68 159.615 103.121V97.369C159.615 96.7866 159.782 96.5263 160.333 96.3288C160.999 96.0786 161.686 96.0376 162.383 96.1104C162.709 96.1387 163.03 96.2085 163.339 96.3179C163.896 96.5472 164.078 96.7929 164.078 97.3999V102.951C164.078 103.357 164.078 103.77 164.182 104.168C164.348 104.845 164.744 105.302 165.399 105.533C165.913 105.718 166.455 105.81 167.001 105.806C169.102 105.817 171.193 105.817 173.294 105.817C173.898 105.817 173.814 105.734 173.825 106.327V108.449C173.825 108.729 173.814 108.729 173.533 108.729C172.254 108.74 170.985 108.74 169.726 108.74" fill="#EB1C24"/>
<path fill-rule="evenodd" clip-rule="evenodd" d="M138.29 58.0871C137.485 57.6946 136.654 57.3574 135.803 57.0779C133.208 56.1778 130.533 55.5231 127.815 55.1223C125.62 54.7878 123.397 54.6765 121.179 54.7902C119.202 54.9039 117.266 55.2452 115.427 56.0068C114.105 56.5474 112.97 57.3382 112.098 58.4929C112.056 58.5348 112.035 58.5758 111.994 58.6176C111.983 58.6276 111.941 58.6276 111.921 58.6385C111.859 58.5348 111.931 58.4511 111.973 58.3655C113.492 54.9985 115.718 52.2176 118.88 50.252C120.742 49.0972 122.78 48.3583 124.903 47.8277C127.285 47.2353 129.708 47.0588 132.152 47.1907C133.472 47.2602 134.783 47.4343 136.075 47.7113C136.209 47.7422 136.355 47.815 136.511 47.7422L136.5 47.7322C136.48 47.8359 136.563 47.805 136.615 47.815C137.208 47.9706 137.791 48.1371 138.373 48.3037C141.194 49.1463 143.833 50.363 146.144 52.2258C146.196 52.2667 146.247 52.3168 146.32 52.3086H146.309C146.309 52.3315 146.318 52.3536 146.333 52.3705C146.349 52.3874 146.37 52.3978 146.393 52.3996C147.163 53.1067 147.933 53.8246 148.598 54.6355C150.568 57.0037 151.82 59.8852 152.208 62.941C152.593 65.853 152.281 68.6931 151.126 71.404C150.585 72.6835 149.857 73.8383 148.851 74.8056C148.612 75.024 148.403 75.3043 148.049 75.3671C148.039 75.2315 148.154 75.1905 148.227 75.1177C148.462 74.8749 148.677 74.6138 148.871 74.337C149.901 72.9019 150.14 71.2794 149.963 69.5731C149.902 68.8282 149.711 68.0997 149.401 67.42C148.881 66.0032 148.027 64.8174 146.97 63.7664C146.886 63.6754 146.813 63.5789 146.731 63.4934C144.286 61.101 141.394 59.4366 138.294 58.0844" fill="#EB1C24"/>
<path fill-rule="evenodd" clip-rule="evenodd" d="M139.913 79.2027C140.059 79.3383 140.224 79.2655 140.381 79.2555C142.395 79.1842 144.394 78.8701 146.333 78.32C146.375 78.3091 146.417 78.32 146.5 78.3091C146.409 78.4911 146.25 78.5694 146.136 78.6731C144.607 80.0154 142.951 81.1802 141.122 82.0856C139.062 83.0939 136.909 83.77 134.631 84.0303C134.457 84.0511 134.286 84.093 134.122 84.155C134.031 84.0721 133.913 84.0931 133.81 84.1031C133.477 84.124 133.133 84.1759 132.8 84.1759C132.041 84.1759 131.282 84.1868 130.525 84.124C129.838 84.0721 129.141 84.0203 128.465 83.9165C127.085 83.7195 125.724 83.4025 124.398 82.9692C124.222 82.904 124.035 82.869 123.847 82.8655C123.556 82.668 123.202 82.5925 122.87 82.4596C119.832 81.2639 117.097 79.6095 114.829 77.228C112.69 75.0209 111.3 72.1966 110.855 69.1554C110.72 68.2818 110.616 67.3982 110.647 66.5164C110.699 64.9148 110.98 63.3751 111.843 61.9919C112.092 61.586 112.353 61.1902 112.749 60.8999C112.707 60.9727 112.676 61.0455 112.634 61.1183C111.997 62.0656 111.864 63.1158 112.092 64.2078C112.405 65.7165 113.164 66.9851 114.225 68.088C114.933 68.9925 115.754 69.7833 116.597 70.5532C118.997 72.7335 121.72 74.5301 124.669 75.8794C126.385 76.6718 128.163 77.3258 129.984 77.835C130.13 77.8759 130.265 77.9487 130.411 77.8241C130.453 78.0534 130.66 78.0216 130.796 78.0534C132.4 78.4665 134.03 78.7757 135.674 78.9789C136.64 79.107 137.612 79.1832 138.586 79.2073C138.877 79.2182 139.159 79.2073 139.44 79.2701C139.519 79.2952 139.603 79.3026 139.686 79.2918C139.769 79.2809 139.848 79.2521 139.918 79.2073" fill="#6F8EC7"/>
<path fill-rule="evenodd" clip-rule="evenodd" d="M139.913 79.2026C139.759 79.2936 139.576 79.3197 139.402 79.2754C139.121 79.229 138.835 79.2083 138.55 79.2135C137.572 79.2026 136.605 79.0889 135.638 78.9842C133.992 78.7907 132.362 78.4814 130.759 78.0587C130.613 78.0278 130.415 78.0587 130.374 77.8303C130.738 77.3198 131.143 76.8421 131.455 76.3006C131.695 76.0404 131.861 75.7291 132.049 75.427C132.611 74.5477 133.119 73.6341 133.568 72.6916C134.108 71.7342 134.535 70.715 134.962 69.7059C136.324 66.4436 137.355 63.053 138.04 59.5848C138.131 59.0962 138.165 58.5838 138.313 58.1079C141.414 59.4602 144.305 61.1246 146.729 63.5169C146.814 63.6058 146.894 63.6997 146.968 63.7981C146.947 63.8709 146.915 63.9537 146.895 64.0265C146.697 65.0876 146.44 66.1195 146.146 67.1469C145.823 68.2599 145.418 69.3419 145.023 70.4229C144.96 70.5576 144.898 70.6959 144.835 70.8388C144.16 72.4798 143.363 74.0679 142.451 75.5899C142.087 76.1932 141.702 76.7857 141.327 77.379C140.848 77.9723 140.381 78.5856 139.913 79.199" fill="#0B5AAA"/>
<path fill-rule="evenodd" clip-rule="evenodd" d="M114.188 68.0933C113.138 66.9913 112.368 65.7219 112.056 64.214C111.828 63.122 111.965 62.081 112.597 61.1246C112.641 61.055 112.679 60.982 112.711 60.9062C113.054 60.4512 113.523 60.1463 114.002 59.8551C115.322 59.0443 116.779 58.5547 118.287 58.2117C120.603 57.7149 122.976 57.5433 125.339 57.7021C127.809 57.8545 130.253 58.298 132.619 59.0234C132.681 59.0443 132.754 59.0443 132.801 59.1481C132.427 59.2108 132.052 59.1999 131.688 59.2391C130.084 59.4496 128.499 59.7914 126.95 60.261C124.162 61.0618 121.468 62.0919 118.942 63.5588C117.814 64.1895 116.77 64.958 115.832 65.8466C115.165 66.5012 114.61 67.2601 114.188 68.0933Z" fill="#FBCA1D"/>
<path fill-rule="evenodd" clip-rule="evenodd" d="M146.309 52.3349C146.237 52.3558 146.185 52.304 146.133 52.2512C143.823 50.3893 141.192 49.1727 138.362 48.33C137.78 48.1535 137.188 47.9969 136.605 47.8413C136.584 47.7895 136.573 47.7167 136.49 47.7576L136.5 47.7685C136.563 47.6439 136.449 47.602 136.397 47.5392C135.314 46.374 133.863 45.6174 132.288 45.3971C130.832 45.1787 129.417 45.3552 128.011 45.7192C127.865 45.6564 127.73 45.8339 127.584 45.7192C128.593 44.9594 129.748 44.5226 130.965 44.2832C134.481 43.5971 137.841 44.0448 140.982 45.8129C143.499 47.238 145.226 49.381 146.277 52.0646C146.298 52.1474 146.36 52.2312 146.308 52.3376" fill="#0B5AAA"/>
<path fill-rule="evenodd" clip-rule="evenodd" d="M141.317 77.3619C141.691 76.7695 142.076 76.1789 142.44 75.5728C143.354 74.0509 144.15 72.4617 144.822 70.819L145.01 70.4131C145.135 70.3612 145.259 70.3221 145.384 70.2575C146.882 69.5504 148.245 68.645 149.388 67.4492C149.69 68.1312 149.877 68.8589 149.939 69.6023C150.116 71.3076 149.877 72.9202 148.847 74.3661C148.647 74.6375 148.431 74.8979 148.202 75.146C148.129 75.2188 148.015 75.2716 148.025 75.3963V75.3854C147.963 75.3854 147.934 75.4063 147.934 75.4691C147.881 75.4691 147.85 75.49 147.85 75.5519C147.818 75.544 147.784 75.5468 147.754 75.56C147.724 75.5732 147.699 75.5959 147.683 75.6247C147.546 75.7693 147.38 75.8829 147.195 75.9577C145.936 76.5947 144.584 76.946 143.191 77.1744C142.571 77.2734 141.946 77.336 141.319 77.3619" fill="#FBCA1D"/>
<path fill-rule="evenodd" clip-rule="evenodd" d="M123.82 82.8746C124.008 82.8833 124.194 82.9185 124.372 82.9792C125.698 83.4117 127.058 83.7284 128.439 83.9256C129.126 84.0294 129.812 84.0812 130.499 84.134C131.258 84.1859 132.018 84.1859 132.774 84.1859C133.107 84.1859 133.45 84.134 133.783 84.1131C133.887 84.1022 134.002 84.0812 134.095 84.165C132.14 85.2879 130.059 86.0687 127.823 86.349C124.848 86.7339 122.019 86.318 119.439 84.6955C117.816 83.6763 116.589 82.3131 115.89 80.5031C115.911 80.4706 115.936 80.4402 115.963 80.4121C118.074 82.9192 120.726 83.5744 123.816 82.8773" fill="#0B5AAA"/>
<path fill-rule="evenodd" clip-rule="evenodd" d="M133.547 72.678C133.12 73.6353 132.579 74.5298 132.028 75.4144C131.84 75.7156 131.674 76.0277 131.435 76.288C127.711 75.2715 124.311 73.588 121.179 71.3185C120.031 70.4899 118.933 69.5938 117.892 68.6349C117.767 68.5202 117.611 68.4265 117.528 68.2599L117.559 68.229C117.613 68.2367 117.666 68.2543 117.714 68.2809C120.149 69.6122 122.759 70.5067 125.412 71.2666C127.253 71.8039 129.13 72.2072 131.029 72.4732C131.863 72.5934 132.704 72.6618 133.547 72.678Z" fill="#FBC91B"/>
<path fill-rule="evenodd" clip-rule="evenodd" d="M127.576 45.7192C127.722 45.8229 127.856 45.6564 128.002 45.7192C127.825 45.8229 127.628 45.8548 127.389 45.9167C127.42 45.782 127.48 45.7292 127.576 45.7192Z" fill="#00ABD3"/>
<path fill-rule="evenodd" clip-rule="evenodd" d="M115.977 80.4304C115.95 80.4582 115.926 80.4887 115.904 80.5214C115.813 80.4385 115.801 80.3239 115.78 80.1992C115.83 80.2155 115.876 80.2454 115.91 80.2857C115.945 80.326 115.968 80.3751 115.977 80.4276" fill="#00ABD3"/>
<path fill-rule="evenodd" clip-rule="evenodd" d="M147.683 75.6147C147.697 75.5847 147.722 75.561 147.752 75.5476C147.783 75.5343 147.817 75.5322 147.849 75.5419C147.845 75.5587 147.836 75.5743 147.825 75.5875C147.813 75.6008 147.799 75.6113 147.783 75.6182C147.767 75.6252 147.75 75.6285 147.733 75.6279C147.715 75.6273 147.698 75.6228 147.683 75.6147Z" fill="#EC1464"/>
<path fill-rule="evenodd" clip-rule="evenodd" d="M147.933 75.4581C147.933 75.3962 147.964 75.3752 148.024 75.3752C148.055 75.4663 147.992 75.4662 147.933 75.4581Z" fill="#EC1464"/>
<path fill-rule="evenodd" clip-rule="evenodd" d="M146.382 52.4177C146.33 52.4076 146.299 52.3867 146.299 52.3267C146.382 52.3066 146.372 52.3794 146.382 52.4177Z" fill="#016794"/>
<path fill-rule="evenodd" clip-rule="evenodd" d="M117.538 68.2708C117.507 68.2599 117.455 68.2499 117.486 68.2081C117.517 68.1662 117.549 68.2081 117.569 68.239L117.538 68.2708Z" fill="#F58520"/>
<path fill-rule="evenodd" clip-rule="evenodd" d="M147.849 75.5417C147.849 75.4789 147.88 75.458 147.933 75.458C147.953 75.5308 147.901 75.5308 147.849 75.5417Z" fill="#EC1464"/>
</svg>
