<svg width="263" height="153" viewBox="0 0 263 153" fill="none" xmlns="http://www.w3.org/2000/svg">
<rect width="263" height="153" rx="5" fill="white"/>
<g clip-path="url(#clip0_14_3471)">
<path d="M52.1027 78.5275V82.7622L54.4532 86.8074L55.6705 82.7622L56.0482 72.4387C56.0762 71.9611 56.2581 71.5468 56.5939 71.1957C56.9436 70.8445 57.3494 70.6689 57.8111 70.6689C58.3008 70.6689 58.7205 70.8445 59.0703 71.1957C59.4201 71.5327 59.588 71.9471 59.574 72.4387L59.1962 83.4575L57.3074 89.7148C57.0416 90.5716 56.4959 91 55.6705 91H53.7817C53.1241 91 52.6064 90.6699 52.2287 90.0098L50.2979 86.681L48.3671 89.9676C47.9334 90.6559 47.4157 91 46.8141 91H44.9673C44.5615 91 44.1908 90.8806 43.855 90.6418C43.5332 90.4031 43.3303 90.1222 43.2464 89.7991L41.3995 83.31L41.0008 72.4387C40.9868 71.9752 41.1617 71.5678 41.5254 71.2167C41.8892 70.8515 42.3159 70.6689 42.8056 70.6689C43.2533 70.6689 43.6451 70.8375 43.9809 71.1746C44.3307 71.4976 44.5125 71.919 44.5265 72.4387L44.9253 82.8044L46.0795 86.7652L48.535 82.6358V78.5275C48.535 78.0359 48.7099 77.6215 49.0596 77.2844C49.4094 76.9333 49.8362 76.7577 50.3399 76.7577C50.8155 76.7577 51.2283 76.9333 51.5781 77.2844C51.9278 77.6215 52.1027 78.0359 52.1027 78.5275Z" fill="#D6DE23"/>
<path d="M85.1986 77.3266V81.6035C85.1986 82.081 85.024 82.4954 84.6739 82.8465C84.3243 83.1976 83.9116 83.3732 83.4358 83.3732H70.9698V84.4056C70.9698 85.0095 71.2286 85.5222 71.7463 85.9436L72.7746 86.8074C73.3343 87.2428 73.8659 87.4605 74.3696 87.4605H83.4358C83.9116 87.4605 84.3243 87.6361 84.6739 87.9872C85.024 88.3243 85.1986 88.7387 85.1986 89.2303C85.1986 89.7078 85.017 90.1222 84.653 90.4733C84.3033 90.8244 83.8976 91 83.4358 91H74.1387C73.5232 91 72.8726 90.8736 72.187 90.6208C71.5154 90.3539 71.0187 90.08 70.6969 89.7991L69.1229 88.4086C68.6332 88.0153 68.2205 87.4675 67.8847 86.7652C67.5629 86.063 67.402 85.4169 67.402 84.8269V76.7156C67.402 76.2521 67.5769 75.627 67.9267 74.8405C68.2905 74.0539 68.7452 73.443 69.2908 73.0075L70.7599 71.8488C71.7253 71.0622 72.7956 70.6689 73.9708 70.6689H78.9237C80.1689 70.6689 81.3442 71.1886 82.4495 72.228L83.7716 73.4921C84.7231 74.3489 85.1986 75.627 85.1986 77.3266ZM71.0117 77.0527V79.7916H81.7149V77.3266C81.7149 76.6664 81.5121 76.1608 81.1063 75.8097L80.078 74.9037C79.5463 74.4683 79.0706 74.2506 78.6509 74.2506H74.2227C73.677 74.2506 73.1804 74.4402 72.7326 74.8194L71.7043 75.6832C71.2426 76.0344 71.0117 76.4908 71.0117 77.0527Z" fill="#D6DE23"/>
<path d="M97.0351 64.7698V73.0918L98.5882 71.8487C99.5674 71.0341 100.582 70.6268 101.631 70.6268H104.863C106.052 70.6268 107.109 71.0341 108.032 71.8487L109.711 73.3025C110.173 73.7098 110.551 74.2927 110.844 75.0512C111.152 75.8096 111.306 76.5541 111.306 77.2844V84.4477C111.306 85.0938 111.166 85.775 110.886 86.4913C110.607 87.2077 110.285 87.7344 109.921 88.0715L108.389 89.5252C107.997 89.9045 107.437 90.2486 106.71 90.5576C105.983 90.8525 105.367 91 104.863 91H101.841C100.372 91 98.7702 90.1783 97.0351 88.535V89.2303C97.0351 89.7218 96.8605 90.1432 96.5104 90.4943C96.1747 90.8314 95.7619 91 95.2721 91C94.7827 91 94.363 90.8314 94.0129 90.4943C93.6772 90.1432 93.5096 89.7218 93.5096 89.2303V64.7698C93.5096 64.2782 93.6842 63.8638 94.0342 63.5267C94.3839 63.1756 94.7966 63 95.2721 63C95.7619 63 96.1747 63.1756 96.5104 63.5267C96.8605 63.8638 97.0351 64.2782 97.0351 64.7698ZM104.59 74.2084H102.156C101.568 74.2084 101.12 74.3419 100.813 74.6087L97.6438 77.3265C97.238 77.6917 97.0351 78.2395 97.0351 78.9699V82.9729C97.0351 83.5629 97.2658 84.0544 97.7278 84.4477L100.561 86.8495C100.967 87.2288 101.393 87.4184 101.841 87.4184H104.716C105.122 87.4184 105.472 87.292 105.766 87.0391L107.172 85.775C107.55 85.4941 107.738 85.0938 107.738 84.5741V77.1159C107.738 76.526 107.55 76.0765 107.172 75.7675L105.892 74.693C105.5 74.37 105.066 74.2084 104.59 74.2084Z" fill="#D6DE23"/>
<path d="M130.868 64.7698V73.0918L132.421 71.8487C133.401 71.0341 134.415 70.6268 135.465 70.6268H138.697C139.886 70.6268 140.942 71.0341 141.865 71.8487L143.544 73.3025C144.006 73.7098 144.384 74.2927 144.678 75.0512C144.986 75.8096 145.139 76.5541 145.139 77.2844V84.4477C145.139 85.0938 145 85.775 144.72 86.4913C144.44 87.2077 144.118 87.7344 143.754 88.0715L142.222 89.5252C141.831 89.9045 141.271 90.2486 140.544 90.5576C139.816 90.8525 139.2 91 138.697 91H135.674C134.205 91 132.603 90.1783 130.868 88.535V89.2303C130.868 89.7218 130.694 90.1432 130.344 90.4943C130.008 90.8314 129.595 91 129.105 91C128.616 91 128.196 90.8314 127.846 90.4943C127.511 90.1432 127.343 89.7218 127.343 89.2303V64.7698C127.343 64.2782 127.517 63.8638 127.868 63.5267C128.217 63.1756 128.63 63 129.105 63C129.595 63 130.008 63.1756 130.344 63.5267C130.694 63.8638 130.868 64.2782 130.868 64.7698ZM138.424 74.2084H135.989C135.401 74.2084 134.954 74.3419 134.646 74.6087L131.477 77.3265C131.071 77.6917 130.868 78.2395 130.868 78.9699V82.9729C130.868 83.5629 131.099 84.0544 131.561 84.4477L134.394 86.8495C134.8 87.2288 135.227 87.4184 135.674 87.4184H138.55C138.955 87.4184 139.305 87.292 139.599 87.0391L141.005 85.775C141.383 85.4941 141.572 85.0938 141.572 84.5741V77.1159C141.572 76.526 141.383 76.0765 141.005 75.7675L139.725 74.693C139.333 74.37 138.899 74.2084 138.424 74.2084Z" fill="#D6DE23"/>
<path d="M170.995 77.0527V84.532C170.995 86.1192 170.247 87.5869 168.75 88.9353C167.266 90.2837 165.734 90.9579 164.154 90.9579H160.019C158.41 90.9579 156.871 90.2767 155.402 88.9143C153.933 87.5378 153.198 86.077 153.198 84.532V77.0527C153.198 75.5077 153.912 74.054 155.339 72.6915C156.78 71.3151 158.34 70.6268 160.019 70.6268H164.154C165.734 70.5987 167.266 71.2589 168.75 72.6073C170.247 73.9556 170.995 75.4375 170.995 77.0527ZM156.766 77.2002V84.3635C156.766 85.0096 156.997 85.5222 157.459 85.9015L158.781 87.0392C159.074 87.292 159.487 87.4184 160.019 87.4184H164.111C164.713 87.4184 165.259 87.2007 165.748 86.7653L166.819 85.8172C167.252 85.4801 167.469 85.0096 167.469 84.4056V77.2423C167.469 76.54 167.252 76.0203 166.819 75.6832L165.58 74.6931C165.161 74.3419 164.671 74.1663 164.111 74.1663H160.46C159.662 74.1663 159.047 74.356 158.613 74.7352L157.416 75.7675C156.983 76.1327 156.766 76.6103 156.766 77.2002Z" fill="#D6DE23"/>
<path d="M184.153 70.6689H192.234C193.493 70.6689 194.605 71.0482 195.57 71.8066C196.536 72.551 197.018 73.2814 197.018 73.9978C197.018 74.5034 196.836 74.9177 196.473 75.2408C196.123 75.5638 195.731 75.7254 195.298 75.7254C194.738 75.7254 194.227 75.4726 193.766 74.9669C193.304 74.4612 192.821 74.2085 192.317 74.2085H184.342C183.559 74.2085 183.167 74.5385 183.167 75.1986C183.167 75.6622 183.426 76.0133 183.944 76.2521L193.325 80.4236C194.276 80.845 195.053 81.5262 195.654 82.4673C196.27 83.3943 196.578 84.4267 196.578 85.5643C196.578 87.0813 196.039 88.3664 194.962 89.4199C193.898 90.4733 192.688 91 191.331 91H184.196C182.964 91 181.817 90.6278 180.754 89.8834C179.704 89.139 179.18 88.4156 179.18 87.7133C179.18 87.2498 179.348 86.8425 179.684 86.4914C180.033 86.1262 180.481 85.9436 181.027 85.9436C181.474 85.9436 181.95 86.1964 182.454 86.7021C182.971 87.2077 183.713 87.4605 184.678 87.4605H191.247C191.765 87.4605 192.198 87.2638 192.549 86.8706C192.898 86.4633 193.073 85.9998 193.073 85.4801C193.073 84.6794 192.681 84.1036 191.898 83.7525L182.433 79.4756C181.523 79.0682 180.824 78.4783 180.334 77.7058C179.844 76.9333 179.6 76.1468 179.6 75.3461C179.6 74.082 180.033 72.9865 180.901 72.0595C181.782 71.1324 182.866 70.6689 184.153 70.6689Z" fill="#D6DE23"/>
<path d="M210.135 70.6689H218.215C219.474 70.6689 220.587 71.0482 221.552 71.8066C222.517 72.551 223 73.2814 223 73.9978C223 74.5034 222.818 74.9177 222.454 75.2408C222.104 75.5638 221.713 75.7254 221.279 75.7254C220.719 75.7254 220.209 75.4726 219.747 74.9669C219.286 74.4612 218.803 74.2085 218.299 74.2085H210.324C209.541 74.2085 209.149 74.5385 209.149 75.1986C209.149 75.6622 209.407 76.0133 209.925 76.2521L219.306 80.4236C220.258 80.845 221.034 81.5262 221.636 82.4673C222.252 83.3943 222.559 84.4267 222.559 85.5643C222.559 87.0813 222.021 88.3664 220.943 89.4199C219.88 90.4733 218.67 91 217.313 91H210.177C208.946 91 207.799 90.6278 206.735 89.8834C205.686 89.139 205.161 88.4156 205.161 87.7133C205.161 87.2498 205.329 86.8425 205.665 86.4914C206.015 86.1262 206.462 85.9436 207.008 85.9436C207.456 85.9436 207.931 86.1964 208.435 86.7021C208.953 87.2077 209.694 87.4605 210.66 87.4605H217.229C217.746 87.4605 218.18 87.2638 218.53 86.8706C218.88 86.4633 219.054 85.9998 219.054 85.4801C219.054 84.6794 218.663 84.1036 217.879 83.7525L208.414 79.4756C207.505 79.0682 206.805 78.4783 206.316 77.7058C205.826 76.9333 205.581 76.1468 205.581 75.3461C205.581 74.082 206.015 72.9865 206.882 72.0595C207.764 71.1324 208.848 70.6689 210.135 70.6689Z" fill="#D6DE23"/>
</g>
<defs>
<clipPath id="clip0_14_3471">
<rect width="182" height="28" fill="white" transform="translate(41 63)"/>
</clipPath>
</defs>
</svg>
