<svg width="263" height="153" viewBox="0 0 263 153" fill="none" xmlns="http://www.w3.org/2000/svg">
<rect width="263" height="153" rx="5" fill="white"/>
<path d="M100.188 68.994H97.0498V85.1419H100.188V68.994Z" fill="#2A3362"/>
<path d="M112.335 79.4123C112.335 81.641 110.901 82.6423 108.992 82.6423C107.082 82.6423 105.806 81.641 105.806 79.5253V73.7706H102.668V80.2539C102.668 83.4819 104.692 85.3697 108.059 85.3697C110.174 85.3697 111.357 84.5904 112.15 83.7099H112.333L112.605 85.1437H115.492V73.7706H112.335V79.4123Z" fill="#2A3362"/>
<path d="M143.121 82.8917C140.824 82.8917 139.528 81.8456 139.324 80.3221H149.284C149.33 80.0054 149.353 79.6857 149.353 79.3656C149.331 75.2746 146.236 73.5427 142.924 73.5427C139.08 73.5427 136.191 75.8415 136.191 79.5487C136.191 83.0729 138.967 85.3697 143.128 85.3697C146.61 85.3697 148.928 83.8248 149.407 81.4579H146.306C145.918 82.391 144.804 82.8917 143.121 82.8917ZM142.926 76.0227C144.928 76.0227 146.088 76.9091 146.271 78.1656H139.392C139.686 76.9616 140.847 76.0227 142.916 76.0227H142.926Z" fill="#2A3362"/>
<path d="M154.685 75.4031H154.49L154.194 73.7648H151.342V85.1437H154.48V80.2539C154.48 78.0467 155.752 76.8194 158.119 76.8194C158.549 76.8134 158.979 76.8513 159.401 76.9324V73.7706H158.963C156.87 73.7706 155.571 74.2031 154.685 75.4031Z" fill="#2A3362"/>
<path d="M174.81 81.5942H174.629L171.945 74.4758H168.715L166.077 81.5728H165.872L163.371 73.7706H160.254L164.098 85.1437H167.511L170.24 77.887H170.421L173.106 85.1437H176.54L180.384 73.7706H177.267L174.81 81.5942Z" fill="#2A3362"/>
<path d="M192.875 81.8319V78.0253C192.875 74.9317 190.259 73.5447 187.006 73.5447C183.55 73.5447 181.389 75.183 181.093 77.6357H184.231C184.459 76.5662 185.369 75.9759 187.006 75.9759C188.642 75.9759 189.733 76.5896 189.733 77.8403V78.1305L184.615 78.5201C182.25 78.7033 180.524 79.7494 180.524 81.978C180.524 84.2748 182.503 85.3658 185.414 85.3658C187.763 85.3658 189.195 84.7112 190.072 83.7235H190.228C190.721 84.834 191.72 85.1398 192.807 85.1398H194.126V82.8235H193.83C193.169 82.8235 192.875 82.506 192.875 81.8319ZM189.735 80.626C189.735 82.4241 187.592 83.0144 185.755 83.0144C184.504 83.0144 183.686 82.6969 183.686 81.8319C183.686 81.0527 184.391 80.6728 185.439 80.5812L189.737 80.2637L189.735 80.626Z" fill="#2A3362"/>
<path d="M204.478 73.7706L200.816 82.0053H200.611L196.904 73.7706H193.514L198.813 85.1437H202.567L207.842 73.7706H204.478Z" fill="#2A3362"/>
<path d="M217.875 81.4579C217.486 82.391 216.373 82.8917 214.69 82.8917C212.393 82.8917 211.098 81.8456 210.893 80.3221H220.854C220.9 80.0054 220.923 79.6857 220.922 79.3656C220.901 75.2746 217.805 73.5427 214.493 73.5427C210.65 73.5427 207.763 75.8415 207.763 79.5487C207.763 83.0729 210.537 85.3697 214.698 85.3697C218.179 85.3697 220.497 83.8248 220.977 81.4579H217.875ZM214.485 76.0227C216.488 76.0227 217.647 76.9091 217.83 78.1656H210.954C211.252 76.9616 212.409 76.0227 214.478 76.0227H214.485Z" fill="#2A3362"/>
<path d="M91.9497 72.933C91.9497 71.9316 92.6549 71.5011 93.5646 71.5011C93.9878 71.505 94.4085 71.566 94.8153 71.6823L95.3394 69.4069C94.5797 69.1383 93.7801 69 92.9744 68.9978C90.6542 68.9978 88.7898 70.2271 88.7898 72.7732V73.7707H86.082V76.2623H88.7898V85.1437H91.9497V76.2603H95.4874V73.7707H91.9497V72.933Z" fill="#2A3362"/>
<path d="M122.418 70.5641H119.496L119.332 73.7707H116.862V76.2623H119.274V81.8689C119.274 83.7781 120.248 85.3755 123.17 85.3755C123.928 85.3755 124.683 85.2919 125.422 85.1262V82.732C124.996 82.8275 124.561 82.881 124.125 82.8917C122.556 82.8917 122.42 82.0053 122.42 81.3215V76.2565H125.537V73.7707H122.418V70.5641Z" fill="#2A3362"/>
<path d="M132.274 70.5641H129.361L129.197 73.7707H126.721V76.2623H129.133V81.8689C129.133 83.7781 130.107 85.3755 133.029 85.3755C133.785 85.3732 134.538 85.2876 135.276 85.1203V82.732C134.849 82.8275 134.415 82.881 133.978 82.8917C132.41 82.8917 132.274 82.0053 132.274 81.3215V76.2565H135.4V73.7707H132.274V70.5641Z" fill="#2A3362"/>
<path d="M42.3957 68.5635C42.3957 66.7381 42.9295 65.1796 44.0496 64.0594L45.9977 66.0076C43.8295 68.168 45.7231 74.8851 51.8966 81.0645C58.0701 87.2439 64.7911 89.1355 66.9574 86.9711L68.9055 88.9192C65.2509 92.5739 56.9266 89.9809 49.9582 83.0106C45.125 78.1754 42.3957 72.6896 42.3957 68.5635Z" fill="#009A46"/>
<path d="M54.6805 90.5984C52.8551 90.5984 51.2966 90.0646 50.1745 88.9445L52.1226 86.9964C54.287 89.1607 61.004 87.2672 67.1834 81.0897C73.3628 74.9123 75.2525 68.1952 73.0881 66.0309L75.0362 64.0828C78.6928 67.7374 76.0979 76.0617 69.1276 83.03C64.2924 87.8711 58.8066 90.5984 54.6805 90.5984Z" fill="#FF5805"/>
<path d="M69.7725 80.2423C68.59 76.837 66.1743 73.198 62.9697 69.9953C56.0013 63.025 47.6771 60.4301 44.0224 64.0867C43.7633 64.3477 43.9873 64.9925 44.525 65.5302C45.0627 66.0679 45.7075 66.29 45.9666 66.0309C48.1329 63.8665 54.85 65.7601 61.0274 71.9395C63.9496 74.8616 66.1276 78.1247 67.1776 81.1443C68.0971 83.7918 68.0075 85.9269 66.936 86.9983C66.675 87.2574 66.901 87.9042 67.4367 88.4399C67.9724 88.9757 68.6192 89.2017 68.8802 88.9406C70.7524 87.0685 71.0699 83.9749 69.7725 80.2423Z" fill="#F5AFCB"/>
<path d="M75.0323 64.0867C73.1563 62.2107 70.0666 61.8931 66.3301 63.1925C62.9268 64.3731 59.2858 66.7907 56.0831 69.9933C49.1147 76.9617 46.5198 85.286 50.1745 88.9426C50.4355 89.2017 51.0804 88.9776 51.618 88.4419C52.1557 87.9062 52.3797 87.2594 52.1187 86.9984C49.9485 84.834 51.8479 78.1169 58.0273 71.9376C60.9495 69.0154 64.2125 66.8374 67.2321 65.7874C69.8796 64.8698 72.0147 64.9575 73.0881 66.0289C73.3472 66.288 73.994 66.064 74.5297 65.5263C75.0654 64.9887 75.2914 64.3458 75.0323 64.0867Z" fill="#FF9B00"/>
</svg>
