<svg width="263" height="153" viewBox="0 0 263 153" fill="none" xmlns="http://www.w3.org/2000/svg">
<rect width="263" height="153" rx="5" fill="white"/>
<g clip-path="url(#clip0_3_292)">
<path d="M151.239 75.5849V75.1196V58.6089C151.248 57.4716 151.191 56.3346 151.07 55.2038C150.804 52.962 149.62 51.8928 147.352 51.6952C146.268 51.601 145.186 51.4773 144.073 51.3647V50.5817H183.191V51.3868C182.499 51.4219 181.803 51.433 181.11 51.4995C180.585 51.5548 180.065 51.6449 179.552 51.7691C179.34 51.8054 179.15 51.9211 179.02 52.0926C178.89 52.2641 178.831 52.4786 178.854 52.6924C178.894 53.2261 178.933 53.8004 179.16 54.2731C179.683 55.3478 180.305 56.3764 180.915 57.4123C182.095 59.4104 183.293 61.3955 184.508 63.4305C184.602 63.3534 184.689 63.2694 184.77 63.1793C186.687 60.6642 188.628 58.1658 190.495 55.6082C190.931 54.9672 191.24 54.248 191.403 53.4901C191.675 52.3637 191.113 51.6934 189.961 51.5844C188.957 51.4884 187.948 51.4182 186.909 51.3333V50.5835H200.873V51.3813C200.387 51.4108 199.894 51.4478 199.396 51.4718C197.104 51.5789 195.095 52.3267 193.573 54.1106C191.611 56.409 189.662 58.7191 187.727 61.0409C186.927 61.9975 186.17 62.9891 185.369 63.9438C185.14 64.2171 185.125 64.3999 185.313 64.7028C188.569 69.9472 191.802 75.1916 195.065 80.4249C196.358 82.4986 197.721 84.5281 199.043 86.5834C200.239 88.4447 201.983 89.2905 204.145 89.3865C204.424 89.3994 204.699 89.4456 204.998 89.4789V90.2803H179.89V89.4807C180.538 89.4512 181.182 89.4493 181.836 89.381C182.315 89.3391 182.788 89.2393 183.243 89.0837C183.961 88.8215 184.325 88.2213 184.107 87.4845C183.87 86.6008 183.525 85.7499 183.079 84.9509C181.018 81.4848 178.894 78.0557 176.8 74.6099C176.769 74.5582 176.726 74.512 176.662 74.4252C176.032 75.2377 175.406 76.0244 174.802 76.8258C172.668 79.6641 170.527 82.4986 168.424 85.3627C168.054 85.8824 167.775 86.4604 167.597 87.0727C167.227 88.2804 167.839 89.104 169.074 89.2055C170.182 89.2997 171.307 89.3902 172.448 89.4862V90.2747H157.531V89.5047C158.231 89.4733 158.925 89.4364 159.621 89.4124C162.308 89.32 164.328 88.0145 165.992 85.9924C169.269 82.0087 172.563 78.0384 175.873 74.0818C176.145 73.7568 176.143 73.5444 175.927 73.2028C172.346 67.4893 168.801 61.7537 165.194 56.0569C164.481 54.9064 163.639 53.8408 162.685 52.8807C161.364 51.5881 159.619 51.3942 157.843 51.5272C157.237 51.5733 156.635 51.6638 156.033 51.7414C154.063 51.9981 152.881 53.0506 152.58 55.0339C152.419 56.2711 152.351 57.5185 152.375 58.7659C152.359 69.0713 152.359 79.3772 152.375 89.6838V90.3191H146.163C146.027 90.3283 145.89 90.3018 145.767 90.2422C145.644 90.1826 145.539 90.092 145.461 89.9793C137.919 80.3276 130.372 70.6791 122.822 61.0336C121.9 59.8554 120.976 58.6773 120.052 57.4991C119.961 57.3846 119.867 57.2775 119.694 57.091C119.665 57.2245 119.645 57.3595 119.633 57.4954C119.633 66.0391 119.639 74.5828 119.653 83.1265C119.633 84.2181 119.724 85.3089 119.924 86.3821C120.294 88.1124 121.383 88.9673 123.139 89.1188C123.745 89.1742 124.347 89.2517 124.951 89.3034C125.555 89.3551 126.159 89.4124 126.798 89.4696V90.2803H111.129V89.5213C112.052 89.4198 113 89.3367 113.934 89.2092C114.614 89.1225 115.289 89.0117 115.965 88.8879C116.385 88.8213 116.779 88.6436 117.107 88.373C117.434 88.1025 117.684 87.7492 117.829 87.3497C118.103 86.6576 118.289 85.9335 118.383 85.1947C118.475 84.217 118.511 83.2349 118.491 82.253C118.499 74.2239 118.499 66.1942 118.491 58.1639C118.491 57.2609 118.438 56.3561 118.405 55.4531C118.406 55.3451 118.378 55.2388 118.325 55.1447C117.166 53.4199 115.777 51.9574 113.635 51.5567C112.726 51.3868 111.773 51.4515 110.841 51.409H110.579V50.5577H130.949C131.092 50.548 131.236 50.5757 131.365 50.6382C131.495 50.7006 131.606 50.7957 131.687 50.9141C138.034 59.0281 144.385 67.1379 150.743 75.2433C150.859 75.391 150.996 75.5221 151.123 75.6606L151.239 75.5849Z" fill="#4D4D4D"/>
<path d="M93.5806 71.5815C94.5501 70.0617 95.5842 68.4699 96.5851 66.8597C98.91 63.1203 103.942 63.4323 106.437 65.1977C108.667 66.771 109.84 68.8909 110.089 71.5778C110.507 76.0595 108.998 79.9651 106.474 83.5586C104.721 86.0534 102.64 88.1955 99.8406 89.5195C97.3606 90.694 94.7624 91.1704 92.0276 90.705C91.8291 90.6677 91.6329 90.6184 91.4404 90.5573C89.3168 89.9221 88.4599 88.8086 88.3861 86.5871C88.3918 86.4424 88.364 86.2983 88.3048 86.1661C88.29 86.2085 88.279 86.2529 88.2623 86.2935C86.6004 90.3154 84.9255 94.3318 83.2765 98.3593C83.0117 99.0074 82.7987 99.6755 82.6394 100.357C82.4437 101.188 82.6043 101.905 83.7474 101.96C84.8904 102.016 86.0464 102.091 87.2282 102.16V102.928H66.4113V102.136C67.1961 102.04 67.9902 101.927 68.7879 101.849C70.0805 101.724 71.146 101.155 71.7425 100.003C72.6658 98.2559 73.5522 96.4942 74.3278 94.6753C77.8203 86.4135 81.284 78.1388 84.7187 69.8512C85.071 68.9585 85.3706 68.0459 85.6161 67.1182C85.7473 66.6602 85.7159 66.1358 85.2911 65.8366C84.8664 65.5375 84.3678 65.7 84.0188 65.9751C83.2802 66.555 82.5064 67.144 81.8878 67.8495C80.1384 69.8207 78.6689 72.0235 77.5206 74.3957C77.4947 74.4511 77.4559 74.501 77.4024 74.5804L76.6637 74.3145C77.022 73.6349 77.3507 72.9757 77.7108 72.333C78.9185 70.1799 80.2517 68.108 82.0115 66.3611C83.8748 64.5145 86.1166 63.6429 88.7665 64.0214C91.3296 64.3907 92.9343 65.9493 93.335 68.553C93.492 69.5779 93.5086 70.6471 93.5806 71.5815ZM89.23 86.8807C89.23 87.0654 89.217 87.25 89.23 87.4347C89.3426 88.8824 90.5983 89.5731 91.8282 88.7938C92.3306 88.4564 92.7519 88.0118 93.0617 87.4919C96.3635 82.1053 98.8121 76.3347 100.681 70.3184C101.067 69.0738 101.42 67.8033 101.215 66.4663C101.043 65.3584 100.306 64.917 99.307 65.4359C98.6935 65.7687 98.1429 66.2061 97.6801 66.7286C96.4418 68.1118 95.419 69.6737 94.6461 71.3617C92.9256 75.0198 91.4223 78.7762 90.1441 82.6113C89.6916 84 89.2632 85.3997 89.23 86.8807Z" fill="#FE0101"/>
<path d="M74.7433 81.4276L75.4025 81.7969C73.8643 84.2104 72.4479 86.6664 70.4887 88.742C69.2847 90.0236 67.6966 90.5702 65.9848 90.7733C64.8559 90.9378 63.7067 90.9009 62.5907 90.6643C60.3397 90.1399 58.8217 88.3081 58.5281 85.9148C58.2788 83.8688 58.7627 81.9797 59.6361 80.1737C61.1337 77.064 62.6849 73.9783 64.1972 70.876C64.7291 69.7865 65.2184 68.6767 65.7059 67.565C65.8645 67.2435 65.9651 66.8966 66.0032 66.5401C66.0199 66.2447 65.9534 65.8015 65.7595 65.6759C65.6119 65.6064 65.4508 65.5704 65.2877 65.5704C65.1246 65.5704 64.9635 65.6064 64.8159 65.6759C64.3089 65.9474 63.8417 66.2873 63.4272 66.686C61.6626 68.3869 60.1731 70.3518 59.0119 72.5102C58.9307 72.658 58.8439 72.8039 58.7497 72.9701C58.6205 72.9294 58.5023 72.898 58.3804 72.8574C58.2585 72.8168 58.1533 72.7651 57.9926 72.6968C59.457 70.2223 60.8475 67.7238 63.0487 65.8384C63.8696 65.111 64.8372 64.5682 65.8859 64.2468C66.9346 63.9253 68.0401 63.8327 69.1277 63.9752C72.134 64.3445 73.9825 66.4792 74.1561 69.5963C74.2294 70.9217 74.0217 72.2476 73.5467 73.4871C72.2873 76.8313 70.6272 79.978 68.8969 83.0895C68.1878 84.3655 67.5655 85.6896 66.9284 87.0043C66.7807 87.3303 66.6764 87.6743 66.6182 88.0274C66.4667 88.8325 67.078 89.4567 67.8609 89.2277C68.4168 89.0842 68.9348 88.8214 69.3789 88.4576C70.1733 87.7597 70.8993 86.9873 71.5468 86.1512C72.5015 84.8863 73.3454 83.5364 74.2336 82.2216C74.4146 81.9797 74.5679 81.7101 74.7433 81.4276ZM74.2909 50.0037C77.3415 50.0037 79.5057 52.0848 79.5057 55.0228C79.5057 57.8647 77.2011 60.1047 74.2761 60.1065C71.351 60.1084 69.1203 57.933 69.124 55.0357C69.1277 52.1384 71.3086 50.0037 74.2909 50.0037Z" fill="#FE0101"/>
</g>
<defs>
<clipPath id="clip0_3_292">
<rect width="147" height="52.9204" fill="white" transform="translate(58 50)"/>
</clipPath>
</defs>
</svg>
