<svg width="263" height="153" viewBox="0 0 263 153" fill="none" xmlns="http://www.w3.org/2000/svg">
<rect width="263" height="153" rx="5" fill="white"/>
<path d="M145.29 68.8775V86.728H140.113V84.121C139.584 85.0268 138.817 85.77 137.895 86.2696C136.941 86.7716 135.876 87.026 134.798 87.0094C132.568 87.0094 130.901 86.387 129.798 85.1422C128.695 83.8975 128.145 82.0197 128.147 79.5089V68.8775H133.457V79.6151C133.457 81.7743 134.383 82.8538 136.237 82.8538C137.339 82.8538 138.231 82.4786 138.913 81.7282C139.595 80.9778 139.935 79.992 139.934 78.7709V68.8775H145.29ZM165.59 60.7363V86.728H160.344V84.0874C159.8 85.0051 159.007 85.7496 158.057 86.2342C157.022 86.7626 155.874 87.0288 154.712 87.0094C153.262 87.0333 151.838 86.6221 150.624 85.8289C149.399 85.0102 148.429 83.8633 147.826 82.5194C147.157 81.1035 146.822 79.4782 146.822 77.6435C146.822 75.8088 147.157 74.1953 147.826 72.803C148.428 71.4827 149.392 70.3599 150.606 69.5642C151.833 68.7904 153.26 68.3935 154.71 68.4227C155.847 68.4087 156.97 68.6685 157.985 69.1802C158.93 69.648 159.723 70.3739 160.273 71.2739V60.7363H165.59ZM159.296 81.6044C160.004 80.7017 160.358 79.4039 160.358 77.7107C160.358 76.0436 160 74.7587 159.284 73.8561C158.567 72.9534 157.565 72.5015 156.275 72.5004C154.959 72.5004 153.938 72.9464 153.211 73.8384C152.485 74.7303 152.121 75.9975 152.121 77.6399C152.121 79.3295 152.485 80.638 153.211 81.5654C153.938 82.4928 154.959 82.9565 156.275 82.9565C157.581 82.9589 158.588 82.5081 159.296 81.6044ZM185.889 68.8775V86.728H180.642V84.0874C180.098 85.0057 179.305 85.7503 178.353 86.2342C177.319 86.7611 176.171 87.0261 175.01 87.0059C173.561 87.0451 172.133 86.6526 170.908 85.8783C169.682 85.104 168.714 83.9829 168.127 82.6574C167.458 81.2616 167.124 79.6481 167.124 77.8169C167.124 75.9857 167.458 74.354 168.127 72.9216C168.728 71.5712 169.698 70.4183 170.926 69.5961C172.139 68.806 173.562 68.3974 175.01 68.4227C176.176 68.404 177.326 68.683 178.353 69.2333C179.302 69.7372 180.093 70.4921 180.642 71.4155V68.8775H185.889ZM179.587 81.6203C180.295 80.7283 180.649 79.4375 180.649 77.7479C180.649 76.0583 180.295 74.7604 179.587 73.8543C178.879 72.9493 177.87 72.4974 176.559 72.4986C175.248 72.4998 174.227 72.97 173.495 73.9091C172.769 74.8531 172.405 76.1562 172.403 77.8187C172.402 79.4811 172.76 80.7542 173.478 81.638C174.194 82.517 175.221 82.9571 176.559 82.9583C177.872 82.9594 178.882 82.514 179.587 81.622V81.6203ZM127.066 86.9793H120.47L113.373 78.8859V86.9793H107.989V60.7363H113.373V76.6736L120.147 68.9377H126.602L118.935 77.6099L127.066 86.9793ZM93.239 86.9882L82.9067 75.0949L88.5489 86.9882H84.6376L78.8821 74.8631L81.2749 86.9882H78.8715L76.4769 74.8454V86.9882H75.5336V60.7363H76.4769V73.833L78.9051 60.7363H81.3015L78.8627 73.8897L84.7296 60.7363H88.5985L82.7545 73.8419L93.3664 60.7363H99.4298L88.4534 74.295L99.4812 86.9882H93.239Z" fill="#41276D"/>
<path d="M190.348 86.6997C191.958 86.6997 193.263 85.3946 193.263 83.7848C193.263 82.1749 191.958 80.8699 190.348 80.8699C188.738 80.8699 187.433 82.1749 187.433 83.7848C187.433 85.3946 188.738 86.6997 190.348 86.6997Z" fill="#41276D"/>
</svg>
