<svg width="263" height="153" viewBox="0 0 263 153" fill="none" xmlns="http://www.w3.org/2000/svg">
<rect width="263" height="153" rx="5" fill="white"/>
<g clip-path="url(#clip0_3_53)">
<path fill-rule="evenodd" clip-rule="evenodd" d="M89.253 81.47L89.301 81.036C89.837 78.334 88.571 77.176 84.576 77.176C80.727 77.176 79.022 78.334 78.535 81.036L78.438 81.518C77.902 84.221 79.656 85.428 83.114 85.428C86.671 85.428 88.814 83.786 89.253 81.47ZM102.844 79.492L107.424 53.818C107.465 53.5888 107.585 53.3813 107.763 53.2317C107.942 53.0822 108.167 53.0001 108.4 53H113.744C113.889 53.0001 114.032 53.032 114.163 53.0932C114.294 53.1545 114.41 53.2437 114.503 53.3546C114.596 53.4655 114.664 53.5955 114.701 53.7353C114.739 53.8751 114.745 54.0214 114.72 54.164L113.221 62.651C115.072 61.3 117.118 60.335 120.87 60.335C128.177 60.335 131.051 65.16 130.028 70.902L128.323 80.36C127.105 87.26 123.062 90.59 114.049 90.59C105.573 90.59 101.675 85.91 102.844 79.492ZM121.211 79.202L122.575 71.626C123.11 68.634 121.941 66.608 117.995 66.608C114.001 66.608 112.149 68.634 111.613 71.626L110.249 79.202C109.713 82.194 110.883 84.221 114.877 84.221C118.823 84.221 120.675 82.194 121.211 79.202ZM160.037 77.465H141.282L140.892 79.781C140.453 82.339 141.232 84.655 145.91 84.655C149.953 84.655 151.902 83.497 152.34 81.085C152.353 81.0167 152.39 80.9552 152.444 80.9111C152.498 80.8669 152.565 80.8428 152.635 80.843H158.477C158.598 80.8431 158.717 80.8692 158.827 80.9197C158.937 80.9701 159.034 81.0436 159.113 81.1352C159.192 81.2268 159.25 81.3344 159.284 81.4505C159.317 81.5666 159.325 81.6885 159.307 81.808C158.284 87.502 154.24 90.59 145.325 90.59C136.507 90.59 132.708 85.813 133.828 79.685L135.387 70.758C136.702 63.809 140.746 60.335 149.758 60.335C158.43 60.335 162.278 65.015 161.158 71.289L160.038 77.465H160.037ZM142.402 71.24L142.159 72.736H153.802L154.094 71.192C154.63 68.104 153.364 66.27 149.174 66.27C144.838 66.27 142.938 68.297 142.402 71.24ZM177.088 82.001C181.083 82.001 182.934 79.974 183.47 77.079L184.396 71.723C184.931 68.779 183.762 66.801 179.816 66.801C175.87 66.801 174.019 68.779 173.483 71.723L172.558 77.079C172.022 79.974 173.142 82.001 177.088 82.001ZM180.498 60.335C188.975 60.335 192.97 65.112 191.8 71.626L188.683 89.094C187.22 97.056 182.69 100 174.75 100H173.922C166.858 100 162.278 96.477 163.009 90.735C163.037 90.5862 163.115 90.4517 163.232 90.3549C163.348 90.2581 163.495 90.205 163.646 90.205H170.073C169.683 92.424 171.291 93.968 174.701 93.968C179.037 93.968 180.839 91.99 181.326 89.239L182.008 85.62C180.158 87.068 178.16 87.888 174.263 87.888C167.54 87.888 164.081 83.304 165.201 76.983L166.273 70.854C167.491 63.954 171.534 60.334 180.498 60.334V60.335ZM92.476 56.804C92.6268 56.8042 92.7756 56.8387 92.911 56.905C93.0464 56.9712 93.165 57.0675 93.2576 57.1865C93.3503 57.3055 93.4146 57.444 93.4457 57.5915C93.4767 57.7391 93.4738 57.8918 93.437 58.038L92.698 60.972C97.168 62.422 99.343 66.21 98.508 70.902L96.755 80.746C95.675 86.769 92.165 89.571 86.708 90.38L86.058 92.955C86.0041 93.1693 85.8802 93.3595 85.7059 93.4953C85.5316 93.6312 85.317 93.705 85.096 93.705H79.26C79.109 93.705 78.96 93.6706 78.8244 93.6043C78.6887 93.5381 78.57 93.4417 78.4772 93.3226C78.3844 93.2035 78.32 93.0648 78.289 92.917C78.2579 92.7693 78.261 92.6164 78.298 92.47L78.817 90.415C73.46 89.548 70.456 86.234 71.08 81.615L71.178 80.939C71.86 75.679 75.465 72.591 83.893 72.591C87.108 72.591 89.495 73.074 90.616 73.701L91.054 71.144C91.59 68.345 90.324 66.463 86.718 66.463C83.698 66.463 81.506 67.476 81.068 70.033H74.052C74.884 64.176 78.081 61.01 84.951 60.432L85.678 57.552C85.7323 57.3381 85.8564 57.1484 86.0306 57.0129C86.2048 56.8774 86.4193 56.8039 86.64 56.804H92.475H92.476Z" fill="#753FF6"/>
</g>
<defs>
<clipPath id="clip0_3_53">
<rect width="121" height="47" fill="white" transform="translate(71 53)"/>
</clipPath>
</defs>
</svg>
