<svg width="263" height="153" viewBox="0 0 263 153" fill="none" xmlns="http://www.w3.org/2000/svg">
<rect width="263" height="153" rx="5" fill="white"/>
<g clip-path="url(#clip0_3_262)">
<path fill-rule="evenodd" clip-rule="evenodd" d="M145.184 58.1338C141.677 58.5082 138.358 59.9042 135.638 62.1485C132.918 64.3928 130.917 67.3866 129.883 70.7581C128.85 74.1297 128.829 77.7305 129.824 81.1137C130.819 84.4968 132.786 87.5133 135.48 89.7885C137.755 91.7095 140.471 93.0363 143.384 93.6501C146.298 94.2639 149.318 94.1454 152.174 93.3054C155.031 92.4653 157.634 90.9298 159.752 88.8365C161.869 86.7432 163.434 84.1574 164.307 81.3108C165.179 78.4641 165.332 75.4454 164.752 72.5251C164.172 69.6047 162.876 66.874 160.981 64.5774C159.086 62.2807 156.651 60.49 153.894 59.3654C151.137 58.2409 148.144 57.8177 145.184 58.1338ZM145.251 58.5354C149.876 58.0696 154.498 59.4526 158.107 62.3826C161.717 65.3125 164.02 69.5513 164.515 74.1737C165.01 78.7961 163.656 83.4265 160.749 87.0542C157.842 90.6819 153.618 93.0121 148.998 93.5362C146.693 93.7978 144.358 93.6008 142.128 92.9566C139.899 92.3123 137.819 91.2336 136.008 89.7823C134.197 88.3311 132.691 86.536 131.576 84.5004C130.462 82.4649 129.761 80.229 129.514 77.9215C129.266 75.614 129.478 73.2804 130.136 71.055C130.795 68.8296 131.887 66.7564 133.349 64.9546C134.812 63.1528 136.616 61.6581 138.659 60.5564C140.702 59.4548 142.942 58.7679 145.251 58.5354Z" fill="#ACBB16"/>
<path fill-rule="evenodd" clip-rule="evenodd" d="M146.388 59.2715C143.911 59.3865 141.489 60.051 139.3 61.2169C137.11 62.3829 135.207 64.0211 133.729 66.013C132.251 68.0049 131.234 70.3006 130.752 72.7339C130.27 75.1672 130.335 77.6773 130.943 80.0823C131.55 82.4873 132.685 84.7271 134.265 86.6396C135.845 88.5521 137.83 90.0893 140.077 91.14C142.324 92.1907 144.777 92.7287 147.257 92.7148C149.738 92.701 152.184 92.1357 154.419 91.06C156.611 89.9718 158.539 88.4177 160.068 86.5064C161.597 84.5952 162.69 82.3729 163.27 79.9952C163.85 77.6175 163.903 75.1417 163.427 72.7411C162.95 70.3405 161.954 68.0732 160.509 66.0977C160.242 65.6292 159.907 65.4284 159.572 64.96C157.957 63.066 155.928 61.5681 153.642 60.5819C151.356 59.5957 148.875 59.1474 146.388 59.2715ZM146.79 74.0615C146.857 74.1954 146.857 73.9946 146.857 74.2623L146.522 75.5338L146.188 77.14C145.652 76.3369 145.251 74.5969 145.05 73.5261C144.782 71.7192 145.05 70.7823 145.117 69.1092C144.849 69.7784 144.715 70.7154 144.648 71.5184C143.979 70.9161 143.912 70.3807 142.975 70.0461C143.912 70.7823 144.314 71.6523 144.448 73.1915C144.515 75.0654 144.782 75.6007 145.117 77.2069C144.515 76.8054 144.18 76.4038 143.712 75.8684C141.369 73.1915 140.633 74.9984 139.696 71.4515C139.629 72.79 139.897 72.9238 140.232 73.8607C139.495 73.8607 138.759 73.7269 138.157 74.1284C139.696 74.2623 140.767 74.4631 141.771 75.1992C143.912 76.7384 146.589 81.0884 146.723 84.1C146.054 83.7654 145.385 82.293 142.373 81.1554C141.369 80.8207 140.566 80.6869 139.696 80.2184C139.228 79.8838 138.224 78.9469 138.224 78.2107C138.224 79.0807 139.027 80.1515 139.362 80.4192L136.216 80.553C138.358 80.7538 139.362 80.553 141.235 81.2892C142.507 81.8246 143.979 82.7615 144.715 83.4977C145.184 84.033 146.656 85.2377 146.388 85.9738L145.117 89.1192C144.715 90.19 144.782 90.2569 144.648 91.4615C140.774 90.8649 137.272 88.819 134.849 85.7378C132.426 82.6565 131.264 78.77 131.598 74.8646C131.856 71.9471 132.93 69.1611 134.697 66.8256C136.464 64.4901 138.853 62.6996 141.591 61.659C144.329 60.6184 147.304 60.3698 150.176 60.9418C153.049 61.5138 155.702 62.8831 157.832 64.8931L158.234 65.3615C160.23 67.436 161.609 70.0245 162.219 72.8378C162.828 75.6512 162.644 78.5786 161.686 81.2931C160.728 84.0076 159.034 86.4023 156.793 88.2098C154.553 90.0172 151.854 91.1662 148.998 91.5284C148.53 89.5207 148.731 88.7177 149.266 86.7769C149.868 84.7023 150.203 84.5684 151.542 83.4977C154.687 81.0884 156.025 81.0884 159.037 80.0177C157.899 79.9507 157.029 80.1515 155.958 80.3523C156.494 79.4154 156.762 79.2815 156.895 77.9431C156.628 80.4192 153.75 80.8207 151.14 82.4269L149.199 83.7654C147.995 81.3561 149.735 80.553 151.542 77.9431C152.01 77.2738 152.679 75.9354 152.88 74.8646C153.148 73.1915 153.549 72.9907 154.553 72.0538C153.75 72.3215 153.482 72.79 153.014 73.1915L152.813 71.9869C152.746 73.9277 152.679 75.7346 150.805 77.4077C151.207 74.9315 151.073 74.7307 150.27 72.7231C151.073 75.1992 150.404 77.5415 148.798 79.4154L147.392 80.9546C147.192 79.8169 147.058 78.4784 147.058 77.2738C147.058 76.6715 147.258 74.6638 147.66 74.0615C147.794 73.1915 148.731 71.6523 149.132 71.05L150.672 69.1761L151.207 68.6407C150.872 68.8415 150.002 69.4438 149.802 69.7115V68.3061L149.467 67.2354C149.601 67.9715 149.802 68.3731 149.534 69.31C148.998 71.05 146.924 72.79 146.857 73.8607V72.1207C146.121 72.3884 145.385 73.1915 145.786 74.2623L146.188 73.3254L145.987 74.3292C146.589 74.1954 146.522 74.2623 146.79 74.0615Z" fill="#293737"/>
<path fill-rule="evenodd" clip-rule="evenodd" d="M152.612 68.9754C153.348 68.6408 154.151 67.8377 155.624 67.7708C154.62 68.1723 153.415 68.5738 152.813 69.31C154.419 70.9831 155.958 68.6408 156.561 68.1723C156.962 67.8377 157.364 67.7708 157.765 67.4362C156.761 67.1015 155.691 66.7 154.486 66.9677C153.415 67.1685 152.478 67.7708 152.612 68.9754ZM153.415 82.8285C155.222 82.6277 155.423 82.8954 156.895 83.1631C155.423 83.0961 155.088 82.8285 153.415 83.23C154.687 85.7061 156.226 83.6985 158.568 83.7654C157.163 81.6908 153.75 81.0215 153.415 82.8285ZM136.885 68.8415L137.086 68.9085L137.153 68.9754L137.555 69.1092C137.822 69.1092 137.956 69.2431 138.157 69.31C139.295 69.7785 140.432 71.05 141.436 69.1092C140.834 68.7077 139.495 68.5069 138.692 68.5069C139.964 68.44 140.365 68.5069 141.436 68.7746C141.168 67.9046 140.298 67.57 139.161 67.7708C138.023 67.9046 137.621 68.5069 136.885 68.8415ZM157.431 78.9469C158.033 78.4115 158.1 77.9431 158.97 77.4746C158.635 78.01 157.899 78.4785 157.698 79.2815C159.84 80.0177 159.371 78.6792 161.044 76.3369C159.238 76.1361 157.029 77.0731 157.431 78.9469ZM148.931 66.2985C148.998 65.7631 148.262 64.7592 148.061 64.4246C148.731 64.96 148.798 65.3615 149.132 65.83L149.333 66.0977C149.601 65.0269 149.199 64.4915 148.597 63.8892C148.061 63.4208 147.258 62.9523 146.321 63.0192C147.459 64.7592 146.656 66.7669 148.931 66.2985ZM153.616 75.7346C154.285 76.3369 154.018 75.8015 155.557 77.4077C155.423 77.0061 154.018 76.2031 153.348 75.9354C152.679 77.8092 154.687 77.9431 155.423 78.2108C155.891 78.3446 156.159 78.6123 156.494 78.7461C156.36 75.6008 153.683 75.1992 153.616 75.7346ZM146.589 71.4515C146.723 70.7823 146.589 70.18 146.589 69.5777L146.656 69.7115C146.79 70.0462 146.857 70.3808 146.857 71.3177C148.061 70.5815 147.258 68.2392 145.652 67.3692C145.853 69.1762 144.515 71.05 146.589 71.4515ZM135.078 71.8531C136.082 72.3885 136.149 72.4554 136.885 73.0577C137.621 73.7269 138.558 73.5261 138.96 72.6561L137.086 71.8531C137.889 71.92 138.358 72.1877 139.027 72.3885C138.759 71.1169 137.22 70.9831 136.082 71.3177L135.078 71.8531ZM134.141 77.5415C134.878 78.1438 134.945 78.1438 135.614 79.0808C136.015 79.75 136.751 80.0846 137.621 79.3485C137.421 78.88 136.484 78.2108 135.948 78.01C136.818 78.2108 137.22 78.8131 137.822 79.0808C137.688 77.4077 135.748 77.0731 134.141 77.5415ZM142.574 86.5761C143.243 84.6354 144.849 85.3715 144.648 83.5646C143.979 83.7654 143.243 84.4346 143.042 84.97C143.377 84.0331 144.113 83.6315 144.448 83.2969C142.641 81.6908 141.704 85.4385 142.574 86.5761ZM143.778 81.4231C143.979 80.6869 143.979 80.4861 143.979 79.6161C144.18 80.1515 144.113 80.8877 143.979 81.49C145.251 81.3561 145.385 80.4861 144.849 79.4154C144.515 78.6123 143.778 78.1438 143.176 77.7423C143.243 78.5454 143.444 78.7461 143.243 79.6831C143.042 80.62 143.042 81.1554 143.778 81.4231ZM143.377 74.9985L143.243 72.6561L143.645 74.9315C144.715 74.2623 144.113 72.1208 142.507 71.2508C142.641 72.9238 141.369 74.7977 143.377 74.9985ZM155.557 72.3885L157.631 72.2546C156.895 72.3885 156.092 72.3215 155.557 72.7231C156.159 74.4631 157.631 72.79 158.97 72.7231C158.836 72.3885 158.97 72.5892 158.635 72.3885L158.301 72.1208C157.364 71.5185 155.958 71.3846 155.557 72.3885ZM144.18 69.2431C144.18 68.7746 143.912 68.44 143.778 67.9715L144.113 68.3731L144.381 68.9754C144.381 68.9754 144.581 68.9085 144.648 68.5069C144.715 67.6369 143.511 66.5662 142.239 66.4323L142.775 68.3062C142.908 69.1092 143.243 69.31 144.18 69.2431ZM137.688 84.1C138.157 83.5646 138.224 83.2969 138.759 82.9623C139.295 82.5608 139.696 82.4938 139.629 81.6238C139.161 81.5569 139.027 81.8246 138.625 82.0254C138.893 81.6238 139.094 81.5569 139.361 81.2892C137.822 80.0177 137.22 82.6277 137.688 84.1ZM138.023 77.14C138.625 76.8723 138.759 76.6046 139.495 76.4708C140.231 76.27 140.633 76.27 140.633 75.4C139.897 75.4669 139.83 75.6008 139.228 75.8015C139.83 75.4 139.897 75.4669 140.566 75.1992C140.231 73.9277 138.358 74.53 138.023 77.14ZM150.404 81.8915L151.207 80.4192C151.006 80.9546 150.805 81.2892 150.671 82.0254C152.278 82.0254 151.742 81.1554 152.345 79.1477C151.274 79.4154 149.935 80.4861 150.404 81.8915ZM148.262 78.2777L148.798 76.6715L148.463 78.3446C150.069 78.5454 149.467 76.7385 149.735 75.4C148.931 75.6677 147.191 77.4077 148.262 78.2777ZM151.207 84.3677L151.341 84.4346L151.541 84.5015L152.478 84.97C151.943 84.8361 151.742 84.7023 151.006 84.6354C151.14 86.3085 152.345 85.7061 153.817 86.1077C153.683 85.4385 153.281 84.97 152.947 84.6354C152.612 84.3008 151.742 83.7654 151.207 84.3677ZM134.61 74.9985C135.346 74.9315 135.614 74.8646 136.283 75.1323C136.952 75.3331 137.354 75.3331 137.555 74.7977C137.086 74.4631 136.751 74.5969 136.216 74.4631L137.621 74.5969C137.621 72.5892 135.145 73.9277 134.61 74.9985ZM146.589 67.1685C146.723 66.8338 146.388 66.4323 146.188 65.9638C146.388 66.2315 146.656 66.7 146.924 66.9008C147.258 66.3654 146.723 65.6962 146.388 65.4954C145.987 65.1608 145.518 65.0269 144.916 64.96C145.585 66.4992 145.518 67.3692 146.589 67.1685ZM155.289 70.3808C155.825 70.2469 156.025 70.0462 156.561 70.0462C156.159 70.18 155.624 70.3138 155.356 70.5815C155.691 71.05 156.159 71.3177 156.761 70.7823L158.1 69.9792C157.364 69.5108 155.624 69.1092 155.289 70.3808ZM141.503 84.3008C141.57 83.7654 141.57 83.4977 141.771 83.0292C142.44 81.8246 141.905 81.3561 141.503 82.2261L141.302 82.8954C141.302 82.2931 141.503 82.1592 141.637 81.6908C140.031 81.6908 140.499 83.4977 141.503 84.3008ZM147.861 73.9277H148.798L147.928 74.3292C148.396 75.4 149.132 74.6638 150.203 74.1285L150.471 73.9277C150.069 73.7269 149.333 73.1915 148.396 73.5261L148.061 73.7269V73.7938L147.995 73.8608L147.861 73.9277ZM153.951 74.5969C154.352 74.4631 154.687 74.3292 155.155 74.3292C154.687 74.3961 154.285 74.4631 153.951 74.7977C154.553 75.8015 155.289 74.8646 155.691 74.5969L156.293 74.3292C155.624 73.9277 154.285 73.4592 153.951 74.5969ZM146.79 74.0615L147.058 73.7938V72.0538C146.321 72.3215 145.585 73.1246 145.987 74.1285L146.388 73.1915L146.188 74.2623C146.589 74.1954 146.522 74.2623 146.79 74.0615ZM152.478 71.05L152.211 70.0462L152.345 70.2469L152.612 70.7154L152.813 70.9161C153.616 69.9123 152.345 69.2431 151.14 69.1762L151.274 69.4438C152.144 70.7823 151.608 71.05 152.478 71.05ZM151.675 67.4362L151.809 67.3692C152.478 67.1685 152.345 65.8969 151.541 65.2277C151.073 66.4323 150.805 67.1685 151.675 67.4362ZM141.57 78.3446C141.905 78.01 141.771 77.8761 142.306 77.2738C142.44 77.0731 142.641 77.0061 142.641 76.6715C142.507 76.2031 142.44 76.4708 142.105 76.6715C142.306 76.3369 142.507 76.2031 142.038 76.1361C141.771 76.1361 141.57 76.3369 141.436 76.5377C141.168 77.2069 141.436 77.8092 141.57 78.3446ZM147.861 70.2469L148.195 70.0462L148.396 69.7115L148.195 70.3808C149.467 70.6485 148.998 68.7077 148.463 68.3731C147.995 69.7115 147.66 69.4438 147.861 70.2469ZM151.675 74.9315L152.077 74.4631L151.876 74.9985C152.679 74.7977 152.88 73.7269 152.411 73.0577L152.345 73.1246C152.278 73.4592 152.345 73.1246 152.278 73.2585C151.742 73.8608 150.939 74.3292 151.675 74.9315ZM151.675 78.3446L152.478 78.1438C152.077 78.2777 152.077 78.2108 151.742 78.5454C152.01 78.88 152.278 79.0138 152.813 78.6792L153.616 78.1438L153.549 77.9431L153.215 77.8092L152.612 77.7423C152.077 77.7423 151.876 77.9431 151.675 78.3446ZM157.431 81.0885L158.1 80.9546C157.832 81.0885 157.698 81.0215 157.498 81.3561C157.966 81.8915 158.167 81.6908 159.171 81.0215L159.371 80.8208C158.702 80.62 157.832 80.1515 157.431 81.0885ZM141.369 80.62L141.704 80.0177L141.57 80.7538C142.641 80.62 142.239 79.9508 142.44 78.9469C141.838 79.0808 140.834 79.8838 141.369 80.62ZM140.231 79.9508C140.432 79.6831 140.365 79.6831 140.365 79.3485L140.432 79.5492L140.499 79.6831L140.633 79.8838C140.834 79.0138 140.566 78.3446 139.83 77.9431C139.897 78.9469 139.295 79.75 140.231 79.9508ZM153.884 80.3523L154.018 80.1515L154.151 80.4861C155.423 80.4192 154.486 78.9469 154.085 78.6792C154.018 79.4154 153.549 79.9508 153.884 80.3523ZM140.231 71.9869L140.499 72.0538H140.767C140.298 72.1208 140.365 72.1208 140.231 72.3885C140.566 72.5892 140.767 72.7231 141.168 72.4554L142.038 71.9869C141.503 71.6523 140.633 71.3177 140.231 71.9869ZM152.01 72.4554C152.278 72.0538 151.943 72.3885 152.077 72.1877L152.278 72.0538C152.077 71.5185 151.675 71.3846 151.073 71.3177C151.541 72.3885 151.408 72.4554 152.01 72.4554ZM150.069 72.4554L149.868 71.7861L150.27 72.2546C150.337 71.5854 149.935 71.3177 149.266 71.2508C149.467 71.9869 149.333 72.3885 150.069 72.4554ZM45 74.6638V71.3177H47.61V70.7154C47.61 67.1685 49.2831 65.4285 52.6961 65.4285C53.9677 65.4285 54.9046 65.5623 55.5069 65.9638C56.1761 66.2985 56.5108 66.8338 56.5108 67.5031C56.5108 68.1054 56.31 68.7077 55.9085 69.3769C55.2392 69.0423 54.4361 68.8415 53.5661 68.8415C52.83 68.8415 52.2946 68.9754 51.96 69.31C51.6254 69.6446 51.4246 70.18 51.4246 70.8492V71.3846L55.5069 71.3177V74.6638L51.7592 74.5969V85.2377H47.61V74.5969L45 74.6638ZM68.49 85.2377H66.0138C64.6754 85.2377 63.8723 84.5015 63.7384 83.0292C62.8684 84.7023 61.3961 85.5054 59.3215 85.5054C58.05 85.5054 57.0461 85.1708 56.1761 84.4346C55.7303 84.0747 55.3764 83.6139 55.1436 83.0903C54.9109 82.5667 54.806 81.9952 54.8377 81.4231C54.8377 78.2777 57.1131 76.6715 61.7308 76.6715H63.6715C63.6715 75.8015 63.4708 75.1992 63.0692 74.7977C62.6677 74.4631 61.9315 74.2623 61.0615 74.2623C59.3215 74.2623 57.8492 74.6638 56.5777 75.4669C56.1761 74.8646 55.9085 74.1954 55.9085 73.4592C55.9085 72.7231 56.1761 72.2546 56.6446 71.9869C57.7823 71.3177 59.3884 70.9831 61.3961 70.9831C63.4038 70.9831 64.9431 71.4515 66.0807 72.3885C67.2184 73.3923 67.7538 74.7308 67.7538 76.5377V81.9585C67.8207 83.4977 68.0215 84.5015 68.49 85.2377ZM60.2584 82.36C61.5969 82.36 62.8015 81.8246 63.7384 80.5531V79.0808H61.7977C59.7231 79.0808 58.6523 79.6831 58.6523 80.9546C58.6523 81.3561 58.7861 81.6908 59.1208 81.9585C59.4554 82.2261 59.79 82.36 60.2584 82.36ZM74.1115 73.66C74.4461 72.9908 75.0484 72.3885 75.7846 71.8531C76.5207 71.3177 77.3907 71.05 78.2607 71.05C78.9969 71.05 79.5992 71.2508 80.1346 71.6523C80.67 72.1208 80.8707 72.7231 80.8707 73.5261C80.8707 74.3961 80.67 75.1992 80.3353 76.0692C79.5658 75.3797 78.5568 75.0194 77.5246 75.0654C76.1192 75.0654 74.9815 75.6008 74.0446 76.6715V85.2377H69.8954V71.3177H71.5684C72.4384 71.3177 73.0407 71.5185 73.4423 71.92C73.8438 72.2546 74.0446 72.9238 74.1115 73.66ZM99.0738 82.8285V76.4038C99.0738 75.1323 98.4715 74.4631 97.4007 74.4631C96.7984 74.4631 96.1961 74.6638 95.5938 75.0654C95.0584 75.4669 94.6569 75.9354 94.3892 76.4708V85.2377H90.3069V76.4038C90.3069 75.1323 89.7046 74.4631 88.6338 74.4631C87.9646 74.4631 87.4292 74.6638 86.8269 75.0654C86.2915 75.4669 85.89 75.9354 85.5553 76.4708V85.2377H81.473V71.3177H83.0792C83.9492 71.3177 84.5515 71.5185 84.953 71.8531C85.2877 72.2546 85.4884 72.79 85.5553 73.5261C86.693 71.92 88.2323 71.05 90.3069 71.05C92.2476 71.05 93.4523 71.9869 94.0546 73.7938C94.5578 72.9492 95.2738 72.2513 96.131 71.7699C96.9883 71.2884 97.9568 71.0402 98.9399 71.05C100.278 71.05 101.349 71.4515 102.085 72.3215C102.821 73.1915 103.156 74.4631 103.156 76.0023V85.2377H101.617C99.8769 85.2377 99.0738 84.4346 99.0738 82.8285Z" fill="#ACBB16"/>
<path fill-rule="evenodd" clip-rule="evenodd" d="M106.435 83.5646C105.164 82.293 104.495 80.553 104.495 78.2107C104.495 76.0023 105.164 74.1954 106.435 72.9238C107.707 71.5854 109.514 70.9161 111.789 70.9161C113.328 70.9161 114.6 71.1169 115.604 71.6523C116.072 71.853 116.34 72.0538 116.474 72.2546C116.608 72.5223 116.675 72.9238 116.675 73.3923C116.675 74.1284 116.474 74.7977 116.139 75.5338C114.935 74.7977 113.663 74.3961 112.191 74.3961C109.848 74.3961 108.711 75.6007 108.711 78.2107C108.711 79.4154 108.978 80.3523 109.581 81.0215C110.183 81.6907 111.12 82.0254 112.325 82.0254C113.663 82.0254 115.068 81.6238 116.34 80.7538C116.742 81.49 116.942 82.2261 116.942 82.9623C116.942 83.4307 116.875 83.7654 116.675 84.033C116.541 84.2338 116.273 84.5015 115.872 84.7023C114.868 85.2377 113.596 85.5054 111.923 85.5054C109.581 85.5723 107.707 84.903 106.435 83.5646ZM122.229 73.66C122.631 72.9907 123.166 72.3884 123.902 71.853C124.638 71.3177 125.508 71.05 126.378 71.05C127.115 71.05 127.784 71.2507 128.319 71.6523C128.788 72.1207 129.055 72.723 129.055 73.5261C129.055 74.3961 128.788 75.1992 128.453 76.0692C127.684 75.3797 126.674 75.0193 125.642 75.0654C124.237 75.0654 123.099 75.6007 122.229 76.6715V85.2377H118.013V71.3177H119.686C120.556 71.3177 121.158 71.5184 121.56 71.92C121.962 72.2546 122.162 72.9238 122.229 73.66ZM176.972 78.9469L175.232 84.8361H169.544L165.796 70.9161H170.414L171.752 76.4707C172.288 78.3446 172.488 80.1515 172.555 81.8246H172.689C172.823 80.1515 173.225 78.2777 173.827 76.27L175.5 70.9161H179.984L181.657 76.27C182.192 78.2777 182.527 80.2184 182.661 81.8246H182.728C182.728 80.1515 182.995 78.3446 183.397 76.4038L185.07 70.9161H189.688L185.538 84.8361H180.318L178.645 78.9469L177.842 74.3292H177.775C177.508 76.27 177.307 77.8092 176.972 78.9469ZM199.191 79.2815V75.9354C198.388 74.6638 197.384 74.0615 196.38 74.0615C195.51 74.0615 194.908 74.3961 194.372 75.0654C193.837 75.7346 193.569 76.6715 193.569 77.8761C193.569 79.0807 193.837 80.0177 194.305 80.6869C194.774 81.3561 195.51 81.6907 196.38 81.6907C196.982 81.6907 197.518 81.49 198.053 80.9546C198.522 80.4861 198.923 79.9507 199.191 79.2815ZM203.273 67.7707V81.6238C203.273 83.0292 203.474 84.1669 203.875 84.8361H201.332C199.994 84.8361 199.191 84.1 199.057 82.6277C198.702 83.406 198.125 84.0624 197.399 84.5147C196.673 84.967 195.83 85.1952 194.975 85.1707C193.302 85.1707 191.896 84.5015 190.892 83.23C189.888 81.9584 189.353 80.1515 189.353 77.8761C189.353 75.6007 189.888 73.7269 190.892 72.4554C191.963 71.2507 193.368 70.5815 195.108 70.5815C195.896 70.5664 196.673 70.7558 197.365 71.1312C198.057 71.5065 198.64 72.055 199.057 72.723V65.3615H200.663C202.403 65.3615 203.273 66.1646 203.273 67.7707ZM218.933 70.9161V83.23C218.933 85.5723 218.331 87.4461 217.059 88.7177C215.721 89.9892 213.981 90.5915 211.638 90.5915C209.564 90.5915 208.158 90.3907 207.355 89.8554C206.686 89.32 206.285 88.7177 206.285 87.9146C206.285 86.9107 206.485 86.1746 206.954 85.6392C208.025 86.643 209.43 87.0446 211.103 87.0446C212.375 87.0446 213.245 86.8438 213.914 86.3084C214.516 85.84 214.784 84.97 214.784 83.7654V82.4269C214.295 83.169 213.629 83.7779 212.847 84.1985C212.064 84.6191 211.189 84.8382 210.3 84.8361C208.694 84.8361 207.489 84.3677 206.619 83.3638C205.749 82.36 205.348 80.8877 205.348 78.9469V70.9161H207.021C208.694 70.9161 209.564 71.7192 209.564 73.3254V78.5454C209.564 80.3523 210.233 81.2892 211.638 81.2892C213.111 81.2892 214.115 80.6869 214.851 79.4154V70.9161H218.933Z" fill="#293737"/>
</g>
<defs>
<clipPath id="clip0_3_262">
<rect width="174" height="36.1385" fill="white" transform="translate(45 58)"/>
</clipPath>
</defs>
</svg>
