<svg width="263" height="153" viewBox="0 0 263 153" fill="none" xmlns="http://www.w3.org/2000/svg">
<rect width="263" height="153" rx="5" fill="white"/>
<path d="M103.294 53.5083H96.5278L90.513 72.2778H94.138L95.8028 67.1222H104.127L105.872 72.2778H109.497L103.294 53.5083ZM96.7695 64.1417L99.9111 54.4481L103.133 64.1417H96.7695ZM114.458 72.3046V53.5083H111.129V72.3046H114.458ZM121.798 58.4491V53.5083H118.468V58.4491H116.455V61.0537H116.777C116.777 61.0537 118.468 61.0537 118.468 62.9065V68.8944C118.468 70.8009 119.999 72.3046 121.879 72.3046H124.161V69.3509H122.845C122.281 69.3509 121.798 68.8676 121.798 68.3037V63.1481C121.798 61.1611 117.582 61.0537 116.884 61.0537H124.161V58.4491H121.798ZM101.093 86.9315C101.093 86.9315 97.4945 86.0991 97.387 86.0722C96.1787 85.75 95.1583 85.1593 95.1583 83.9241C95.1583 82.5815 96.7963 81.4806 98.8639 81.4806C101.388 81.4806 102.811 83.038 102.811 84.5685H106.329C106.329 81.2926 103.778 78.5268 98.8639 78.5268C94.7019 78.5268 91.6407 80.7556 91.6407 83.9509C91.6407 87.2537 93.7352 88.838 96.7963 89.5361C96.7963 89.5361 100.421 90.3685 100.502 90.3954C101.898 90.7444 103.053 91.4426 103.053 92.812C103.053 94.5037 100.958 95.5778 98.7565 95.3898C95.7759 95.1481 94.675 93.188 94.675 91.7917H91.1843C91.1843 94.8528 93.7352 98.2361 98.8102 98.3704C102.623 98.4509 106.57 96.3565 106.57 92.812C106.57 89.5361 104.315 87.7102 101.093 86.9315ZM115.127 95.2287C113.005 95.2287 111.878 93.2148 111.878 90.9056C111.878 88.5694 113.274 86.5824 115.1 86.5824C116.55 86.5824 117.704 87.6565 118.107 89.1333H121.705C121.115 85.6694 118.349 83.6287 115.073 83.6287C111.394 83.6287 108.199 86.8509 108.387 91.3352C108.548 95.5241 111.555 98.1555 115.154 98.1555C118.51 98.1555 121.007 95.9268 121.652 92.8926H117.946C117.651 94.1009 116.577 95.2287 115.127 95.2287ZM127.307 89.6972V89.7778V89.6972ZM131.12 83.6824C129.079 83.8435 127.334 85.9648 127.307 89.6972C127.334 87.8444 128.166 86.5018 130.073 86.5018C132.167 86.5018 132.839 88.0593 132.839 89.7778V97.8602H136.195V88.65C136.195 85.4278 133.537 83.4944 131.12 83.6824ZM123.978 79.0639V97.8602H127.307V79.0639H123.978ZM145.233 83.6287C141.661 83.6287 138.385 86.287 138.385 90.9056C138.385 95.5241 141.608 98.1287 145.233 98.1555C148.884 98.1287 152.107 95.4972 152.107 90.9056C152.107 86.287 148.804 83.6287 145.233 83.6287ZM145.233 95.2019C143.46 95.2019 141.742 93.8055 141.742 90.9056C141.742 88.1667 143.434 86.6093 145.233 86.5824C147.059 86.6093 148.75 88.1935 148.75 90.9056C148.75 93.8055 147.032 95.2019 145.233 95.2019ZM160.704 83.6287C157.133 83.6287 153.857 86.287 153.857 90.9056C153.857 95.5241 157.079 98.1287 160.704 98.1555C164.356 98.1287 167.578 95.4972 167.578 90.9056C167.578 86.287 164.275 83.6287 160.704 83.6287ZM160.704 95.2019C158.932 95.2019 157.213 93.8055 157.213 90.9056C157.213 88.1667 158.905 86.6093 160.704 86.5824C162.53 86.6093 164.221 88.1935 164.221 90.9056C164.221 93.8055 162.503 95.2019 160.704 95.2019ZM173.275 97.8602V79.0639H169.946V97.8602H173.275ZM173.315 68.2037H127.759V72.2778H173.315V68.2037Z" fill="black"/>
</svg>
