<svg width="263" height="153" viewBox="0 0 263 153" fill="none" xmlns="http://www.w3.org/2000/svg">
<rect width="263" height="153" rx="5" fill="white"/>
<g clip-path="url(#clip0_14_3441)">
<g opacity="0.9">
<path opacity="0.9" d="M79.4556 76.305C79.4103 84.0372 77.292 90.0064 73.1022 94.2208C68.8665 98.4804 63.0442 100.61 55.6291 100.61H54.2042C53.3919 100.61 52.613 100.288 52.0386 99.7158C51.4642 99.1434 51.1413 98.3672 51.1408 97.5577C51.1413 96.7483 51.4642 95.9721 52.0386 95.3997C52.613 94.8274 53.3919 94.5056 54.2042 94.5051H56.4577C61.5676 94.5051 65.5052 92.7949 68.2706 89.3674C70.9848 85.9859 72.3897 81.6357 72.4806 76.3113C72.3897 70.987 70.9844 66.6113 68.2706 63.1911C65.5052 59.8091 61.5744 58.1245 56.4577 58.1245H54.2042C53.3919 58.124 52.613 57.8022 52.0386 57.2298C51.4642 56.6574 51.1413 55.8813 51.1408 55.0718C51.138 54.6692 51.2152 54.2701 51.3679 53.8974C51.5206 53.5247 51.7459 53.1858 52.0306 52.9003C52.3154 52.6147 52.6541 52.3882 53.0271 52.2337C53.4001 52.0791 53.8002 51.9997 54.2042 52H55.6287C63.0442 52 68.8665 54.1041 73.1027 58.3186C77.2866 62.5776 79.4039 68.5733 79.4556 76.305ZM46.115 100.849C47.836 100.849 49.2305 99.4447 49.2305 97.7126C49.2305 95.9799 47.8355 94.5761 46.115 94.5761C44.3945 94.5761 43 95.9795 43 97.7121C43 99.4447 44.3945 100.849 46.115 100.849Z" fill="#3657FF"/>
</g>
<g opacity="0.9">
<path opacity="0.9" d="M65.5254 76.6951C65.5706 84.4268 67.6884 90.3965 71.8783 94.611C76.1139 98.8706 81.9363 101 89.3518 101H90.7763C91.5886 101 92.3675 100.678 92.9419 100.105C93.5163 99.533 93.8392 98.7569 93.8397 97.9474C93.8392 97.1379 93.5163 96.3618 92.9419 95.7894C92.3675 95.217 91.5886 94.8952 90.7763 94.8947H88.5228C83.4129 94.8947 79.4753 93.1846 76.7168 89.7575C74.0025 86.3756 72.5972 82.0258 72.5067 76.7015C72.5972 71.3772 74.0025 67.0015 76.7163 63.5808C79.4817 60.1993 83.4129 58.5147 88.5228 58.5147H90.7768C91.589 58.514 92.3678 58.1922 92.942 57.6198C93.5163 57.0474 93.8392 56.2713 93.8397 55.462C93.8392 54.6525 93.5163 53.8763 92.9419 53.3039C92.3675 52.7316 91.5886 52.4098 90.7763 52.4093H89.3518C81.9363 52.4093 76.1139 54.5138 71.8783 58.7278C67.6884 62.9678 65.5706 68.9634 65.5254 76.6951ZM98.8783 58.6607C100.599 58.6607 101.993 57.2563 101.993 55.5237C101.993 53.7915 100.599 52.3877 98.8783 52.3877C97.1578 52.3877 95.7628 53.7915 95.7628 55.5237C95.7628 57.2563 97.1578 58.6607 98.8783 58.6607Z" fill="#3DDC97"/>
</g>
<path d="M103.371 69.6204C102.905 69.9458 102.291 69.8997 101.856 69.5356C101.615 69.3342 101.359 69.1485 101.079 68.9702C100.597 68.6527 100.015 68.3743 99.3389 68.1342C98.655 67.8941 97.9169 67.778 97.1169 67.778C95.7573 67.778 94.7164 68.072 93.9935 68.6683C93.2712 69.2563 92.9137 69.9149 92.9137 70.643C92.9137 71.5172 93.2712 72.1831 93.9935 72.6476C94.7164 73.1043 95.625 73.5149 96.7284 73.8785C97.8318 74.2426 99.0124 74.591 100.271 74.9394C101.506 75.2717 102.695 75.7527 103.814 76.3716C104.917 76.9831 105.826 77.7809 106.548 78.7716C107.256 79.7394 107.613 81.0011 107.628 82.5495C107.636 83.386 107.52 84.2298 107.248 85.027C106.766 86.4284 105.919 87.6436 104.715 88.6657C103.775 89.463 102.633 90.098 101.289 90.5547C99.9447 91.0113 98.4529 91.2436 96.814 91.2436C94.8948 91.2436 93.2481 90.9883 91.8885 90.4694C90.5289 89.951 89.3867 89.3703 88.4623 88.7353C87.5919 88.1547 86.8229 87.4892 86.1625 86.7302C85.7352 86.2427 85.6964 85.515 86.046 84.9731C86.2402 84.6791 86.5279 84.315 86.9473 83.8966C87.5609 83.285 88.0428 82.9215 88.4313 82.7122C88.9594 82.4182 89.5966 82.526 90.0239 82.9523C90.482 83.4075 90.9812 83.8196 91.5153 84.1832C92.1526 84.5933 92.9059 84.9804 93.7683 85.3367C94.6308 85.6929 95.6408 85.8708 96.7983 85.8708C98.4765 85.8708 99.7038 85.5459 100.458 84.8957C101.219 84.2449 101.599 83.4247 101.599 82.4334C101.599 81.5975 101.242 80.9389 100.52 80.4592C99.7972 79.979 98.888 79.5615 97.7851 79.1975C96.613 78.8154 95.4317 78.4617 94.2423 78.1366C93.0074 77.8043 91.8177 77.3233 90.6996 76.7043C89.5966 76.0928 88.6875 75.3029 87.9651 74.3278C87.2423 73.3522 86.8848 72.0518 86.8848 70.4103C86.8848 69.4195 87.1337 68.4361 87.6386 67.4605C88.1358 66.4854 88.8433 65.6338 89.7442 64.8826C90.6455 64.1393 91.7174 63.5351 92.9526 63.0789C94.1956 62.6217 95.5709 62.3895 97.0938 62.3895C98.655 62.3895 100.015 62.5987 101.18 63.0167C102.337 63.4346 103.324 63.884 104.124 64.3642C104.744 64.7345 105.32 65.1734 105.841 65.6725C106.199 66.0204 106.261 66.578 105.974 66.9886C105.608 67.4955 105.211 67.9789 104.785 68.4361C104.365 68.8849 103.821 69.3034 103.371 69.6209V69.6204ZM123.656 91.2206C122.211 91.2206 120.921 91.0197 119.779 90.6242C118.637 90.2298 117.666 89.7883 116.866 89.3081C115.903 88.751 115.063 88.0929 114.341 87.3344V100.782C114.341 100.81 114.335 100.839 114.325 100.865C114.314 100.891 114.297 100.915 114.277 100.935C114.257 100.955 114.233 100.971 114.207 100.982C114.18 100.993 114.152 100.999 114.123 100.999H108.553C108.525 100.999 108.496 100.993 108.47 100.982C108.444 100.971 108.42 100.955 108.399 100.935C108.379 100.915 108.363 100.891 108.352 100.865C108.341 100.839 108.336 100.81 108.336 100.782V62.6526C108.336 62.5286 108.437 62.4355 108.553 62.4355H113.012C113.187 62.4354 113.36 62.4696 113.521 62.5361C113.682 62.6026 113.829 62.7002 113.952 62.8232C114.076 62.9462 114.174 63.0923 114.24 63.253C114.307 63.4138 114.341 63.5861 114.341 63.76V65.6102C114.341 65.7964 114.558 65.8969 114.699 65.7729C115.335 65.2153 116.058 64.7121 116.858 64.2632C117.658 63.8066 118.629 63.3729 119.772 62.9701C120.913 62.5678 122.203 62.3664 123.648 62.3664C125.529 62.3664 127.323 62.7379 129.025 63.489C130.726 64.2402 132.225 65.254 133.53 66.5466C134.828 67.8324 135.861 69.3651 136.623 71.1301C137.384 72.8956 137.764 74.7845 137.764 76.7818C137.764 78.8182 137.384 80.715 136.623 82.4643C135.861 84.2141 134.828 85.7316 133.53 87.0242C132.228 88.3093 130.701 89.3458 129.025 90.0823C127.331 90.8492 125.536 91.2206 123.656 91.2206ZM123.058 67.7628C121.939 67.7628 120.859 67.9951 119.818 68.4669C118.78 68.934 117.835 69.5846 117.029 70.3873C116.206 71.2002 115.561 72.1444 115.079 73.2361C114.597 74.3278 114.356 75.5122 114.356 76.7896C114.356 78.067 114.597 79.2592 115.079 80.3509C115.561 81.4426 116.214 82.3947 117.029 83.1998C117.836 84.0008 118.781 84.6512 119.818 85.1201C120.834 85.5857 121.939 85.8261 123.058 85.8247C124.176 85.8247 125.257 85.592 126.298 85.1201C127.336 84.653 128.281 84.0024 129.087 83.1998C129.91 82.3869 130.555 81.4426 131.037 80.3509C131.518 79.2592 131.759 78.0749 131.759 76.7896C131.759 75.5122 131.518 74.3278 131.037 73.2361C130.555 72.1444 129.902 71.1923 129.087 70.3873C128.279 69.5863 127.335 68.936 126.298 68.4669C125.257 68.0024 124.176 67.7623 123.058 67.7623V67.7628ZM144.935 91.1588H139.264C139.218 91.1585 139.175 91.1404 139.143 91.1084C139.111 91.0765 139.093 91.0334 139.093 90.9883V52.1705C139.093 52.1255 139.111 52.0823 139.143 52.0504C139.175 52.0185 139.218 52.0004 139.264 52H144.935C144.98 52.0003 145.024 52.0183 145.056 52.0502C145.088 52.0822 145.106 52.1254 145.106 52.1705V90.9883C145.107 91.0109 145.103 91.0333 145.094 91.0542C145.086 91.0751 145.073 91.0942 145.057 91.1101C145.041 91.126 145.022 91.1386 145.001 91.147C144.98 91.1553 144.958 91.1594 144.935 91.1588ZM153.496 78.1758C152.945 78.1758 152.525 78.7021 152.68 79.2362C152.865 79.8704 153.118 80.483 153.434 81.0634C153.924 81.9878 154.573 82.8187 155.353 83.5173C156.13 84.2141 157.047 84.7717 158.088 85.2053C159.129 85.6311 160.247 85.8477 161.452 85.8477C162.85 85.8477 164.101 85.6155 165.204 85.1588C166.307 84.7021 167.216 84.191 167.939 83.6334C168.538 83.1501 169.094 82.6165 169.601 82.0385C169.92 81.6827 170.479 81.6749 170.813 82.0076L171.87 83.0606L173.517 84.7021C173.67 84.8558 173.757 85.062 173.762 85.2782C173.766 85.4943 173.687 85.7038 173.54 85.8634C172.763 86.7307 171.854 87.5196 170.821 88.2321C169.741 88.9911 168.421 89.68 166.859 90.2994C165.297 90.9187 163.495 91.2284 161.452 91.2284C159.409 91.2284 157.489 90.8413 155.687 90.075C153.911 89.3256 152.292 88.2486 150.917 86.9007C149.54 85.562 148.43 83.9753 147.646 82.2247C146.846 80.4518 146.442 78.5546 146.442 76.5186C146.442 74.5601 146.831 72.7172 147.615 71.0061C148.4 69.2955 149.449 67.8015 150.77 66.5393C152.09 65.2697 153.644 64.2632 155.423 63.5121C157.202 62.7614 159.114 62.39 161.157 62.39C163.2 62.39 165.08 62.7227 166.804 63.3807C168.529 64.0388 170.013 64.9679 171.279 66.1522C172.541 67.3424 173.543 68.7787 174.224 70.3716C174.923 71.9974 175.273 73.7702 175.273 75.6905C175.273 76.1085 175.25 76.4878 175.211 76.8205C175.178 77.1236 175.137 77.4258 175.086 77.7265C175.047 78.0283 175.009 78.1753 174.97 78.1753H153.496V78.1758ZM161.141 67.4683C158.857 67.4683 157 68.0259 155.555 69.1329C154.467 69.9688 153.652 70.9601 153.116 72.1057C152.859 72.6476 153.287 73.2748 153.892 73.2748H168.226C168.832 73.2748 169.229 72.6555 169.003 72.0978C168.537 70.9601 167.768 69.9693 166.696 69.1333C165.274 68.0181 163.425 67.4683 161.141 67.4683ZM176.951 78.1758H176.469C176.431 78.1758 176.392 78.0288 176.353 77.7265C176.314 77.4633 176.275 77.161 176.229 76.8205C176.187 76.4453 176.166 76.068 176.167 75.6905C176.167 73.7624 176.516 71.9895 177.215 70.3716C177.915 68.7458 178.894 67.3443 180.16 66.1527C181.419 64.96 182.91 64.0388 184.635 63.3807C186.36 62.7227 188.24 62.3895 190.283 62.3895C192.326 62.3895 194.238 62.7614 196.017 63.5121C197.796 64.2632 199.349 65.2697 200.67 66.5393C201.991 67.8089 203.04 69.2955 203.824 71.0066C204.609 72.7172 204.997 74.5523 204.997 76.5191C204.997 78.5546 204.601 80.4592 203.793 82.2247C202.993 83.9897 201.905 85.5537 200.523 86.9007C199.144 88.245 197.527 89.3215 195.752 90.075C193.95 90.8413 192.031 91.2284 189.988 91.2284C187.945 91.2284 186.142 90.9187 184.58 90.2994C183.019 89.68 181.698 88.9911 180.619 88.2321C179.577 87.5201 178.676 86.7302 177.899 85.8634C177.753 85.704 177.673 85.4944 177.678 85.2781C177.682 85.0619 177.77 84.8556 177.922 84.7021L179.57 83.0606L180.626 82.0076C180.968 81.6671 181.527 81.6744 181.838 82.0385C182.346 82.6163 182.902 83.1499 183.5 83.6334C184.223 84.191 185.132 84.7016 186.235 85.1588C187.338 85.6155 188.589 85.8477 189.988 85.8477C191.192 85.8477 192.31 85.6311 193.352 85.2053C194.393 84.779 195.302 84.2141 196.086 83.5173C196.87 82.8223 197.521 81.9907 198.006 81.0634C198.317 80.4804 198.569 79.8682 198.759 79.2357C198.914 78.7099 198.495 78.1753 197.943 78.1753H176.951V78.1758ZM184.72 69.1329C183.648 69.9688 182.879 70.9601 182.413 72.0978C182.18 72.6555 182.584 73.2748 183.19 73.2748H197.524C198.129 73.2748 198.557 72.6476 198.301 72.1057C197.757 70.9601 196.949 69.9693 195.861 69.1329C194.416 68.0254 192.559 67.4683 190.275 67.4683C187.991 67.4683 186.142 68.0181 184.72 69.1329Z" fill="#0F0C3D"/>
<path d="M209.977 52.3254H212.72C212.894 52.3254 213.067 52.3596 213.228 52.4261C213.389 52.4925 213.535 52.59 213.659 52.7129C213.782 52.8358 213.88 52.9818 213.947 53.1424C214.013 53.303 214.048 53.4751 214.048 53.6489V60.0821C214.048 60.8176 213.827 62.4283 216.39 62.4283H218.717C218.891 62.4281 219.064 62.4623 219.226 62.5288C219.387 62.5953 219.533 62.6928 219.657 62.8158C219.78 62.9387 219.878 63.0847 219.945 63.2454C220.011 63.4061 220.046 63.5783 220.046 63.7522V66.485C220.046 66.6589 220.011 66.8311 219.945 66.9918C219.878 67.1525 219.78 67.2985 219.657 67.4215C219.533 67.5444 219.387 67.6419 219.226 67.7084C219.064 67.7749 218.891 67.8091 218.717 67.809H215.376C215.202 67.8088 215.029 67.843 214.868 67.9095C214.706 67.976 214.56 68.0735 214.437 68.1964C214.313 68.3194 214.215 68.4654 214.149 68.6261C214.082 68.7868 214.048 68.959 214.048 69.1329V82.2708C214.048 83.316 214.39 84.1676 215.066 84.8257C215.749 85.4837 216.604 85.8169 217.645 85.8169C218.406 85.8169 219.09 85.7238 219.688 85.5303C220.014 85.4517 220.336 85.3562 220.651 85.2441V89.587C220.651 90.222 220.209 90.7718 219.587 90.8879C219.543 90.895 219.499 90.9026 219.455 90.911C218.577 91.1119 217.575 91.2128 216.449 91.2128C213.73 91.2128 211.647 90.4852 210.202 89.022C208.757 87.5589 208.042 85.3676 208.042 82.4413V69.1486C208.043 68.9747 208.008 68.8025 207.942 68.6418C207.875 68.4811 207.777 68.3351 207.654 68.2121C207.53 68.0892 207.384 67.9916 207.222 67.9251C207.061 67.8587 206.888 67.8245 206.714 67.8246H203.971C203.797 67.8248 203.624 67.7906 203.463 67.7241C203.302 67.6576 203.155 67.5601 203.032 67.4371C202.908 67.3142 202.81 67.1682 202.744 67.0075C202.677 66.8468 202.643 66.6746 202.643 66.5007V63.7679C202.643 63.594 202.677 63.4218 202.744 63.2611C202.81 63.1004 202.908 62.9544 203.032 62.8314C203.155 62.7085 203.302 62.611 203.463 62.5445C203.624 62.478 203.797 62.4438 203.971 62.4439H205.642C206.558 62.4439 207.296 62.1264 207.833 61.4992C208.377 60.8647 208.641 59.92 208.641 58.6582V53.6563C208.648 52.9213 209.247 52.325 209.977 52.325V52.3254Z" fill="#0F0C3D"/>
</g>
<defs>
<clipPath id="clip0_14_3441">
<rect width="178" height="49" fill="white" transform="translate(43 52)"/>
</clipPath>
</defs>
</svg>
