<svg width="263" height="153" viewBox="0 0 263 153" fill="none" xmlns="http://www.w3.org/2000/svg">
<rect width="263" height="153" rx="5" fill="white"/>
<g clip-path="url(#clip0_3_283)">
<path d="M194.338 90.1008C193.591 89.3023 192.717 88.5909 192.126 87.6921C190.77 85.6403 189.565 83.5194 188.317 81.4141C187.228 79.5831 185.721 79.0144 183.633 79.7303V87.0521C183.633 89.5008 183.397 89.7127 180.941 89.6525C180.54 89.6525 180.141 89.6079 179.581 89.5744V87.7568V65.6777C179.581 65.3431 179.581 65.0086 179.61 64.6741C179.697 63.2757 180.08 62.8319 181.452 62.9033C184.525 63.0616 187.598 63.2534 190.665 63.5255C195.125 63.9203 197.543 67.8142 197.322 72.1743C197.157 75.4326 195.255 77.4599 192.416 78.7534C191.782 79.0433 191.136 79.3065 190.366 79.6455L197.046 89.6235L196.122 90.1008H194.338ZM183.6 78.6151C186.452 78.8917 189.111 78.7556 191.263 76.831C193.801 74.5651 194.356 71.2554 192.882 68.2134C191.372 65.0911 188.152 63.3069 184.902 63.753C184.077 63.8667 183.604 64.2637 183.604 65.1156C183.597 69.5716 183.6 74.0276 183.6 78.6151Z" fill="#4E3662"/>
<path d="M51.6043 62C52.4808 62.223 53.3684 62.3992 54.2315 62.6691C57.5768 63.7083 58.1723 64.6763 57.7686 68.3294C56.9836 67.4239 56.3056 66.5095 55.496 65.7312C53.5112 63.8243 51.1717 62.8051 48.5199 64.0563C47.254 64.6637 46.1753 65.6014 45.3976 66.7704C41.7713 72.4954 41.2048 78.4701 44.4542 84.5943C45.7924 87.1078 47.7237 88.6979 50.7368 88.5752C52.0548 88.5217 52.9068 88.0355 53.19 86.7353C53.5065 85.103 53.7121 83.4511 53.8055 81.7909C53.868 80.9992 53.3417 80.4528 52.5611 80.3078C51.7805 80.1629 51.0155 80.1272 50.2439 80.0291C49.7978 79.9711 49.3518 79.8841 48.9058 79.806L48.9459 79.4849H59.9542L60.0145 79.7347L57.6259 80.3703C57.6259 82.3128 57.6973 84.2464 57.5835 86.1688C57.5478 86.7688 57.162 87.6185 56.6803 87.8839C48.6203 92.3109 41.3208 88.2385 38.8073 81.9716C38.4996 81.2044 38.2676 80.4104 38 79.6209V78.7289V76.4986V75.3835L38.6847 72.8857C40.2168 67.3101 43.4373 63.4363 49.3897 62.3189C49.7666 62.2476 50.1279 62.1115 50.5048 62.0045L51.6043 62Z" fill="#0B316B"/>
<path d="M91.7482 62C92.725 62.2765 93.1064 63.0371 93.4521 63.918C96.5372 71.7758 99.6409 79.6269 102.763 87.4713C103.033 88.1537 103.258 88.854 103.548 89.6725C102.308 89.5744 101.2 89.5209 100.1 89.3937C98.9407 89.2599 98.2671 88.457 97.8278 87.4735C97.3884 86.49 97.0316 85.3994 96.6235 84.3668C96.0726 82.964 95.0935 82.2816 93.5324 82.3173C90.9386 82.3752 88.3449 82.3329 85.6664 82.3329C85.1668 84.0457 84.6873 85.754 84.1677 87.4624C83.6793 89.0525 82.8898 89.561 81.1658 89.3625C81.739 87.5917 82.2809 85.8388 82.8697 84.0992C85.0888 77.4621 87.2922 70.8227 89.5737 64.2079C89.8525 63.3983 90.5617 62.7404 91.0725 62.0111L91.7482 62ZM85.963 81.113H95.7871C93.9784 76.3938 92.1943 71.7483 90.4101 67.1094C90.3387 66.9265 89.9841 66.6634 89.8971 66.7124C89.658 66.8337 89.4744 67.042 89.3842 67.2945C88.2312 71.8754 87.1071 76.4607 85.963 81.113Z" fill="#0A306A"/>
<path d="M157.986 90.1007C157.424 89.9931 156.857 89.9223 156.286 89.8888C154.357 89.8888 153.026 89.0793 152.383 87.2126C152.033 86.1978 151.621 85.2054 151.268 84.1884C150.916 83.1714 150.213 82.6272 149.103 82.6272C146.507 82.6384 143.908 82.6027 141.313 82.6629C141.106 82.701 140.912 82.787 140.745 82.9141C140.578 83.0411 140.443 83.2057 140.351 83.3944C139.852 84.7861 139.459 86.2179 139.049 87.6319C138.581 89.251 137.914 89.7461 136.007 89.7461C136.194 89.1306 136.359 88.5462 136.551 87.9619C139.153 80.1576 141.755 72.3519 144.357 64.5447C144.439 64.2993 144.528 64.054 144.611 63.8087C144.903 62.9478 145.454 62.4706 146.409 62.4349C147.363 62.3992 147.782 62.9924 148.09 63.773C150.337 69.4571 152.586 75.1397 154.837 80.8208C155.845 83.3699 156.868 85.9124 157.852 88.4704C158.046 88.9722 158.075 89.5342 158.197 90.0695L157.986 90.1007ZM150.664 81.55C148.842 76.8019 147.058 72.1564 145.273 67.5198C145.2 67.328 144.874 67.0403 144.796 67.0737C144.541 67.1776 144.335 67.3756 144.221 67.6268C143.908 68.7263 143.665 69.8437 143.391 70.9543C142.526 74.458 141.658 77.9616 140.773 81.5456L150.664 81.55ZM224 67.7985L223.518 68.8401C223.179 68.3806 222.914 67.9703 222.597 67.6023C221.805 66.6745 221.098 65.6375 220.166 64.877C218.007 63.1106 215.349 63.3738 213.531 65.5215C208.913 70.9811 208.335 77.9572 210.929 83.9029C212.737 88.0489 217.691 89.4138 220.706 87.527C220.87 87.4636 221.043 87.4289 221.219 87.4244L221.424 87.7322C220.719 88.2251 220.061 88.8094 219.299 89.1841C218.46 89.5944 217.528 89.8063 216.636 90.1052H214.41L212.463 89.4584C210.337 88.7533 208.471 87.4258 207.109 85.6479C205.746 83.8699 204.949 81.7236 204.82 79.4871C204.601 75.9555 205.173 72.4196 206.493 69.1367C208.239 64.7677 211.868 63.008 216.317 62.7315C217.626 62.6512 218.98 62.8787 220.278 63.1463C221.937 63.4898 223.413 64.2057 224 66.0077V67.7985Z" fill="#503863"/>
<path d="M160.216 90.1007V64.8123C160.216 63.4742 160.805 62.9077 162.14 62.901C166.447 62.8765 170.754 62.8676 175.062 62.901C177.034 62.9166 177.812 63.8087 177.719 65.7758C177.696 66.2397 177.614 66.6991 177.531 67.4016C175.247 64.0563 171.813 64.1678 168.55 63.8176C167.658 63.7217 166.779 63.608 165.889 63.579C164.792 63.5433 164.079 64.0763 164.063 65.0978C164.012 68.6527 164.043 72.2077 164.043 75.892H172.825C173.167 76.9291 172.486 76.9135 171.956 76.9246C170.138 76.9558 168.318 76.9737 166.501 76.9402C164.44 76.9023 164 77.2971 163.998 79.3511C163.998 82.3217 163.974 85.2924 164.012 88.2719C164.023 89.164 163.878 89.8755 162.881 90.1096L160.216 90.1007Z" fill="#4C3460"/>
<path d="M199.022 90.1008C199.022 81.626 198.995 73.1511 199.022 64.6763C199.022 63.1888 199.445 62.8475 200.906 62.8475C201.535 62.8475 202.164 62.8988 202.875 62.9323C202.9 63.298 202.94 63.6214 202.94 63.9448V87.8014C202.94 88.8786 202.592 89.7239 201.482 90.0919L199.022 90.1008Z" fill="#533D67"/>
<path d="M132.338 89.193C132.133 89.2176 131.988 89.2287 131.845 89.251C129.002 89.7194 128.556 89.0548 128.58 86.1287C128.629 80.3301 128.629 74.5316 128.645 68.7442C128.616 68.5182 128.572 68.2947 128.511 68.0751C128.257 68.5724 128.078 68.8601 127.956 69.1724C125.554 75.2341 123.181 81.307 120.734 87.3509C120.451 88.0489 119.9 88.8295 119.26 89.1551C117.71 89.9468 116.452 89.2822 115.915 87.6051C114.021 81.6385 112.129 75.6712 110.239 69.7032C110.038 69.0234 109.69 68.3961 109.22 67.8655C108.826 70.8198 108.429 73.7711 108.029 76.7194C107.518 80.5108 107.025 84.3022 106.468 88.0779C106.383 88.6511 106.022 89.193 105.785 89.7372L105.339 89.5945L106.211 62.4773C107.206 62.4773 108.156 62.4394 109.11 62.4773C110.304 62.5353 110.801 63.3894 111.156 64.3886C112.709 68.7509 114.27 73.1109 115.839 77.4688C116.985 80.6647 118.143 83.8584 119.387 87.3018C119.61 86.8045 119.762 86.5391 119.865 86.2603C122.501 79.2188 125.135 72.1765 127.766 65.1335C128.759 62.484 129.466 62.1093 132.349 62.6802C132.338 71.4806 132.338 80.2878 132.338 89.193Z" fill="#0D326C"/>
<path d="M61.7273 89.3312V62.7448C61.7887 62.7022 61.8554 62.6677 61.9258 62.6423C65.0659 61.9888 65.6368 62.4728 65.6301 65.6084C65.6123 73.0351 65.6301 80.4639 65.6301 87.8905V88.515C70.3136 88.0689 75.1822 89.0926 79.3237 85.6826C79.3571 86.0662 79.3817 86.2379 79.3861 86.4097C79.4709 89.135 79.2902 89.3268 76.5783 89.329H62.9851L61.7273 89.3312Z" fill="#0E346D"/>
</g>
<defs>
<clipPath id="clip0_3_283">
<rect width="186" height="28.1007" fill="white" transform="translate(38 62)"/>
</clipPath>
</defs>
</svg>
