<svg width="263" height="153" viewBox="0 0 263 153" fill="none" xmlns="http://www.w3.org/2000/svg">
<rect width="263" height="153" rx="5" fill="white"/>
<g clip-path="url(#clip0_3_333)">
<path d="M172.072 31.2507C141.665 31.5091 110.568 11.6108 81.022 26.5992C73.614 30.3032 65 38.5726 65 47.5312V131.001C89.1192 112.997 114.703 109.121 139.942 108.863C150.968 108.777 161.994 108.174 172.675 105.073C181.289 102.575 190.937 98.3537 198 92.9269V24.5318C187.835 31.6814 184.562 31.1646 172.072 31.2507Z" fill="white"/>
<path d="M195.846 28.0636C188.18 32.8013 183.959 32.8875 174.656 32.8875H172.158C160.701 33.0597 149.159 30.3033 137.96 27.7191C118.407 23.1537 99.9728 18.9328 81.9696 27.9775C74.6477 31.6815 67.1535 39.4341 67.1535 47.0144V126.78L70.1684 124.799V50.0293C70.1684 42.3629 77.5764 34.6103 84.8983 30.9924C102.988 21.8616 121.422 26.1686 140.889 30.6478C152.087 33.232 161.391 36.7638 172.761 36.6776C172.761 36.6776 190.764 37.2806 195.846 28.0636Z" fill="#BBE2F1"/>
<path d="M174.225 100.766C164.664 103.436 155.447 105.159 137.874 103.608C114.875 101.627 80.1606 102.316 67.1535 126.78C92.5648 110.672 119.01 107.484 139.769 107.312C149.589 107.226 161.132 106.709 172.158 103.608C178.274 101.885 192.659 96.9754 195.674 91.9793C190.592 94.3912 180.772 98.8705 174.225 100.766ZM183.701 50.4598C181.203 50.4598 180.341 48.8232 180.341 47.0142C180.341 45.2914 181.203 43.6548 183.701 43.6548C186.199 43.6548 186.974 45.2914 186.974 47.1004C186.974 48.8232 186.199 50.4598 183.701 50.4598ZM183.701 44.2578C181.633 44.2578 180.944 45.4637 180.944 47.1004C180.944 48.6509 181.633 49.943 183.701 49.943C185.768 49.943 186.371 48.6509 186.371 47.1004C186.371 45.4637 185.768 44.2578 183.701 44.2578ZM184.39 49.0816L183.615 47.6172H183.184V49.0816H182.15V45.1192H183.873C185.079 45.1192 185.337 45.8083 185.337 46.4113C185.337 47.0142 184.993 47.3588 184.476 47.5311L185.424 49.0816H184.39ZM183.787 45.9806H183.184V46.9281H183.787C184.304 46.9281 184.304 46.6697 184.304 46.4113C184.304 46.1528 184.218 45.9806 183.787 45.9806ZM164.319 75.0958C164.75 74.8374 165.267 74.7513 165.784 74.6651L167.162 74.3206C168.799 72.5117 170.866 71.0473 172.503 70.7889H172.589C172.761 70.4443 172.761 70.1859 172.761 70.0136L172.675 69.5829C172.244 69.2383 171.727 69.1522 170.952 69.2383C168.626 69.669 165.525 72.5117 163.889 75.0097V75.5265L164.319 75.0958Z" fill="#AE9A63"/>
<path d="M181.547 86.9834C180.255 87.5863 178.619 87.0695 177.671 86.0358C176.465 84.6576 175.431 83.1071 174.656 81.4704C174.139 80.5229 173.709 79.4892 173.019 78.6278C172.33 77.8525 171.124 76.5604 170.005 76.7327C179.049 75.3545 181.633 65.4484 174.053 64.7593C168.971 64.2424 164.75 68.3771 162.855 71.9089V57.7819C162.855 54.8532 162.51 47.6174 165.956 46.4115C169.746 45.2055 167.679 50.1155 171.813 50.3739C173.536 50.46 175.087 49.1679 175.431 47.7036C175.862 45.8946 174.398 44.0857 172.847 43.2243C168.368 40.9847 155.102 46.2392 155.102 63.4672V82.5902C154.499 83.2793 153.896 83.7962 153.207 84.313C149.676 86.6388 149.245 82.8486 149.245 82.8486V69.1524C149.245 69.1524 149.073 66.0514 150.365 65.5345H145.369C143.043 65.5345 143.215 67.1712 143.215 67.1712V68.1187C142.44 66.6543 140.717 65.7068 138.65 65.6207C132.448 65.3622 128.657 71.3059 128.399 76.7327C128.313 78.2832 128.485 79.9199 128.83 81.4704C128.485 81.9011 128.227 82.3318 127.796 82.6764C124.781 85.6051 120.388 87.1556 116.339 86.2081L115.133 85.8635C111.774 84.6576 110.223 81.1258 110.31 77.5941C110.396 74.2347 112.205 69.9277 115.478 68.7217C116.167 68.5494 116.856 68.3771 117.545 68.4633C117.89 68.5494 118.321 68.6356 118.579 68.894C118.924 69.0663 119.182 69.5831 119.354 69.9277C120.13 72.2534 118.579 77.8525 110.826 79.0585C110.826 79.0585 112.98 81.3843 117.976 80.0922C119.871 79.5753 121.594 78.8862 123.058 77.4218C123.92 76.4743 124.523 75.4406 124.953 74.1485C125.298 72.9426 125.298 71.4782 124.953 70.1861C124.523 68.6356 123.403 67.2573 122.111 66.4821C120.905 65.7929 119.613 65.4484 118.234 65.19C112.549 64.3286 104.452 68.2049 103.935 77.0773C103.505 85.3467 108.931 90.3428 117.373 90.3428C123.231 90.3428 127.107 86.8111 129.519 83.7962C130.552 86.6388 132.534 88.9646 135.462 89.6537C141.234 91.1181 143.301 84.7437 143.301 84.7437C143.301 84.7437 143.215 87.5863 144.679 88.9646C145.885 90.0844 147.522 89.9983 148.986 89.5676C151.226 88.7923 153.293 87.1556 155.102 85.2606V86.9834C155.102 86.9834 155.188 88.5339 153.896 89.7398H161.046C161.046 89.7398 162.855 89.6537 162.855 87.4141V74.7515C165.008 71.392 170.177 66.8266 172.933 68.9801C172.933 68.9801 174.053 70.0138 172.503 71.995C171.9 72.598 171.211 73.201 170.521 73.6317C169.488 74.2347 168.454 74.6654 167.334 75.0961L165.784 75.4406C165.267 75.5268 164.836 75.6129 164.492 75.8713C164.233 76.0436 163.975 76.2159 163.889 76.4743C163.63 76.8189 163.544 77.2496 163.458 77.6803C163.458 77.6803 164.147 77.3357 165.095 77.508C166.387 77.7664 167.076 78.6278 167.593 79.7476L169.229 83.2793L170.521 85.6913C171.641 87.7586 173.364 89.5676 175.776 89.9121C177.671 90.1705 179.566 89.9121 180.944 88.4477C181.289 88.017 181.547 87.5002 181.547 86.9834ZM143.215 77.508C143.215 86.0358 138.822 85.2606 138.822 85.2606C136.41 85.2606 133.912 81.4704 133.912 77.1634C133.912 72.7703 136.065 69.4108 138.822 69.2385C140.803 69.0663 143.043 70.7029 143.215 73.6317V77.508Z" fill="#20307F"/>
<path d="M124.609 45.0332C123.231 39.6925 118.148 35.6439 113.152 33.6627C108.547 31.8826 103.54 31.4058 98.6807 32.2844C91.7064 33.5391 85.3113 36.9779 80.419 42.1044C79.2992 43.3104 78.2655 44.947 77.4903 46.4975C75.3368 50.9768 76.1982 57.0066 80.9359 59.4185C81.7973 59.8492 82.9171 60.0215 83.8646 60.0215C87.7409 60.1938 92.0479 56.8343 90.3251 52.6135C88.2578 55.8006 85.4152 54.4224 85.4152 54.4224C83.2617 53.3887 82.831 50.8907 83.4339 48.8233C84.0369 46.4114 85.5874 44.2579 87.3102 42.5351C91.1865 38.8311 96.3549 36.7637 101.609 36.1607C106.95 35.5578 113.066 37.4528 116.081 42.2767C118.493 46.2391 117.804 51.2352 114.961 54.767C112.032 58.2987 105.744 58.7294 102.988 54.5947C102.047 53.2689 101.618 51.6469 101.782 50.0293C102.126 47.5312 103.763 45.2054 106.433 44.947C106.175 44.2579 105.572 42.7935 102.385 43.3104C102.385 43.3104 92.5648 44.8609 92.5648 58.9878V76.7326C92.5648 79.6614 92.9093 86.7249 89.3776 87.9308C85.6736 89.2229 87.7409 84.1407 83.5201 83.9684C81.7973 83.8823 80.3329 85.0882 79.9883 86.6387C79.5576 88.5338 80.9359 90.2566 82.5725 91.118C86.9657 93.3576 100.748 89.0507 100.748 77.9386V58.5571C104.452 62.0889 109.62 62.9503 114.444 61.572C115.736 61.2275 116.942 60.5383 118.062 59.9354C121.68 57.7819 124.178 54.0778 124.867 50.0293C125.126 48.3926 124.953 46.5837 124.609 45.0332Z" fill="#20307F"/>
<path d="M176.723 47.8758C176.56 48.5896 176.234 49.2558 175.77 49.8222C175.306 50.3886 174.717 50.8398 174.049 51.1402C173.381 51.4407 172.653 51.5823 171.921 51.554C171.19 51.5256 170.475 51.3281 169.832 50.9768C170.349 51.9244 171.383 52.8719 173.364 53.0442C175.604 53.1303 177.671 51.5798 178.188 49.4263C178.705 47.1867 177.413 45.2916 175.776 44.0856C176.551 45.2055 176.982 46.4976 176.723 47.8758ZM138.219 83.7962C137.358 82.5041 136.668 80.6951 136.668 78.6278C136.668 74.6653 138.65 72.0811 140.459 71.9088C140.889 71.8227 141.32 71.995 141.751 72.1673C141.492 71.7366 141.234 71.3059 140.889 71.0474C140.372 70.5306 139.597 70.2722 138.994 70.3583C137.099 70.4445 135.204 73.1148 135.204 77.0772C135.204 80.3506 136.755 83.0209 138.219 83.7962ZM152.174 68.1187V83.4516C151.657 83.71 151.312 83.7962 151.14 83.71C150.881 83.5377 150.623 82.9348 150.623 82.5041V67.9464C150.623 67.9464 150.623 65.7929 151.743 65.5345H153.38C153.38 65.5345 152.174 66.1375 152.174 68.1187ZM165.698 66.482V59.1601V57.4373C165.698 54.5947 165.87 49.7709 168.023 48.9956H168.109L167.765 48.2204C167.334 47.1867 167.334 47.1867 166.473 47.5312C164.319 48.2204 164.147 53.0442 164.147 55.8868V68.0325L165.698 66.482ZM179.824 68.6355V68.8078C179.824 71.9088 177.326 75.1822 173.278 76.905L174.053 77.7664L175.862 80.7813C176.637 82.5041 177.585 83.8823 178.705 85.0883L179.394 85.6051C178.705 84.6576 177.929 83.6239 177.326 82.3318L175.604 79.3169L174.742 78.4555C178.877 76.7327 181.375 73.3732 181.375 70.3583V70.186C181.289 68.6355 180.6 67.085 179.049 66.0513C179.566 66.8266 179.824 67.7741 179.824 68.6355ZM155.619 92.4101H162.683C163.975 92.324 165.698 91.2903 165.698 88.7923V80.0921H166.559C166.042 79.0585 165.611 78.6278 165.008 78.5416L164.147 78.6278V87.2418C164.147 89.826 162.424 90.7735 161.218 90.8596H153.896C153.896 90.8596 155.016 92.324 155.619 92.4101ZM127.279 76.905C126.848 77.9386 126.245 78.8862 125.556 79.6614C123.834 81.4704 121.68 82.1595 119.957 82.6763C117.115 83.3655 115.133 83.0209 113.755 82.5041L114.617 84.0546C113.497 83.3655 112.722 82.2456 112.205 80.9535C113.583 81.4704 115.564 81.8149 118.407 81.1258C120.216 80.609 122.283 79.9199 124.006 78.1971C125.04 77.1634 125.729 75.9574 126.245 74.4069C126.676 72.9425 126.676 71.3059 126.245 69.7553C126.073 68.8939 125.642 68.1187 125.126 67.3434C125.961 67.979 126.653 68.7828 127.157 69.7028C127.662 70.6228 127.967 71.6385 128.054 72.6841C128.054 72.598 128.227 74.8376 127.279 76.905ZM143.904 89.7398C143.473 89.223 143.129 88.62 142.87 88.017C141.32 89.9982 138.822 91.6349 135.29 90.7735C134.084 90.4289 132.964 89.826 132.017 89.0507C133.309 90.6874 134.946 91.8072 136.841 92.2379C140.114 93.0993 142.526 91.6349 144.076 89.826L143.904 89.7398ZM183.873 87.414C183.529 87.1556 183.184 87.1556 182.839 87.2418C182.667 88.1031 182.236 88.7923 181.978 89.0507C180.514 90.6874 178.36 91.2903 175.69 90.9458C174.398 90.7735 173.278 90.2566 172.244 89.4814C173.622 91.2042 175.345 92.2379 177.24 92.4963C179.911 92.8408 182.064 92.2379 183.442 90.6012C183.873 90.2566 184.39 89.3952 184.39 88.4477C184.39 88.017 184.218 87.5863 183.873 87.414ZM152.949 90.0844L152.863 89.6537C152.863 89.3091 153.035 88.9646 153.207 88.7923L153.552 88.1893C152.174 89.223 150.881 90.0844 149.503 90.6012C147.694 91.2042 146.058 91.0319 144.766 90.2566L145.455 91.2042C146.833 92.4963 148.814 92.8408 151.054 92.0656C151.915 91.8072 152.777 91.2903 153.638 90.7735C153.38 90.6012 153.035 90.4289 152.949 90.0844ZM129.26 85.7774C125.901 89.4814 121.938 91.4626 117.459 91.4626C113.324 91.4626 109.879 90.3428 107.381 88.1893L107.812 88.7061C110.396 91.4626 114.272 92.927 119.01 92.927C123.317 92.927 127.193 91.0319 130.466 87.5863L129.26 85.7774ZM117.545 71.3059C115.478 72.0811 114.1 74.4069 113.497 76.905L111.688 77.4218C111.774 74.4069 113.411 70.7029 115.995 69.7553C116.512 69.5831 117.029 69.4969 117.459 69.5831L117.89 69.6692C117.89 69.6692 119.44 70.7029 117.545 71.3059ZM101.868 37.2806C96.4411 37.9697 91.6172 40.1232 88.2578 43.3965C86.9657 44.6025 85.329 46.6698 84.6399 49.0818C84.2953 50.5461 84.4676 52.5274 86.0181 53.2165L86.2766 53.3888C86.0181 52.5274 85.932 51.4937 86.1904 50.5461C86.8795 48.1342 88.5162 46.153 89.8083 44.8609C93.1678 41.5876 97.9916 39.4341 103.418 38.8311C106.95 38.4865 111.171 39.2618 114.272 41.6737C111.257 38.0558 106.003 36.8499 101.868 37.2806ZM91.0143 60.28C90.3516 61.1118 89.4938 61.7671 88.5171 62.1879C87.5404 62.6086 86.4749 62.7818 85.4152 62.6919C84.8122 62.6919 83.3478 62.6057 82.0557 62.0028C80.6775 61.3136 79.6438 60.4522 78.8685 59.3324L80.5052 60.4522C81.7973 61.0552 83.3478 61.2275 83.8646 61.2275C86.1904 61.3136 88.9469 60.3661 90.3251 58.3849C91.2727 57.0928 91.8757 55.0254 91.1004 53.0442C91.1004 53.0442 93.7707 56.5759 91.0143 60.28ZM88.9469 86.6388C88.6023 85.9497 88.0855 85.1744 87.2241 84.7437L87.8271 85.8635C88.2578 86.8972 88.2578 86.8972 88.9469 86.6388Z" fill="#AE9A63"/>
<path d="M127.365 46.1529C126.59 43.0519 124.695 40.3816 122.369 38.3142C123.92 40.1231 125.212 42.1905 125.815 44.6024C126.582 47.7151 126.306 50.9936 125.03 53.9345C123.754 56.8755 121.548 59.3165 118.751 60.8829C117.804 61.3997 116.426 62.175 114.875 62.6057C110.31 63.8978 105.658 63.2948 102.04 60.969V77.8524C102.04 82.8485 99.456 87.2417 94.7183 90.0843C90.3251 92.7546 84.8983 93.616 81.9696 92.0655L81.1943 91.5487C81.7973 92.4101 82.6587 93.1853 83.5201 93.616C86.4488 95.1665 91.8757 94.3051 96.1826 91.6348C100.92 88.7922 103.591 84.399 103.591 79.4029V62.5195C106.104 64.0728 109.004 64.8884 111.959 64.8731C114.913 64.8579 117.804 64.0125 120.302 62.4334C124.264 60.0215 126.935 56.1452 127.624 51.6659C127.882 49.9431 127.796 47.9619 127.365 46.1529ZM105.572 55.2838C104.797 54.0778 104.452 52.7857 104.624 51.6659C104.797 49.7708 106.003 47.7896 108.156 47.5312C108.501 47.5312 108.845 47.3589 109.017 47.0143C109.19 46.6698 109.276 46.2391 109.104 45.8945C108.759 44.947 108.156 44.2579 107.295 43.9133L107.639 44.4301C107.812 44.7747 107.725 45.1193 107.553 45.4638C107.381 45.8084 106.95 45.9807 106.606 46.0668C104.452 46.2391 103.332 48.2203 103.074 50.1154C103.003 51.1199 103.196 52.1255 103.635 53.0322C104.073 53.9389 104.741 54.7151 105.572 55.2838Z" fill="#AE9A63"/>
<path d="M136.668 85.0882C134.773 83.6238 133.309 80.5227 133.309 77.1633C133.309 72.5117 135.635 68.8939 138.822 68.6354C139.511 68.5493 140.372 68.7216 141.062 69.0661C140.2 68.4632 139.166 68.1186 138.133 68.2047C135.032 68.4632 132.62 72.081 132.62 76.7326C132.62 80.5227 134.429 83.8822 136.668 85.0882ZM148.039 82.4178V68.7216V68.2909C148.039 67.774 148.125 66.9126 148.383 66.1374H149.245C148.814 67.0849 148.728 68.1186 148.728 68.7216V82.8485C148.728 82.8485 148.9 84.6575 150.02 85.1743C150.02 85.1743 148.039 85.4327 148.039 82.4178ZM118.665 68.2909C117.545 67.6879 116.167 67.8602 115.392 68.2047C111.86 69.4107 109.879 73.9761 109.793 77.594C109.707 80.4366 110.654 83.7961 113.324 85.5189C110.137 83.8822 109.104 80.2643 109.104 77.2494C109.276 73.5454 111.257 69.0661 114.703 67.774C115.564 67.5156 116.339 67.3433 117.028 67.5156C117.028 67.4295 117.89 67.6018 118.665 68.2909ZM174.225 47.1866C173.881 48.3064 172.761 49.5124 171.21 49.4262L170.349 49.254C170.694 49.5124 171.124 49.7708 171.9 49.7708C173.364 49.8569 174.57 48.7371 174.828 47.6173C175.173 46.0668 173.967 44.5163 172.589 43.8271C173.622 44.6024 174.484 45.8945 174.225 47.1866ZM169.918 76.1296C175.001 75.3543 178.016 71.7365 177.929 68.8077C177.929 67.4295 177.24 66.4819 176.034 65.879C176.81 66.4819 177.24 67.3433 177.326 68.377C177.326 71.3058 174.312 75.0098 169.229 75.6989C169.229 75.6989 168.626 76.1296 169.918 76.1296ZM161.649 72.5979V56.5759C161.649 53.1303 161.563 46.6698 165.181 45.4638C166.473 45.0331 167.248 45.2915 167.765 45.8084C167.334 45.6361 166.731 45.6361 165.87 45.8945C162.166 47.1005 162.252 53.561 162.338 57.0066V71.7365L161.649 72.5979ZM177.843 86.9832L177.326 86.4664C176.12 85.1743 175.001 83.5376 174.139 81.7287L172.589 79.0584C172.072 78.4554 171.383 77.7663 170.694 77.4217L171.9 78.6277L173.45 81.3841C174.312 83.1931 175.431 84.7436 176.551 86.0357C176.982 86.4664 177.413 86.7248 177.843 86.9832ZM142.095 67.9463C142.181 68.2047 142.44 68.2909 142.698 68.2909C142.267 67.6018 141.665 67.0849 140.889 66.7404C141.406 67.0849 141.837 67.5156 142.095 67.9463ZM162.855 72.5117L161.735 73.9761L161.649 74.2345V86.8971C161.649 88.5338 160.615 88.706 160.443 88.706H155.275L155.102 89.1367H161.132C161.304 89.1367 162.338 88.9645 162.338 87.3278V74.6652L162.424 74.3207C163.975 71.9949 167.506 68.377 170.608 67.8602C171.383 67.6879 172.158 67.774 172.761 68.0325C171.986 67.4295 171.038 67.2572 169.918 67.4295C168.023 67.774 165.956 69.2384 164.319 70.8751L162.855 72.5117Z" fill="#0069B4"/>
<path d="M123.834 69.9275C124.178 71.2196 124.092 72.5117 123.747 73.5454C123.403 74.7513 122.8 75.785 122.025 76.5603C120.56 78.0246 118.751 78.6276 117.201 79.0583C115.22 79.5752 113.669 79.489 112.635 79.2306L112.377 79.3167C113.411 79.7474 115.133 80.1781 117.89 79.489C119.44 79.0583 121.249 78.4553 122.628 76.991C123.489 76.2157 124.006 75.182 124.437 73.9761C124.781 72.9424 124.781 71.5641 124.437 70.3582C124.092 69.0661 123.058 67.774 121.938 67.0849L121.594 66.9126C122.628 67.6878 123.489 68.8077 123.834 69.9275ZM175.173 88.8783L173.881 88.4476C174.484 88.8783 175.173 89.1367 175.862 89.2228C178.016 89.5674 179.48 89.1367 180.514 88.0169L180.6 87.8446L179.652 87.7584C178.619 88.706 177.154 89.1367 175.173 88.8783ZM129.519 83.1069C129.433 82.9346 129.174 82.7623 129.002 82.7623L128.399 82.9346L128.313 83.1069C125.04 87.2416 121.163 89.309 116.77 89.309C113.841 89.309 111.257 88.706 109.276 87.5C111.429 88.9644 114.186 89.7397 117.459 89.7397C121.852 89.7397 125.815 87.5862 129.088 83.3653L129.519 83.193V83.1069ZM155.016 84.6574C155.016 84.4851 154.844 84.3128 154.758 84.3128C154.499 84.2267 154.241 84.2267 154.069 84.4851C152.174 86.4663 150.192 87.8446 148.211 88.5337C147.522 88.7921 146.402 89.0505 145.369 88.6198C146.488 89.5674 148.039 89.2228 148.9 88.9644C150.881 88.2753 152.777 86.897 154.758 84.8297L155.016 84.6574ZM143.215 84.1406C143.043 84.2267 142.87 84.3128 142.784 84.5713C142.612 85.0881 140.631 90.2565 135.635 89.0505C134.773 88.8783 134.084 88.5337 133.395 88.0169C133.912 88.2753 134.429 88.5337 135.032 88.6198C139.339 89.7397 141.406 85.8634 141.923 84.4851C142.009 84.4851 142.526 83.3653 143.215 84.1406ZM100.92 35.2131C95.0628 35.9022 89.8944 38.228 86.2766 41.7597C84.2092 43.8271 82.831 46.0667 82.1418 48.3064C81.5389 50.546 82.0557 53.4748 84.4676 54.6807V54.5946H84.3815C82.6587 53.2163 82.3141 50.7183 82.831 48.7371C83.4339 46.4974 84.8983 44.2578 86.9657 42.1904C90.5836 38.6587 95.7519 36.3329 101.609 35.6438C104.797 35.2993 108.501 35.8161 111.688 37.4527C108.415 35.4715 104.366 34.8686 100.92 35.2131ZM105.572 44.6024C102.988 45.2915 101.523 47.7034 101.265 50.0292L101.179 50.8044C101.218 52.0378 101.551 53.244 102.15 54.3228C102.75 55.4015 103.598 56.3216 104.624 57.0065C103.505 56.4897 102.557 55.7144 101.868 54.5946C101.007 53.3521 100.528 51.885 100.49 50.3737L100.576 49.6846C100.834 47.3588 102.557 44.7746 105.227 44.0855C105.227 44.0855 105.916 44.4301 105.572 44.6024ZM124.006 45.2053C123.058 41.0706 119.613 37.7973 115.995 35.73C119.354 37.7973 122.455 40.8983 123.403 44.7746C123.747 46.3252 123.834 48.048 123.661 49.5123C123.058 53.4748 120.646 56.9204 117.115 59.0739C115.092 60.3716 112.768 61.1249 110.368 61.2607C107.969 61.3965 105.575 60.9103 103.418 59.8491C106.519 61.6581 110.396 62.1749 114.358 60.9689C115.736 60.6244 116.942 59.9353 117.804 59.4184C121.335 57.3511 123.661 53.9055 124.264 49.943C124.523 48.4787 124.437 46.6697 124.006 45.2053ZM100.576 57.7818C100.404 57.6095 100.145 57.5233 99.8867 57.6956C99.6282 57.7818 99.5421 57.954 99.5421 58.2125V77.5939C99.5421 83.4514 95.4935 86.8109 92.9955 88.2753C88.9469 90.7733 84.2092 91.204 82.228 90.2565L82.831 90.6011C84.8122 91.6347 89.5499 91.204 93.7707 88.6198C96.1826 87.2416 100.231 83.8821 100.231 78.0246V58.6432C100.231 58.3847 100.317 58.2125 100.576 58.0402H100.834L100.576 57.7818ZM83.9508 59.5046C86.0181 59.5907 88.2578 58.4709 89.3776 56.9204C89.8083 56.3174 90.1529 55.5421 90.1529 54.5084L90.0667 53.9916L89.4637 54.5084C89.3776 55.2837 89.033 55.9728 88.6885 56.4897C88.0604 57.3331 87.2407 58.0151 86.2972 58.4794C85.3536 58.9437 84.3131 59.177 83.2617 59.16C82.228 59.0739 81.2804 58.9016 80.5913 58.557L80.2468 58.2986L81.2804 58.9877C81.9696 59.2461 82.9171 59.4184 83.9508 59.5046Z" fill="#0069B4"/>
<path d="M85.4151 86.2942C85.6736 87.0695 86.1043 87.9309 86.9657 88.1893C86.535 87.8447 86.2766 87.2417 86.1043 86.7249C85.6736 85.8635 85.329 85.0882 84.4676 84.7437C84.8983 85.1744 85.1567 85.6912 85.4151 86.2942Z" fill="#0069B4"/>
</g>
<defs>
<clipPath id="clip0_3_333">
<rect width="133" height="110.001" fill="white" transform="translate(65 21)"/>
</clipPath>
</defs>
</svg>
