<svg width="263" height="153" viewBox="0 0 263 153" fill="none" xmlns="http://www.w3.org/2000/svg">
<rect width="263" height="153" rx="5" fill="white"/>
<g clip-path="url(#clip0_3_313)">
<path fill-rule="evenodd" clip-rule="evenodd" d="M176.99 58.3856C176.99 57.136 175.88 56.0256 174.491 56.0256H171.016C169.627 56.0256 168.515 57.136 168.515 58.3856L168.656 95.6256C168.653 95.9363 168.712 96.2444 168.83 96.532C168.948 96.8196 169.121 97.0809 169.341 97.3006C169.561 97.5203 169.822 97.694 170.11 97.8116C170.397 97.9292 170.705 97.9884 171.016 97.9856H174.491C175.88 97.9856 176.99 96.8752 176.99 95.6256V58.3856Z" fill="#005695"/>
<path fill-rule="evenodd" clip-rule="evenodd" d="M181.438 59.4976V61.16C181.438 61.992 181.995 62.5488 182.827 62.5488H207.282C207.829 62.5346 208.35 62.3109 208.737 61.9239C209.124 61.5368 209.347 61.0159 209.362 60.4688V57.552C209.362 56.44 208.389 55.3296 207.282 55.472C207.282 55.472 183.661 57.832 182.827 57.9712C181.994 57.9712 181.438 58.6656 181.438 59.4992V59.4976Z" fill="#005695"/>
<path fill-rule="evenodd" clip-rule="evenodd" d="M161.568 97.9856C155.454 97.9856 151.702 93.4016 151.702 88.2608V73.392H149.896C149.062 73.392 148.227 72.5584 148.227 71.7248V69.2224C148.235 68.7827 148.413 68.3633 148.725 68.0529C149.036 67.7426 149.456 67.5658 149.896 67.56H151.702V58.3856C151.7 58.0747 151.759 57.7664 151.877 57.4786C151.994 57.1908 152.168 56.9294 152.388 56.7095C152.608 56.4897 152.869 56.3158 153.157 56.1981C153.445 56.0804 153.753 56.0212 154.064 56.024H157.538C158.787 56.024 159.76 57.1344 159.76 58.3856V67.56H165.179C165.4 67.5515 165.62 67.5886 165.825 67.6692C166.031 67.7497 166.217 67.8719 166.373 68.028C166.529 68.1841 166.651 68.3708 166.731 68.5764C166.812 68.7819 166.849 69.0019 166.84 69.2224V71.72C166.834 72.1604 166.657 72.5811 166.345 72.8925C166.034 73.2039 165.613 73.3814 165.173 73.3872H159.76V87.1472C159.76 89.7856 161.429 91.7328 164.346 91.7328H164.902C165.142 91.725 165.38 91.7664 165.603 91.8545C165.825 91.9425 166.028 92.0753 166.197 92.2446C166.366 92.4139 166.499 92.6161 166.587 92.8388C166.675 93.0615 166.717 93.2999 166.709 93.5392V96.1792C166.701 96.6557 166.508 97.1104 166.171 97.4474C165.834 97.7844 165.379 97.9774 164.902 97.9856H161.568Z" fill="#005695"/>
<path fill-rule="evenodd" clip-rule="evenodd" d="M119.883 82.2799C119.883 74.3615 115.16 66.4399 104.461 66.4399C94.5952 66.4399 89.176 74.2191 89.176 82.2799C89.176 90.8943 95.0112 98.5375 104.598 98.5375C111.13 98.5375 117.522 95.2031 118.771 89.5071C118.91 88.8127 118.355 87.7007 117.381 87.7007H112.658C112.264 87.6966 111.876 87.7973 111.534 87.9924C111.193 88.1876 110.909 88.4701 110.712 88.8111C109.322 90.7599 107.378 91.7344 104.6 91.7344C100.432 91.7344 97.6528 88.5343 97.3744 84.9263H117.24C119.048 84.9263 119.882 83.9535 119.882 82.2847L119.883 82.2799ZM97.512 78.9519C97.7904 75.4783 100.846 72.8383 104.461 72.8383C108.213 72.8383 111.269 75.4783 111.686 78.9519H97.512Z" fill="#005695"/>
<path fill-rule="evenodd" clip-rule="evenodd" d="M210.2 82.2799C210.2 74.3615 205.477 66.4399 194.776 66.4399C184.91 66.4399 179.493 74.2191 179.493 82.2799C179.493 90.8943 185.33 98.5375 194.917 98.5375C201.446 98.5375 207.837 95.2031 209.088 89.5071C209.229 88.8127 208.67 87.7007 207.699 87.7007H202.976C202.582 87.6965 202.194 87.7971 201.852 87.9923C201.51 88.1874 201.226 88.47 201.029 88.8111C199.64 90.7599 197.694 91.7344 194.776 91.7344C190.747 91.7344 187.968 88.5343 187.69 84.9263H207.56C209.366 84.9263 210.2 83.9535 210.2 82.2847V82.2799ZM187.83 78.9519C188.107 75.4783 191.16 72.8399 194.776 72.8399C198.528 72.8399 201.586 75.4799 201.864 78.9535L187.83 78.9519Z" fill="#005695"/>
<path fill-rule="evenodd" clip-rule="evenodd" d="M145.034 56.44H80.8384C80.4918 56.44 80.1486 56.5083 79.8283 56.641C79.5081 56.7737 79.2172 56.9682 78.9722 57.2134C78.7272 57.4585 78.5329 57.7496 78.4004 58.0699C78.2679 58.3902 78.1998 58.7334 78.2 59.08L78.3376 84.3696C78.3376 84.3696 64.5776 59.3584 63.8864 58.1072C63.4615 57.3829 62.8533 56.7833 62.123 56.3687C61.3927 55.9541 60.5661 55.7392 59.7264 55.7456H54.4464C54.099 55.7446 53.7548 55.8121 53.4335 55.9445C53.1123 56.0768 52.8203 56.2712 52.5745 56.5167C52.3286 56.7621 52.1336 57.0537 52.0007 57.3747C51.8678 57.6957 51.7996 58.0398 51.8 58.3872V95.3472C51.8 96.8752 52.92 97.9872 54.44 97.9872H57.7744C59.3024 97.9872 60.4144 96.8752 60.4144 95.3472L60.28 69.504C60.28 69.504 74.1744 94.6528 74.8704 95.6256C75.5648 97.0144 76.9504 97.9872 78.8992 97.9872H83.7616C85.2896 97.9872 86.4016 96.8752 86.4016 95.3472V62.696H145.034C145.51 62.6874 145.964 62.4943 146.301 62.1574C146.638 61.8205 146.831 61.366 146.84 60.8896V58.248C146.832 57.7715 146.64 57.3166 146.303 56.9793C145.966 56.642 145.512 56.4487 145.035 56.44H145.034Z" fill="#005695"/>
<path fill-rule="evenodd" clip-rule="evenodd" d="M134.611 72.5584C137.39 72.5584 139.475 73.5313 140.309 75.3361C140.587 76.1713 141.282 76.3105 142.254 76.3105H146.146C146.702 76.3105 147.534 75.7537 147.534 74.9217C147.534 70.4753 142.115 66.4417 134.613 66.4417C126.84 66.4401 121.691 70.1952 121.691 76.0401C121.691 80.6257 125.304 83.2673 129.611 84.5201C131.691 84.9377 135.168 85.7696 136.835 86.3264C138.502 86.744 140.17 87.2992 140.17 88.8272C140.17 91.328 137.669 92.0272 134.75 92.0272C132.11 92.0272 129.47 90.9073 128.776 88.9713C128.36 87.8513 127.525 87.7217 126.414 87.7217H122.52C121.826 87.7217 120.992 88.4144 120.992 89.248V89.8049C120.992 94.1121 126.829 98.5584 134.886 98.5584C140.445 98.5584 148.365 96.1969 148.365 88.6913C148.365 84.2449 145.446 81.1905 140.584 79.9409C138.776 79.5233 134.331 78.2721 133.358 78.1313C131.55 77.5761 129.885 77.0209 129.885 75.6321C129.885 73.2705 131.965 72.5744 134.608 72.5744L134.611 72.5584Z" fill="#005695"/>
</g>
<defs>
<clipPath id="clip0_3_313">
<rect width="160" height="44" fill="white" transform="translate(51 55)"/>
</clipPath>
</defs>
</svg>
