<svg width="263" height="153" viewBox="0 0 263 153" fill="none" xmlns="http://www.w3.org/2000/svg">
<rect width="263" height="153" rx="5" fill="white"/>
<path d="M203.971 53.127H59.029V96.345H203.971V53.127Z" fill="#3E4095"/>
<path d="M79.6223 74.3083C79.6223 76.3418 79.0886 77.9877 78.0214 79.246C76.8797 80.5828 75.3054 81.2506 73.2983 81.2497C72.9622 81.2497 72.456 81.2305 71.7798 81.1923C71.1036 81.1541 70.5974 81.1355 70.2613 81.1365C69.9007 81.1365 69.7203 81.2918 69.7203 81.6025C69.7203 81.9886 69.7581 82.5638 69.8335 83.3282C69.909 84.0926 69.9467 84.6635 69.9467 85.0408C69.9467 85.2368 69.8585 85.3348 69.6821 85.3348C69.1706 85.3348 68.4017 85.3186 67.3772 85.2907C66.3526 85.2628 65.5838 85.2466 65.0707 85.2466C65.021 85.2535 64.9703 85.2488 64.9227 85.2327C64.8751 85.2166 64.8319 85.1897 64.7965 85.154C64.7611 85.1184 64.7345 85.075 64.7189 85.0272C64.7032 84.9795 64.6988 84.9288 64.7062 84.8791C64.7062 83.9471 64.7209 82.5467 64.7503 80.6778C64.7797 78.809 64.7944 77.4085 64.7944 76.4766C64.7944 73.8394 64.6812 71.0679 64.4548 68.1622L64.4416 67.9858C64.4239 67.8256 64.5503 67.7301 64.8194 67.6918C65.475 67.6076 66.9195 67.5654 69.1529 67.5654C70.471 67.5654 71.7352 67.5821 72.9455 67.6154C74.9359 67.6742 76.5397 68.2999 77.7568 69.4926C79.0004 70.7205 79.6223 72.3258 79.6223 74.3083ZM74.5949 74.5097C74.5949 72.5497 73.6418 71.5697 71.7357 71.5697C70.3921 71.5697 69.6865 71.6452 69.6189 71.7961C69.5601 71.9068 69.5307 72.877 69.5307 74.7067C69.5307 74.9669 69.541 75.352 69.563 75.8592C69.5851 76.3663 69.5939 76.7515 69.5939 77.0117C69.5939 77.1812 70.35 77.2655 71.8621 77.2645C73.6839 77.2674 74.5949 76.3492 74.5949 74.5097Z" fill="white"/>
<path d="M110.426 71.6754C110.426 71.768 110.342 71.8136 110.173 71.8136C109.544 71.8136 108.589 71.7592 107.308 71.6504C106.027 71.5416 105.068 71.4867 104.43 71.4858C103.622 71.4858 103.152 71.5152 103.019 71.574C102.707 71.721 102.553 72.1208 102.553 72.7838C102.553 73.5815 102.754 74.0347 103.157 74.1435C103.41 74.1939 103.668 74.2151 103.926 74.2067C104.505 74.2067 105.372 74.1754 106.526 74.1127C107.681 74.0499 108.548 74.0186 109.128 74.0186C109.405 74.0186 109.544 74.7575 109.544 76.2353C109.544 77.5201 109.498 78.2679 109.406 78.4786C109.382 78.5485 109.335 78.6086 109.274 78.6495C109.212 78.6905 109.139 78.7099 109.065 78.7049C109.174 78.7049 108.909 78.6755 108.271 78.6167C107.372 78.5334 106.012 78.4913 104.19 78.4903C103.602 78.4903 103.271 78.4947 103.195 78.5036C102.766 78.5697 102.553 78.7505 102.553 79.0445C102.553 80.2362 102.602 81.6082 102.7 83.1605C102.784 84.5629 102.826 85.1881 102.826 85.0362C102.826 85.2558 102.562 85.3822 102.032 85.4155C102.175 85.4067 101.801 85.4023 100.912 85.4023C99.3443 85.4023 98.3319 85.3479 97.8753 85.2391C97.6312 85.1803 97.5107 85.0495 97.5107 84.8481C97.5107 83.9161 97.5421 82.5157 97.6048 80.6468C97.6675 78.778 97.6988 77.3775 97.6988 76.4455C97.6988 75.3372 97.6498 73.9431 97.5518 72.2634C97.4019 69.6674 97.3225 68.2728 97.3137 68.0798L97.3005 67.9328C97.2917 67.724 97.4181 67.6182 97.6783 67.6182C98.2996 67.6182 99.2379 67.6309 100.493 67.6564C101.749 67.6819 102.691 67.6946 103.322 67.6946C103.993 67.6946 105.003 67.6456 106.351 67.5476C107.7 67.4496 108.71 67.4006 109.381 67.4006C109.801 67.4006 110.037 67.5726 110.087 67.9166C110.087 68.2782 110.104 68.8202 110.138 69.5424C110.154 69.7276 110.209 70.0834 110.301 70.6126C110.372 70.9628 110.414 71.3183 110.426 71.6754Z" fill="white"/>
<path d="M123.364 78.4021C123.364 79.2498 123.091 79.7329 122.545 79.8515C122.453 79.8672 121.583 79.9593 119.937 80.1279C118.946 80.2366 117.468 80.367 115.503 80.5189C115.62 81.0638 115.977 81.4793 116.574 81.7654C117.094 82.0079 117.662 82.1286 118.236 82.1182C119.026 82.1072 119.801 81.8996 120.491 81.5141L121.45 80.9084C121.626 80.9937 121.92 81.4224 122.332 82.1947C122.746 82.9664 122.955 83.4589 122.955 83.6647C122.955 83.7235 122.892 83.8205 122.765 83.9587C121.745 85.0621 120.156 85.6139 117.997 85.6139C115.999 85.6139 114.387 85.0303 113.16 83.8631C111.901 82.6783 111.271 81.0932 111.27 79.1077C111.27 77.1761 111.832 75.5929 112.957 74.3581C114.117 73.0841 115.654 72.4471 117.569 72.4471C118.339 72.4358 119.103 72.587 119.811 72.891C120.518 73.1949 121.154 73.6448 121.676 74.2111C122.22 74.7633 122.65 75.4181 122.94 76.1375C123.229 76.8569 123.373 77.6266 123.364 78.4021ZM118.954 77.6333C118.956 77.1206 118.757 76.6274 118.399 76.2603C118.233 76.0743 118.029 75.9257 117.801 75.8243C117.573 75.723 117.326 75.6711 117.076 75.6723C116.82 75.6701 116.567 75.7298 116.339 75.8462C116.111 75.9627 115.914 76.1325 115.765 76.3412C115.445 76.7552 115.277 77.2661 115.287 77.7891C115.282 77.8363 115.287 77.8842 115.303 77.9291C115.318 77.9739 115.345 78.0145 115.379 78.0476C115.413 78.0806 115.454 78.1053 115.5 78.1196C115.545 78.1339 115.593 78.1375 115.64 78.1301C116.611 78.0962 117.579 77.998 118.538 77.8361C118.815 77.7935 118.955 77.7259 118.955 77.6333H118.954Z" fill="white"/>
<path d="M129.335 77.6583C129.335 79.9515 129.343 81.7111 129.36 82.9371C129.36 83.1311 129.373 83.4618 129.398 83.9322C129.423 84.3615 129.436 84.6922 129.436 84.9274C129.436 85.1038 129.33 85.2097 129.122 85.2435C128.444 85.3269 127.762 85.3603 127.08 85.3434C126.072 85.3434 125.43 85.3101 125.153 85.2435C125.069 85.2302 124.993 85.1893 124.936 85.1275C124.879 85.0656 124.845 84.9863 124.838 84.9024V84.3615C124.838 83.6137 124.846 82.4946 124.863 81.004C124.88 79.5134 124.888 78.3982 124.888 77.6583C124.888 74.1303 124.892 72.5221 124.901 72.8337C124.895 71.2291 124.791 69.6263 124.591 68.0342C124.577 67.9634 124.569 67.8917 124.566 67.8196C124.566 67.6358 124.675 67.5432 124.894 67.5432H129.392C129.601 67.5432 129.698 67.6314 129.686 67.8078L129.673 68.0342C129.447 71.6622 129.335 74.8702 129.335 77.6583Z" fill="white"/>
<path d="M144.301 78.9446C144.301 79.5914 144.339 80.5528 144.414 81.8288C144.489 83.1047 144.528 84.0622 144.529 84.7011C144.529 85.0378 144.382 85.2171 144.088 85.2436C143.045 85.3181 141.852 85.3558 140.51 85.3568C140.349 85.3568 140.242 85.1142 140.188 84.6321C140.133 84.1499 140.069 83.8971 139.992 83.8971C139.894 83.9549 139.805 84.0267 139.728 84.1102C138.788 85.0598 137.78 85.5346 136.705 85.5346C135.068 85.5346 133.711 84.8878 132.636 83.5942C131.619 82.3839 131.111 80.9394 131.112 79.2607C131.112 77.3203 131.637 75.7582 132.686 74.5743C133.779 73.3483 135.274 72.7354 137.171 72.7354C138.489 72.7354 139.531 73.1969 140.295 74.1201C140.329 74.1627 140.358 74.1833 140.383 74.1833C140.46 74.1833 140.545 73.9804 140.642 73.5732C140.739 73.1661 140.854 72.9617 140.987 72.9617C141.586 73.0016 142.18 73.0901 142.765 73.2263C143.368 73.3383 143.965 73.4811 144.554 73.6541C144.679 73.7056 144.742 73.7717 144.742 73.8555C144.735 73.9444 144.723 74.0327 144.705 74.1201C144.43 75.7134 144.294 77.3277 144.301 78.9446ZM140.245 79.0196C140.255 78.6955 140.201 78.3727 140.085 78.0698C139.969 77.767 139.794 77.4902 139.57 77.2556C139.096 76.808 138.469 76.5586 137.817 76.5586C137.165 76.5586 136.537 76.808 136.063 77.2556C135.626 77.7412 135.387 78.3733 135.394 79.0268C135.4 79.6802 135.652 80.3072 136.1 80.7836C136.32 81.0167 136.588 81.2007 136.884 81.3238C137.181 81.4469 137.5 81.5063 137.821 81.498C138.145 81.5096 138.469 81.4535 138.77 81.3333C139.071 81.2131 139.344 81.0314 139.572 80.7998C139.797 80.5629 139.973 80.2834 140.088 79.9777C140.204 79.672 140.257 79.3462 140.245 79.0196Z" fill="white"/>
<path d="M152.314 82.4843C152.32 82.8788 152.247 83.2706 152.099 83.6363C151.951 84.002 151.73 84.3341 151.451 84.6128C151.181 84.8972 150.856 85.1225 150.495 85.2743C150.134 85.4262 149.745 85.5013 149.353 85.4948C148.962 85.5024 148.574 85.4279 148.214 85.2759C147.853 85.124 147.529 84.8981 147.261 84.6128C146.712 84.0437 146.406 83.2838 146.406 82.4931C146.406 81.7023 146.712 80.9424 147.261 80.3733C147.534 80.0941 147.86 79.8722 148.22 79.7207C148.579 79.5692 148.966 79.4912 149.356 79.4912C149.746 79.4912 150.133 79.5692 150.493 79.7207C150.852 79.8722 151.178 80.0941 151.451 80.3733C151.729 80.6493 151.949 80.9785 152.097 81.3411C152.245 81.7037 152.319 82.0925 152.314 82.4843Z" fill="white"/>
<path d="M162.392 76.9543C162.383 76.9543 162.129 76.8867 161.629 76.7514C161.234 76.6338 160.825 76.5662 160.413 76.5501C159.667 76.5501 159.07 76.775 158.624 77.2248C158.179 77.6746 157.957 78.2729 157.96 79.0197C157.96 79.7929 158.205 80.3995 158.695 80.8395C159.185 81.2795 159.819 81.5 160.597 81.501C161.028 81.488 161.451 81.3916 161.845 81.2173C162.069 81.1364 162.287 81.0422 162.499 80.9351C162.641 80.9351 162.826 81.4682 163.054 82.5344C163.25 83.5085 163.348 84.1553 163.348 84.4748C163.348 84.7943 162.826 85.0672 161.782 85.2936C161.142 85.4486 160.487 85.5373 159.828 85.5582C157.982 85.5582 156.458 84.9364 155.257 83.6928C154.055 82.4492 153.452 80.8998 153.447 79.0446C153.447 77.2062 154.05 75.6587 155.255 74.4024C156.461 73.146 157.983 72.5183 159.821 72.5193C160.973 72.4948 162.111 72.7725 163.123 73.3249C163.34 73.4425 163.45 73.5571 163.45 73.6659C163.45 73.7747 163.324 74.2701 163.073 75.1521C162.837 76.0008 162.684 76.5133 162.613 76.6897C162.541 76.8661 162.467 76.9543 162.392 76.9543Z" fill="white"/>
<path d="M176.904 79.0445C176.904 80.9604 176.316 82.5142 175.14 83.7058C173.964 84.8975 172.425 85.4939 170.523 85.4948C168.675 85.4948 167.156 84.9068 165.966 83.7308C164.775 82.5548 164.179 81.0432 164.177 79.1959C164.177 77.2476 164.747 75.6664 165.889 74.4522C167.031 73.238 168.576 72.6313 170.526 72.6323C172.424 72.6323 173.961 73.2267 175.137 74.4154C176.313 75.6042 176.902 77.1472 176.904 79.0445ZM172.772 79.0445C172.78 78.4044 172.561 77.782 172.154 77.2878C171.966 77.044 171.724 76.8479 171.446 76.7154C171.168 76.5829 170.863 76.5176 170.555 76.5249C170.24 76.5189 169.928 76.5865 169.644 76.7223C169.359 76.858 169.111 77.0582 168.917 77.3069C168.526 77.804 168.313 78.4184 168.313 79.0511C168.313 79.6838 168.526 80.2981 168.917 80.7952C169.114 81.0393 169.362 81.2363 169.644 81.3717C169.927 81.507 170.236 81.5773 170.549 81.5773C170.862 81.5773 171.171 81.507 171.454 81.3717C171.736 81.2363 171.985 81.0393 172.181 80.7952C172.578 80.2995 172.787 79.6795 172.772 79.0445Z" fill="white"/>
<path d="M198.56 84.7777C198.56 85.0717 198.434 85.2348 198.182 85.2687C197.931 85.3025 197.309 85.3186 196.318 85.3186C195.292 85.3186 194.655 85.2936 194.407 85.2437C194.159 85.1937 194.033 84.9879 194.029 84.6263C194.029 84.2402 194.042 83.6624 194.068 82.8931C194.093 82.1238 194.105 81.5466 194.104 81.1615C194.104 79.6915 194.088 78.6458 194.054 78.0245C194.004 77.0249 193.53 76.5251 192.631 76.5251C192.239 76.5251 191.847 76.6912 191.455 77.0234C191.066 77.3542 190.848 77.7217 190.807 78.1259C190.773 78.4787 190.756 79.5117 190.757 81.2247C190.757 81.6167 190.769 82.215 190.794 83.0196C190.818 83.8241 190.831 84.4268 190.832 84.8277C190.832 85.104 190.71 85.2437 190.468 85.2437H186.646C186.41 85.2437 186.293 85.0717 186.293 84.7262C186.293 84.3342 186.306 83.7423 186.331 82.9505C186.357 82.1586 186.369 81.5623 186.368 81.1615C186.368 80.8513 186.36 80.3809 186.343 79.7503C186.325 79.1196 186.318 78.6463 186.318 78.3273C186.318 77.1268 185.86 76.5261 184.945 76.5251C184.512 76.5462 184.096 76.6956 183.748 76.9543C183.278 77.265 183.043 77.5923 183.043 77.9363C183.043 78.7007 183.047 79.8429 183.054 81.3629C183.062 82.8828 183.067 84.0211 183.068 84.7777C183.068 84.9864 183.043 85.1172 182.993 85.1672C182.875 85.2375 182.739 85.2727 182.602 85.2687C182.223 85.301 181.627 85.3177 180.813 85.3186C180.283 85.3186 179.683 85.2936 179.012 85.2437C178.886 85.2482 178.761 85.2176 178.652 85.1555C178.6 85.0367 178.581 84.9063 178.596 84.7777C178.596 84.1044 178.6 83.0985 178.608 81.7598C178.615 80.4211 178.62 79.4156 178.621 78.7433C178.609 77.1889 178.508 75.6365 178.318 74.0937C178.304 74.019 178.296 73.9433 178.293 73.8673C178.287 73.8058 178.3 73.7439 178.332 73.6909C178.364 73.6378 178.412 73.5966 178.469 73.5733C178.809 73.4675 179.16 73.4038 179.515 73.3837C180.145 73.3249 180.519 73.2882 180.636 73.2705C180.72 73.2539 181.051 73.1657 181.631 73.0059C181.954 72.9033 182.289 72.844 182.627 72.8295C182.786 72.8295 182.87 73.1235 182.878 73.7115C182.886 74.2995 182.92 74.5935 182.979 74.5935C183.086 74.5494 183.185 74.49 183.273 74.4171C183.832 73.961 184.431 73.5566 185.062 73.2088C185.719 72.8954 186.438 72.7361 187.166 72.7428C187.888 72.7304 188.601 72.9084 189.233 73.2588C189.551 73.4272 189.832 73.6578 190.059 73.9368C190.286 74.2158 190.455 74.5376 190.556 74.8831C191.044 74.2417 191.674 73.7208 192.395 73.3602C193.093 72.9706 193.876 72.7586 194.675 72.7428C195.783 72.7428 196.686 72.9986 197.383 73.5101C198.171 74.0903 198.566 74.9179 198.567 75.993C198.567 76.4379 198.555 77.1077 198.529 78.0024C198.504 78.8972 198.491 79.5665 198.492 80.0105C198.492 80.5397 198.505 81.3354 198.529 82.3977C198.554 83.4601 198.564 84.2534 198.56 84.7777Z" fill="white"/>
<path d="M97.3666 78.6799C96.9334 80.4156 95.9952 81.9838 94.6707 83.1862C93.3463 84.3887 91.6949 85.1714 89.9256 85.4354C88.1563 85.6994 86.3485 85.4328 84.7307 84.6693C83.1129 83.9058 81.7578 82.6797 80.8368 81.1461C79.9158 79.6125 79.4703 77.8403 79.5565 76.0534C79.6428 74.2666 80.2569 72.5455 81.3213 71.1077C82.3858 69.6699 83.8526 68.5801 85.5364 67.976C87.2202 67.3718 89.0453 67.2806 90.781 67.7137C91.9338 68.001 93.0186 68.5126 93.9736 69.2192C94.9286 69.9258 95.7351 70.8137 96.3469 71.832C96.9587 72.8504 97.3639 73.9793 97.5394 75.1543C97.7149 76.3292 97.6572 77.5273 97.3696 78.6799H97.3666Z" fill="#F7931A"/>
<path d="M92.5803 75.202C92.7596 73.998 91.8453 73.3512 90.5899 72.919L90.9956 71.2873L90.0034 71.0404L89.605 72.628C89.3433 72.5633 89.0758 72.5016 88.8097 72.4413L89.2081 70.8434L88.2159 70.595L87.8087 72.2252C87.5926 72.1767 87.3809 72.1282 87.1751 72.0782L85.8051 71.7357L85.5405 72.7956C85.5405 72.7956 86.2755 72.9646 86.2622 72.9749C86.665 73.0763 86.737 73.3424 86.7253 73.5526L86.2622 75.4107C86.2972 75.4199 86.3315 75.4312 86.3651 75.4445L86.2593 75.418L85.611 78.0214C85.5817 78.113 85.5172 78.1891 85.4318 78.2332C85.3464 78.2773 85.2469 78.2857 85.1553 78.2566C85.1656 78.2713 84.4336 78.0773 84.4336 78.0773L83.9411 79.2136L85.2332 79.5355C85.4728 79.5958 85.7095 79.659 85.9403 79.7178L85.5302 81.3671L86.5224 81.6156L86.9281 79.9824C87.2001 80.0559 87.4632 80.1294 87.7205 80.1882L87.3147 81.8126L88.307 82.0595L88.7186 80.4131C90.4106 80.7336 91.6836 80.6042 92.2201 79.0739C92.6523 77.8406 92.1981 77.1291 91.3073 76.6661C91.957 76.5191 92.4451 76.0898 92.5759 75.2078L92.5803 75.202ZM90.3121 78.383C90.0048 79.6164 87.9292 78.949 87.256 78.7829L87.8013 76.597C88.4746 76.7646 90.6325 77.0968 90.3121 78.383ZM90.6178 75.1843C90.3385 76.3059 88.6113 75.7356 88.0497 75.5959L88.5451 73.6144C89.1052 73.754 90.9104 74.0142 90.6178 75.1843Z" fill="white"/>
</svg>
