<svg width="263" height="153" viewBox="0 0 263 153" fill="none" xmlns="http://www.w3.org/2000/svg">
<rect width="263" height="153" rx="5" fill="white"/>
<path d="M184.02 23.98H77.87V130.13H184.02V23.98Z" fill="#162D4C"/>
<path d="M124.238 39.8738V39.8199H156.248V39.876L124.238 39.8738Z" fill="#E4B935"/>
<path d="M124.238 39.8739H156.248C156.006 41.0377 155.769 42.2026 155.521 43.3653C154.574 47.8144 153.623 52.2621 152.67 56.7083C152.285 58.5156 151.9 60.324 151.511 62.1291C151.461 62.3491 151.483 62.4272 151.731 62.4305C152.611 62.4437 153.491 62.4305 154.371 62.3964C154.801 62.3708 155.233 62.3989 155.657 62.48C156.427 62.6428 156.641 63.1983 156.18 63.844C155.922 64.18 155.587 64.4487 155.203 64.6272C154.335 65.0749 153.396 65.2663 152.44 65.3906C151.969 65.4629 151.493 65.4997 151.017 65.5006C150.832 65.5006 150.785 65.5864 150.754 65.7349C150.46 67.1282 150.165 68.5245 149.866 69.9237L147.15 82.7299C147.095 82.9895 147.04 83.248 146.989 83.5098C146.962 83.6572 146.909 83.7463 146.741 83.7155C146.695 83.7111 146.649 83.7111 146.604 83.7155H115.283C114.905 83.7155 114.906 83.7155 114.987 83.3283C116.555 75.9451 118.122 68.5619 119.689 61.1787C120.039 59.5316 120.389 57.8853 120.741 56.2397C120.772 56.1445 120.766 56.0412 120.724 55.9504C120.256 55.0253 120.108 54.021 120.01 53.0068C119.76 50.4284 120.36 47.9655 121.063 45.5213C121.266 44.8173 122.032 44.3839 122.867 44.4785C123.174 44.5126 123.262 44.429 123.319 44.1386C123.597 42.7482 123.902 41.3633 124.199 39.9762C124.209 39.941 124.222 39.9067 124.238 39.8739ZM135.128 62.6439C135.21 62.6351 135.293 62.6351 135.375 62.6439C136.38 62.8727 136.895 62.2787 137.302 61.5032C137.348 61.4141 137.395 61.3239 137.435 61.2326C137.718 60.5891 137.717 60.588 137.196 60.1326C137.162 60.1004 137.125 60.071 137.086 60.0446C136.859 59.906 136.86 59.7575 136.999 59.5309C137.432 58.8269 138.065 58.2676 138.816 57.9242C139.568 57.5809 140.405 57.4689 141.22 57.6026C141.499 57.6404 141.762 57.7546 141.98 57.9326C142.695 58.5057 143.434 59.0458 144.189 59.5672C144.883 60.06 145.608 60.5086 146.358 60.9103C146.637 61.0555 146.652 61.0489 146.627 60.7497C146.578 60.1843 146.522 59.6193 146.458 59.0546C146.316 57.7852 145.933 56.6159 145.121 55.5962C144.539 54.8658 143.986 54.1123 143.392 53.3907C143.334 53.3286 143.291 53.2541 143.266 53.1728C143.242 53.0916 143.236 53.0059 143.25 52.9221C143.382 51.8815 143.384 51.8749 142.735 51.0521C141.305 49.2393 139.606 47.6861 137.871 46.1747C137.768 46.0972 137.649 46.0452 137.523 46.0229C136.323 45.7277 135.095 45.5592 133.86 45.5202C133.143 45.4872 132.478 45.5664 131.89 46.0064C131.409 46.3661 130.9 46.4255 130.296 46.3254C128.347 46.0009 126.388 45.7347 124.431 45.4575C123.861 45.3772 123.297 45.2375 122.715 45.2661C122.214 45.2892 121.936 45.463 121.81 45.8755C121.186 47.9127 120.71 49.9796 120.779 52.1301C120.815 54.1147 121.472 56.0382 122.658 57.6301C123.978 59.4099 125.764 60.5517 127.807 61.325C130.162 62.2138 132.624 62.5317 135.123 62.6395L135.128 62.6439ZM134.908 76.1442C134.793 76.2201 134.717 76.2707 134.64 76.3191C133.686 76.9175 132.734 77.5181 131.774 78.1077C131.581 78.2265 131.572 78.2881 131.752 78.4377C133.292 79.7082 134.826 80.9886 136.363 82.2646C136.401 82.2976 136.436 82.3537 136.518 82.3152C136.534 82.0314 136.567 81.7399 136.563 81.4484C136.562 81.1193 136.632 80.7939 136.766 80.4936C137.194 79.4728 137.603 78.4443 138.024 77.4202C138.077 77.2946 138.102 77.1585 138.095 77.022C138.058 76.1156 138.022 75.2092 137.995 74.3028C137.99 74.1388 137.94 73.9793 137.851 73.8419C136.878 72.2689 135.913 70.6926 134.937 69.1207C134.894 69.0582 134.866 68.9865 134.855 68.9113C134.844 68.8361 134.851 68.7594 134.875 68.6873C135.038 68.1252 135.186 67.5587 135.347 66.9955C135.408 66.7752 135.427 66.5452 135.402 66.3179C135.345 65.6975 135.292 65.0771 135.249 64.4556C135.237 64.2488 135.179 64.1806 134.96 64.1795C133.503 64.1805 132.05 64.0365 130.622 63.7494C126.903 62.9794 123.905 61.1182 121.767 57.9425C121.724 57.8798 121.703 57.7896 121.588 57.7643C121.576 57.816 121.563 57.8666 121.552 57.9172C120.603 62.4184 119.655 66.9203 118.706 71.423C118.588 71.9851 118.588 71.9917 119.153 72.0511C119.518 72.0896 119.866 72.2062 120.253 72.0654C122.129 71.3911 124.016 70.7509 125.897 70.0854C125.99 70.0425 126.094 70.0266 126.196 70.0394C126.298 70.0522 126.394 70.0933 126.474 70.158C128.971 71.94 131.473 73.7154 133.98 75.4842L134.908 76.1442ZM126.115 71.1315C126.115 72.4779 126.115 73.8056 126.115 75.1344C126.117 75.3611 126.073 75.5858 125.984 75.7944C125.258 77.5225 124.541 79.255 123.813 80.9831C123.771 81.0632 123.751 81.1525 123.755 81.2426C123.758 81.3326 123.785 81.4202 123.832 81.4968C123.986 81.7674 124.123 82.0468 124.249 82.3317C124.273 82.4038 124.32 82.4656 124.383 82.5069C124.447 82.5481 124.523 82.5663 124.598 82.5583C126.349 82.5484 128.099 82.5583 129.849 82.5506C129.925 82.5506 130.012 82.5858 130.094 82.4967C129.933 82.1667 129.778 81.8246 129.604 81.4946C129.515 81.3358 129.488 81.1495 129.529 80.9721C129.958 78.8755 130.376 76.7756 130.812 74.6801C130.856 74.4722 130.812 74.3688 130.647 74.2533C129.211 73.2538 127.778 72.2506 126.347 71.2437C126.284 71.1765 126.198 71.135 126.106 71.1271L126.115 71.1315ZM150.331 64.8021C150.533 64.8021 150.734 64.8087 150.935 64.8021C152.138 64.7537 153.325 64.6052 154.469 64.2092C154.82 64.1041 155.145 63.9227 155.419 63.6779C155.549 63.5536 155.666 63.4073 155.591 63.2192C155.523 63.052 155.342 63.0399 155.19 63.0388C154.824 63.0388 154.455 63.0289 154.09 63.0619C152.545 63.2095 150.986 63.0938 149.48 62.7198C146.8 62.0543 144.412 60.7904 142.204 59.1668C141.917 58.9429 141.575 58.8018 141.214 58.7587C140.183 58.6487 139.287 58.8874 138.621 59.741C138.498 59.8983 138.494 59.9984 138.656 60.1414C139.506 60.895 140.423 61.5705 141.394 62.1599C144.133 63.8297 147.086 64.7999 150.323 64.7977L150.331 64.8021ZM142.132 63.6119C142.161 63.8033 142.187 63.9419 142.201 64.0904C142.246 64.5634 142.402 65.0232 142.354 65.505C142.209 66.9823 141.894 68.4343 141.701 69.905C141.551 71.0501 141.398 72.1963 141.46 73.3535C141.509 74.2885 141.813 75.1311 142.606 75.6866C143.354 76.2102 144.176 76.3697 145.039 75.9242C145.106 75.8959 145.163 75.8469 145.2 75.7845C145.238 75.722 145.255 75.6492 145.248 75.5766C145.245 75.2655 145.214 74.9552 145.157 74.6493C145.119 74.4557 145.056 74.4051 144.847 74.4425C144.07 74.5822 143.537 74.0234 143.689 73.2523C143.822 72.5747 144.091 71.9433 144.349 71.3086C144.974 69.7851 145.718 68.3133 146.368 66.7986C146.534 66.3719 146.636 65.923 146.671 65.4665C146.688 65.3169 146.671 65.2399 146.484 65.2157C146.176 65.1708 145.871 65.1076 145.571 65.0265C144.366 64.7105 143.21 64.2348 142.132 63.6119Z" fill="#DFAC0F"/>
<path d="M135.627 96.4282C135.949 96.4799 136.265 96.5655 136.569 96.6834C137.568 97.1003 138.1 97.8736 138.149 98.9285C138.239 100.877 137.301 102.308 135.752 103.38C134.757 104.066 133.575 104.43 132.366 104.423C130.764 104.435 129.16 104.423 127.556 104.423C127.127 104.423 127.03 104.302 127.116 103.886C128.086 99.1848 129.057 94.4834 130.028 89.782C130.127 89.2991 130.248 89.2045 130.732 89.2045C131.767 89.2045 132.802 89.2045 133.838 89.2045C134.796 89.2045 135.741 89.3145 136.628 89.705C137.589 90.1285 138.311 90.7929 138.414 91.8885C138.561 93.4516 138.034 94.7661 136.775 95.7517C136.416 96.0159 136.032 96.2426 135.627 96.4282ZM131.384 102.646V102.63C131.723 102.63 132.061 102.644 132.399 102.63C134.026 102.552 135.093 101.614 135.387 100.014C135.624 98.714 134.993 97.8142 133.696 97.6184C132.887 97.4985 132.069 97.5898 131.256 97.5612C131.122 97.5612 131.114 97.636 131.096 97.7284C131.006 98.1761 130.912 98.6238 130.819 99.0704C130.59 100.17 130.365 101.27 130.129 102.37C130.08 102.59 130.122 102.673 130.369 102.656C130.705 102.63 131.045 102.646 131.384 102.646ZM132.297 95.7814C132.644 95.8023 132.993 95.7824 133.335 95.722C134.599 95.4327 135.564 94.3074 135.689 92.972C135.789 91.9105 135.322 91.2791 134.282 91.0657C133.822 90.9711 133.354 90.9975 132.89 90.9678C132.571 90.9469 132.463 91.0437 132.403 91.3616C132.137 92.7608 131.844 94.1545 131.545 95.5482C131.497 95.7682 131.563 95.7935 131.748 95.7814C131.933 95.7693 132.113 95.7814 132.297 95.7814Z" fill="white"/>
<path d="M148.432 94.7958C148.576 94.4383 148.709 94.1358 148.819 93.8311C148.85 93.7106 148.923 93.6053 149.025 93.5345C149.128 93.4636 149.252 93.4318 149.376 93.445C149.843 93.4549 150.311 93.445 150.778 93.445C151.125 93.445 151.226 93.5737 151.16 93.9048C150.646 96.4414 150.133 98.9783 149.62 101.516C149.568 101.72 149.55 101.932 149.567 102.143C149.614 102.495 149.732 102.619 150.084 102.665C150.304 102.694 150.396 102.815 150.359 103.022C150.296 103.372 150.224 103.722 150.139 104.069C150.121 104.175 150.065 104.27 149.981 104.337C149.897 104.405 149.792 104.439 149.685 104.434C149.244 104.454 148.804 104.411 148.376 104.306C147.699 104.128 147.33 103.691 147.244 102.986C147.234 102.906 147.231 102.825 147.223 102.73C147.104 102.759 147.062 102.858 147.003 102.926C145.639 104.415 143.949 104.943 141.98 104.601C140.654 104.37 139.829 103.542 139.532 102.219C139.277 101.091 139.414 99.9779 139.642 98.868C139.91 97.548 140.362 96.3039 141.182 95.2061C142.597 93.2932 144.877 92.8873 146.61 93.3218C147.412 93.5297 148.004 94.0159 148.432 94.7958ZM141.942 100.895C141.942 101.143 141.963 101.391 142.005 101.636C142.125 102.366 142.528 102.771 143.258 102.893C144.688 103.133 146.057 102.511 146.769 101.229C147.474 99.9369 147.819 98.4788 147.765 97.0079C147.74 95.9673 147.246 95.3216 146.37 95.0653C145.856 94.9243 145.317 94.9036 144.794 95.0048C143.868 95.161 143.328 95.7814 142.949 96.5712C142.294 97.9374 142.06 99.4037 141.942 100.895Z" fill="white"/>
<path d="M169.645 89.298C169.341 90.7793 169.036 92.2577 168.73 93.7332C168.426 95.2105 168.124 96.6878 167.818 98.175C167.961 98.1662 168.007 98.065 168.074 97.999C169.448 96.6383 170.824 95.2798 172.188 93.9092C172.327 93.7576 172.498 93.6386 172.688 93.5604C172.878 93.4823 173.083 93.447 173.288 93.4571C173.791 93.4758 174.296 93.4571 174.8 93.467C174.91 93.467 175.048 93.4373 175.097 93.5473C175.145 93.6573 175.011 93.7343 174.935 93.8047C173.248 95.3923 171.557 96.9771 169.86 98.5589C169.682 98.725 169.682 98.8284 169.808 99.0242C170.86 100.653 171.898 102.291 172.944 103.926C172.994 104.003 173.043 104.081 173.086 104.16C173.176 104.325 173.127 104.441 172.94 104.442C172.142 104.442 171.345 104.449 170.548 104.432C170.31 104.432 170.172 104.237 170.056 104.038C169.264 102.678 168.47 101.322 167.673 99.968C167.625 99.8855 167.601 99.7799 167.479 99.7227C167.253 100.823 167.029 101.908 166.804 102.996C166.734 103.337 166.666 103.678 166.589 104.017C166.512 104.356 166.384 104.447 166.055 104.449C165.542 104.449 165.029 104.449 164.515 104.449C164.057 104.449 163.971 104.348 164.063 103.909C164.344 102.549 164.63 101.188 164.912 99.8261C165.529 96.8553 166.142 93.889 166.75 90.9271C166.76 90.8516 166.788 90.78 166.834 90.7191C166.879 90.6581 166.94 90.61 167.01 90.5795C167.796 90.1901 168.576 89.7875 169.359 89.3926C169.443 89.3324 169.542 89.2993 169.645 89.298Z" fill="white"/>
<path d="M156.094 95.2204C156.476 94.7097 156.916 94.2456 157.406 93.8377C158.562 92.8917 160.905 93.0391 161.991 94.0324C162.871 94.8387 163.11 95.8716 162.92 96.9914C162.672 98.4423 162.343 99.8789 162.056 101.323C161.994 101.637 161.934 101.955 162.021 102.276C162.082 102.501 162.178 102.683 162.461 102.681C162.699 102.681 162.791 102.826 162.752 103.045C162.689 103.394 162.618 103.745 162.537 104.092C162.518 104.193 162.463 104.285 162.383 104.349C162.302 104.413 162.2 104.446 162.097 104.442C161.657 104.466 161.216 104.421 160.79 104.309C159.8 104.03 159.312 103.319 159.36 102.219C159.392 101.472 159.611 100.759 159.742 100.031C159.92 99.0407 160.218 98.0727 160.273 97.0607C160.286 96.8599 160.286 96.6586 160.273 96.4579C160.196 95.3469 159.503 94.8167 158.413 95.0015C158.073 95.0565 157.748 95.183 157.459 95.3726C157.171 95.5622 156.926 95.8106 156.741 96.1015C156.251 96.8209 156.043 97.6415 155.869 98.4797C155.49 100.306 155.107 102.132 154.722 103.958C154.64 104.343 154.509 104.443 154.115 104.444C153.584 104.444 153.052 104.444 152.52 104.444C152.183 104.444 152.08 104.305 152.144 103.973C152.658 101.464 153.173 98.9556 153.691 96.4469C153.748 96.1697 153.816 95.8969 153.733 95.6065C153.667 95.3865 153.548 95.2435 153.293 95.2226C152.986 95.1973 152.92 95.0906 152.981 94.7826C153.043 94.4746 153.105 94.1721 153.168 93.8685C153.182 93.7528 153.239 93.6465 153.327 93.5702C153.415 93.494 153.528 93.4532 153.645 93.456C154.094 93.4272 154.545 93.4711 154.98 93.5858C155.705 93.7959 156.007 94.1666 156.08 94.9168C156.08 94.996 156.08 95.0752 156.094 95.2204Z" fill="white"/>
<path d="M91.8499 95.7528H93.5109C94.3359 95.7528 95.1609 95.7528 95.9859 95.7528C96.383 95.7528 96.4787 95.8694 96.4006 96.2588C96.339 96.5635 96.273 96.8671 96.2048 97.1707C96.1179 97.5535 95.9848 97.6591 95.5679 97.6591C94.3029 97.6591 93.0379 97.6591 91.774 97.6503C91.5331 97.6503 91.433 97.6965 91.3813 97.9572C90.9985 99.8954 90.5915 101.828 90.1944 103.764C90.0844 104.314 89.9964 104.389 89.4244 104.389C88.9019 104.389 88.3794 104.389 87.858 104.389C87.4796 104.389 87.3817 104.267 87.4587 103.895C87.9207 101.655 88.3838 99.4165 88.848 97.1784C89.354 94.7328 89.8585 92.2875 90.3616 89.8425C90.4848 89.2441 90.5673 89.1715 91.1855 89.1726L98.3355 89.1858C98.8459 89.1858 98.9229 89.2793 98.8184 89.7666C98.7568 90.0526 98.6985 90.3397 98.6303 90.6246C98.5456 90.9799 98.4202 91.0789 98.055 91.0789C96.405 91.0789 94.755 91.0789 93.105 91.0789C92.885 91.0789 92.7926 91.1196 92.7464 91.3539C92.4604 92.8114 92.1546 94.27 91.8499 95.7528Z" fill="white"/>
<path d="M113.488 104.665C112.617 104.657 111.754 104.508 110.93 104.225C110.64 104.135 110.376 103.976 110.16 103.762C109.94 103.532 109.94 103.322 110.133 103.076C110.258 102.918 110.398 102.773 110.532 102.621C110.862 102.244 110.917 102.231 111.412 102.401C112.099 102.632 112.789 102.841 113.519 102.878C114.164 102.912 114.799 102.886 115.409 102.638C115.648 102.544 115.861 102.391 116.028 102.194C116.194 101.998 116.308 101.762 116.361 101.51C116.463 101.113 116.348 100.839 115.999 100.619C115.628 100.401 115.231 100.231 114.818 100.111C114.349 99.9592 113.882 99.7953 113.405 99.671C111.7 99.2167 111.29 97.9308 111.623 96.4667C112.021 94.7232 113.4 93.4967 115.234 93.2349C116.539 93.0512 117.829 93.1249 119.058 93.6672C119.305 93.7649 119.534 93.9048 119.733 94.0808C119.937 94.2766 119.953 94.4394 119.777 94.6561C119.557 94.9179 119.328 95.1643 119.109 95.4261C118.999 95.5548 118.879 95.546 118.738 95.5053C118.203 95.3524 117.691 95.1181 117.14 95.018C116.512 94.908 115.883 94.8695 115.262 95.0477C114.995 95.1184 114.75 95.2567 114.551 95.4493C114.353 95.642 114.207 95.8825 114.128 96.1477C113.93 96.7362 114.147 97.1564 114.739 97.3423C115.471 97.5722 116.207 97.79 116.939 98.0133C117.308 98.116 117.664 98.2638 117.998 98.4533C118.616 98.8218 118.922 99.3751 118.958 100.082C119.056 101.981 118.034 103.487 116.151 104.226C115.343 104.543 114.5 104.668 113.488 104.665Z" fill="white"/>
<path d="M122.682 95.0939C122.346 95.0939 122.008 95.0939 121.67 95.0939C121.278 95.0939 121.191 94.9916 121.266 94.6165C121.32 94.347 121.376 94.0786 121.441 93.8124C121.459 93.7021 121.518 93.6026 121.605 93.5329C121.692 93.4633 121.802 93.4284 121.914 93.4351C122.217 93.4351 122.52 93.4175 122.822 93.4351C123.024 93.4494 123.086 93.3724 123.117 93.1854C123.201 92.6904 123.309 92.1954 123.403 91.7037C123.421 91.6135 123.429 91.531 123.529 91.4837C124.434 91.0283 125.338 90.5685 126.269 90.0966C126.293 90.3925 126.197 90.64 126.15 90.8908C126.006 91.6608 125.849 92.4165 125.686 93.1777C125.643 93.3768 125.673 93.4527 125.9 93.4406C126.274 93.4219 126.652 93.4318 127.027 93.4406C127.33 93.4461 127.425 93.5561 127.371 93.8564C127.317 94.1567 127.252 94.4295 127.183 94.7133C127.114 94.9971 126.938 95.106 126.662 95.1038C126.268 95.1038 125.873 95.1038 125.479 95.1038C125.338 95.1038 125.267 95.1357 125.236 95.2853C124.828 97.3313 124.415 99.3758 124 101.419C123.949 101.653 123.961 101.897 124.034 102.125C124.089 102.282 124.193 102.417 124.33 102.511C124.467 102.605 124.631 102.652 124.797 102.648C125.524 102.666 125.531 102.673 125.392 103.389C125.349 103.609 125.301 103.837 125.249 104.059C125.234 104.161 125.183 104.253 125.104 104.32C125.026 104.386 124.926 104.422 124.824 104.421C124.238 104.435 123.648 104.474 123.064 104.37C121.92 104.166 121.353 103.49 121.333 102.315C121.32 101.545 121.53 100.812 121.681 100.068C122.011 98.4368 122.351 96.8066 122.685 95.1753C122.688 95.1481 122.687 95.1207 122.682 95.0939Z" fill="white"/>
<path d="M107.494 94.6627C107.601 94.5261 107.714 94.395 107.834 94.27C108.656 93.4912 109.66 93.2305 110.762 93.2514C110.982 93.2514 111.078 93.3218 111.018 93.5693C110.9 94.0577 110.808 94.5527 110.703 95.0444C110.609 95.4844 110.465 95.557 110.026 95.5031C108.901 95.3656 107.67 95.7528 107.304 97.3731C106.815 99.5401 106.348 101.713 105.874 103.883C105.764 104.401 105.667 104.48 105.13 104.479C104.645 104.479 104.159 104.479 103.674 104.479C103.294 104.479 103.201 104.357 103.281 103.983C103.822 101.471 104.363 98.9589 104.905 96.448C104.963 96.2265 104.992 95.9983 104.99 95.7693C104.973 95.4041 104.841 95.2523 104.475 95.1929C104.255 95.1577 104.151 95.0345 104.194 94.8101C104.257 94.4801 104.319 94.1501 104.394 93.8201C104.41 93.709 104.465 93.6075 104.551 93.5349C104.636 93.4623 104.745 93.4236 104.857 93.4263C105.425 93.4175 105.994 93.4263 106.545 93.5946C107.057 93.7508 107.372 94.0808 107.416 94.6374L107.494 94.6627Z" fill="white"/>
<path d="M97.8713 102.557C97.8944 101.773 98.121 101.024 98.2838 100.265C98.7315 98.175 99.1913 96.085 99.6478 93.995C99.7314 93.6111 99.8678 93.5066 100.253 93.5044C100.766 93.5044 101.279 93.5044 101.793 93.5044C102.179 93.5044 102.272 93.6144 102.192 93.9873C101.652 96.4909 101.109 98.9938 100.565 101.496C100.491 101.799 100.464 102.112 100.485 102.423C100.518 102.774 100.642 102.907 100.981 102.958C101.183 102.989 101.277 103.109 101.243 103.301C101.179 103.662 101.106 104.02 101.023 104.376C101.002 104.471 100.949 104.556 100.872 104.616C100.796 104.676 100.701 104.708 100.604 104.706C100.054 104.723 99.5037 104.679 98.9867 104.46C98.22 104.141 97.8515 103.497 97.8713 102.557Z" fill="white"/>
<path d="M136.301 111.151C137.229 111.678 137.311 112.735 136.521 113.497C135.945 114.058 134.686 114.238 133.971 113.864C133.804 113.784 133.664 113.658 133.567 113.501C133.469 113.343 133.419 113.162 133.421 112.977C133.399 112.659 133.468 112.342 133.617 112.061C133.767 111.781 133.993 111.548 134.269 111.389C134.407 111.304 134.557 111.239 134.7 111.169C134.7 111.148 134.7 111.123 134.692 111.119C133.91 110.714 134.083 109.971 134.493 109.39C134.699 109.117 134.996 108.925 135.33 108.849C135.703 108.751 136.094 108.736 136.474 108.805C136.839 108.866 137.173 109.018 137.287 109.409C137.356 109.618 137.37 109.841 137.329 110.057C137.287 110.273 137.191 110.474 137.05 110.642C136.855 110.871 136.598 111.009 136.301 111.151ZM134.358 112.702C134.35 112.858 134.4 113.013 134.499 113.135C134.598 113.256 134.739 113.337 134.894 113.362C135.621 113.518 136.324 112.774 136.143 112.042C136.113 111.897 136.035 111.767 135.921 111.673C135.806 111.579 135.663 111.528 135.516 111.528C134.896 111.502 134.356 112.047 134.358 112.702ZM135.88 109.437C135.774 109.436 135.67 109.456 135.573 109.496C135.476 109.535 135.387 109.594 135.312 109.668C135.237 109.741 135.178 109.829 135.137 109.926C135.096 110.023 135.075 110.127 135.074 110.232C135.07 110.305 135.08 110.378 135.104 110.447C135.129 110.517 135.166 110.58 135.215 110.634C135.264 110.689 135.324 110.733 135.39 110.764C135.456 110.795 135.528 110.812 135.601 110.815C136.003 110.822 136.426 110.375 136.435 109.945C136.441 109.644 136.216 109.439 135.88 109.437Z" fill="white"/>
<path d="M141.388 109.795C141.366 109.551 141.263 109.32 141.096 109.139C140.929 108.959 140.708 108.838 140.465 108.796C140.121 108.734 139.767 108.762 139.436 108.876C138.488 109.218 138.143 109.99 138.054 110.902C137.961 111.883 138.531 112.389 139.514 112.275C139.886 112.231 140.142 112.023 140.406 111.78C140.38 112.1 140.279 112.41 140.11 112.683C139.825 113.198 139.4 113.46 138.797 113.358C138.597 113.335 138.4 113.293 138.208 113.233C137.878 113.109 137.871 113.4 137.777 113.551C137.661 113.739 137.864 113.78 137.972 113.832C138.881 114.285 139.88 114.09 140.502 113.265C141.281 112.245 141.553 111.063 141.388 109.795ZM140.601 110.283C140.561 110.592 140.461 110.891 140.307 111.163C140.133 111.448 139.895 111.619 139.544 111.603C139.104 111.592 138.911 111.395 138.921 110.891C138.941 110.592 139.019 110.3 139.15 110.031C139.232 109.846 139.369 109.69 139.541 109.584C139.798 109.436 140.08 109.355 140.346 109.525C140.611 109.694 140.65 109.986 140.601 110.283Z" fill="white"/>
<path d="M143.87 112.75H141.923C141.654 112.75 141.602 112.665 141.725 112.42C141.774 112.333 141.834 112.252 141.903 112.18C142.793 111.159 143.697 110.151 144.57 109.116C144.826 108.811 145.12 108.843 145.438 108.859C145.617 108.868 145.548 109.017 145.527 109.113C145.371 109.875 145.214 110.635 145.056 111.395C145.029 111.567 144.992 111.737 144.946 111.904C144.883 112.098 144.969 112.109 145.127 112.117C145.252 112.124 145.473 112.007 145.467 112.282C145.46 112.656 145.378 112.775 145.099 112.746C144.819 112.716 144.721 112.827 144.704 113.076C144.691 113.166 144.673 113.256 144.65 113.344C144.512 114.017 144.512 114.012 143.825 113.974C143.654 113.964 143.624 113.896 143.654 113.754C143.726 113.432 143.793 113.11 143.87 112.75ZM144.385 110.238L142.817 112.108C143.216 112.108 143.54 112.108 143.865 112.108C143.885 112.11 143.905 112.109 143.925 112.103C143.945 112.098 143.963 112.088 143.979 112.075C143.994 112.062 144.007 112.046 144.016 112.028C144.025 112.009 144.031 111.989 144.032 111.969C144.142 111.419 144.255 110.867 144.384 110.236L144.385 110.238Z" fill="white"/>
<path d="M112.493 114.035C112.073 114.034 111.657 113.952 111.268 113.793C111.171 113.751 110.981 113.726 111.068 113.573C111.155 113.42 111.17 113.123 111.481 113.197C111.905 113.309 112.343 113.363 112.783 113.357C113.014 113.352 113.24 113.291 113.443 113.18C113.954 112.894 113.973 112.348 113.467 112.05C113.218 111.918 112.961 111.802 112.697 111.703C111.611 111.235 111.41 110.176 112.271 109.355C112.964 108.695 113.799 108.639 114.683 108.866C114.762 108.887 114.839 108.915 114.917 108.942C115.336 109.086 115.344 109.117 115.115 109.479C115.103 109.505 115.086 109.529 115.065 109.549C115.044 109.569 115.019 109.584 114.992 109.595C114.964 109.605 114.935 109.61 114.906 109.608C114.877 109.607 114.849 109.601 114.822 109.589C114.393 109.455 113.942 109.405 113.494 109.443C113.342 109.453 113.194 109.498 113.063 109.576C112.932 109.653 112.821 109.761 112.74 109.89C112.52 110.247 112.601 110.572 112.977 110.756C113.231 110.88 113.499 110.976 113.759 111.086C114.878 111.561 115.037 112.81 114.075 113.561C113.675 113.869 113.146 114.031 112.493 114.035Z" fill="white"/>
<path d="M118.984 110.823C119.24 110.547 119.454 110.286 119.812 110.207C120.781 109.993 121.45 110.64 121.252 111.61C121.159 112.067 121.062 112.522 120.974 112.98C120.943 113.143 120.924 113.289 121.143 113.379C121.315 113.45 121.166 113.62 121.161 113.745C121.163 113.773 121.159 113.8 121.15 113.826C121.141 113.852 121.127 113.876 121.108 113.896C121.089 113.916 121.066 113.932 121.041 113.943C121.016 113.954 120.989 113.959 120.961 113.959C120.361 114.027 119.985 113.641 120.09 113.043C120.169 112.593 120.266 112.146 120.354 111.697C120.37 111.625 120.38 111.551 120.384 111.477C120.392 111.217 120.384 110.953 120.108 110.817C119.87 110.7 119.497 110.8 119.284 111.037C119.071 111.275 118.973 111.587 118.907 111.906C118.779 112.515 118.647 113.122 118.527 113.732C118.526 113.766 118.518 113.799 118.503 113.83C118.488 113.86 118.467 113.887 118.441 113.909C118.415 113.93 118.385 113.946 118.352 113.955C118.32 113.965 118.286 113.967 118.252 113.962C117.609 113.978 117.61 113.983 117.74 113.353C117.883 112.654 118.024 111.955 118.165 111.257C118.199 111.087 118.248 110.906 117.996 110.843C117.886 110.814 117.91 110.71 117.939 110.637C117.989 110.51 117.927 110.327 118.12 110.272C118.213 110.242 118.312 110.234 118.409 110.246C118.505 110.259 118.598 110.293 118.681 110.346C118.763 110.398 118.833 110.468 118.885 110.551C118.937 110.633 118.971 110.726 118.984 110.823Z" fill="white"/>
<path d="M127.228 112.413C126.99 112.413 126.751 112.425 126.514 112.413C126.338 112.402 126.294 112.477 126.294 112.633C126.271 113.212 126.583 113.519 127.157 113.448C127.392 113.419 127.624 113.366 127.85 113.29C128.025 113.232 128.089 113.29 128.159 113.439C128.228 113.587 128.197 113.701 128.049 113.776C127.597 114.006 127.087 114.098 126.583 114.042C125.731 113.959 125.345 113.465 125.425 112.607C125.46 112.141 125.582 111.685 125.787 111.265C126.208 110.426 126.997 110.038 127.901 110.22C128.427 110.33 128.737 110.674 128.764 111.21C128.773 111.375 128.761 111.54 128.731 111.702C128.621 112.232 128.401 112.411 127.861 112.422C127.651 112.422 127.439 112.422 127.229 112.422L127.228 112.413ZM126.439 111.812H127.613C127.658 111.817 127.704 111.809 127.744 111.79C127.785 111.771 127.82 111.74 127.844 111.702C127.963 111.498 127.907 111.071 127.734 110.904C127.561 110.737 127.304 110.724 127.049 110.869C126.691 111.07 126.56 111.43 126.439 111.812Z" fill="white"/>
<path d="M101.891 89.3199C102.183 89.3199 102.476 89.3133 102.771 89.3199C103.037 89.3276 103.141 89.4497 103.091 89.7049C102.976 90.2784 102.855 90.8497 102.728 91.4187C102.661 91.7124 102.508 91.8323 102.2 91.8345C101.65 91.8345 101.1 91.8345 100.55 91.8345C100.207 91.829 100.11 91.6981 100.184 91.3637C100.294 90.828 100.412 90.2923 100.532 89.7588C100.604 89.4398 100.746 89.3265 101.066 89.3188C101.34 89.3188 101.616 89.3188 101.889 89.3188L101.891 89.3199Z" fill="white"/>
<path d="M131.947 109.909C131.65 110.032 131.384 110.143 131.115 110.25C131.049 110.276 130.954 110.322 130.913 110.296C130.834 110.245 130.897 110.145 130.901 110.066C130.917 109.78 131.064 109.614 131.341 109.509C131.845 109.316 132.331 109.086 132.829 108.874C132.902 108.842 132.982 108.764 133.049 108.81C133.116 108.856 133.059 108.963 133.049 109.037C132.734 110.588 132.412 112.138 132.1 113.689C132.058 113.897 131.966 113.972 131.749 113.969C131.123 113.96 131.128 113.969 131.256 113.358C131.485 112.276 131.707 111.191 131.932 110.108C131.939 110.056 131.938 110 131.947 109.909Z" fill="white"/>
<path d="M121.97 112.719C121.981 112.214 122.102 111.717 122.324 111.263C122.783 110.306 124.006 109.876 124.94 110.346C125.059 110.407 125.28 110.438 125.202 110.657C125.113 110.901 124.896 111.005 124.683 110.904C123.841 110.508 123.246 111.006 123.021 111.708C122.899 112.054 122.844 112.42 122.858 112.786C122.886 113.242 123.169 113.484 123.628 113.446C123.845 113.418 124.059 113.363 124.264 113.283C124.374 113.247 124.473 113.212 124.529 113.365C124.575 113.491 124.664 113.601 124.513 113.73C124.05 114.125 122.856 114.156 122.379 113.775C122.032 113.505 121.961 113.126 121.97 112.719Z" fill="white"/>
<path d="M115.447 113.132C115.548 112.627 115.667 112.032 115.791 111.428C115.855 111.114 115.93 110.803 115.985 110.488C115.986 110.455 115.994 110.421 116.009 110.391C116.023 110.36 116.044 110.333 116.07 110.311C116.096 110.29 116.126 110.273 116.159 110.264C116.191 110.255 116.225 110.253 116.259 110.257C116.909 110.238 116.906 110.232 116.776 110.859C116.632 111.558 116.489 112.255 116.351 112.955C116.318 113.124 116.286 113.285 116.523 113.376C116.69 113.44 116.548 113.596 116.543 113.718C116.537 113.84 116.504 113.929 116.365 113.957C115.871 114.053 115.447 113.72 115.447 113.132Z" fill="white"/>
<path d="M116.781 108.688C116.891 108.688 116.976 108.688 117.057 108.688C117.139 108.688 117.213 108.723 117.196 108.815C117.159 109.021 117.112 109.224 117.062 109.427C117.042 109.504 116.972 109.53 116.895 109.545C116.246 109.661 116.171 109.57 116.303 108.933C116.37 108.588 116.619 108.717 116.781 108.688Z" fill="white"/>
<path d="M135.123 62.6396C132.624 62.5296 130.162 62.2139 127.805 61.3196C125.762 60.5496 123.975 59.4045 122.655 57.6247C121.47 56.0327 120.813 54.1093 120.777 52.1247C120.712 49.9742 121.184 47.9073 121.807 45.8701C121.934 45.4576 122.212 45.2838 122.713 45.2607C123.295 45.2321 123.859 45.3707 124.429 45.4521C126.386 45.7293 128.345 45.9955 130.294 46.32C130.897 46.4201 131.407 46.3607 131.888 46.001C132.476 45.561 133.141 45.4818 133.858 45.5148C135.094 45.5565 136.322 45.728 137.522 46.0263C137.648 46.0485 137.767 46.1006 137.87 46.1781C139.605 47.6895 141.3 49.2427 142.734 51.0555C143.383 51.8761 143.381 51.8827 143.249 52.9255C143.235 53.0092 143.241 53.095 143.265 53.1762C143.29 53.2574 143.333 53.3319 143.39 53.3941C143.984 54.1157 144.538 54.8692 145.12 55.5996C145.931 56.6193 146.315 57.7886 146.457 59.058C146.521 59.6219 146.577 60.1869 146.626 60.7531C146.651 61.0523 146.635 61.0589 146.357 60.9137C145.607 60.512 144.882 60.0634 144.188 59.5706C143.433 59.0492 142.694 58.5091 141.979 57.936C141.761 57.7579 141.498 57.6437 141.219 57.606C140.404 57.4722 139.567 57.5842 138.815 57.9276C138.063 58.271 137.431 58.8303 136.998 59.5343C136.859 59.7609 136.858 59.9094 137.085 60.048C137.124 60.0743 137.161 60.1037 137.195 60.136C137.716 60.587 137.717 60.5881 137.434 61.236C137.394 61.3273 137.347 61.4175 137.301 61.5066C136.894 62.2766 136.379 62.8761 135.374 62.6473C135.291 62.6356 135.206 62.633 135.123 62.6396ZM137.789 53.0465L136.303 51.3789C136.179 51.2392 136.111 51.3789 136.038 51.4383C135.286 52.0939 134.535 52.7517 133.785 53.4117C133.721 53.4678 133.627 53.5052 133.614 53.6262L137.789 53.0465Z" fill="#162D4C"/>
<path d="M134.9 76.1398L133.974 75.4798C131.471 73.7066 128.969 71.9323 126.468 70.1569C126.388 70.0922 126.292 70.0511 126.19 70.0383C126.088 70.0255 125.985 70.0414 125.892 70.0843C124.011 70.7443 122.123 71.3856 120.247 72.0643C119.857 72.2051 119.509 72.0885 119.147 72.05C118.582 71.9906 118.582 71.984 118.701 71.4219C119.647 66.917 120.593 62.4136 121.54 57.9117C121.551 57.8611 121.564 57.8105 121.576 57.7588C121.686 57.7841 121.712 57.8743 121.755 57.937C123.893 61.1127 126.89 62.9783 130.61 63.7439C132.038 64.031 133.491 64.175 134.948 64.174C135.168 64.174 135.225 64.2433 135.237 64.4501C135.276 65.0716 135.333 65.692 135.39 66.3124C135.415 66.5397 135.396 66.7696 135.335 66.99C135.173 67.5532 135.026 68.1197 134.863 68.6818C134.839 68.7539 134.832 68.8305 134.843 68.9058C134.853 68.981 134.882 69.0527 134.925 69.1152C135.901 70.6871 136.866 72.2634 137.839 73.8364C137.928 73.9738 137.978 74.1333 137.983 74.2973C138.01 75.2037 138.046 76.1101 138.083 77.0165C138.09 77.1529 138.065 77.2891 138.011 77.4147C137.591 78.4388 137.182 79.4673 136.754 80.4881C136.619 80.7884 136.55 81.1138 136.551 81.4429C136.551 81.7344 136.522 82.0259 136.506 82.3097C136.424 82.3482 136.389 82.2921 136.35 82.2591C134.81 80.9831 133.281 79.7027 131.74 78.4322C131.56 78.2837 131.569 78.2221 131.762 78.1022C132.722 77.5126 133.674 76.912 134.628 76.3136C134.708 76.2663 134.784 76.2157 134.9 76.1398Z" fill="#162D4C"/>
<path d="M126.106 71.1271C126.196 71.1363 126.28 71.1777 126.341 71.2437C127.775 72.2469 129.208 73.249 130.641 74.25C130.809 74.3655 130.85 74.47 130.806 74.6768C130.366 76.7668 129.953 78.8722 129.524 80.9688C129.483 81.1462 129.509 81.3325 129.599 81.4913C129.772 81.8213 129.929 82.1612 130.088 82.4934C130.007 82.5825 129.92 82.5473 129.844 82.5473C128.094 82.5473 126.344 82.5473 124.592 82.555C124.517 82.5629 124.441 82.5448 124.378 82.5035C124.314 82.4622 124.267 82.4004 124.244 82.3284C124.117 82.0446 123.981 81.7641 123.827 81.4935C123.779 81.4168 123.753 81.3293 123.749 81.2392C123.746 81.1492 123.766 81.0598 123.807 80.9798C124.535 79.2517 125.252 77.5192 125.978 75.7911C126.067 75.5825 126.112 75.3578 126.109 75.1311C126.102 73.8012 126.106 72.4735 126.106 71.1271Z" fill="#162D4C"/>
<path d="M150.323 64.7977C147.086 64.7977 144.133 63.8297 141.387 62.1577C140.416 61.5683 139.5 60.8928 138.649 60.1392C138.488 59.9962 138.491 59.8961 138.614 59.7388C139.281 58.8852 140.176 58.6476 141.207 58.7565C141.568 58.7996 141.91 58.9407 142.197 59.1646C144.406 60.7882 146.794 62.0521 149.473 62.7176C150.978 63.0891 152.535 63.2029 154.078 63.0542C154.442 63.0212 154.811 63.0278 155.178 63.0311C155.33 63.0311 155.508 63.0443 155.578 63.2115C155.654 63.3996 155.537 63.5415 155.407 63.6702C155.133 63.915 154.808 64.0964 154.456 64.2015C153.312 64.5975 152.126 64.746 150.923 64.7944C150.725 64.8043 150.524 64.7977 150.323 64.7977Z" fill="#162D4C"/>
<path d="M142.132 63.6119C143.211 64.2354 144.369 64.7116 145.574 65.0276C145.874 65.1087 146.179 65.1719 146.487 65.2168C146.668 65.241 146.692 65.318 146.674 65.4676C146.639 65.9242 146.537 66.3731 146.371 66.7997C145.721 68.3122 144.978 69.784 144.352 71.3098C144.091 71.9445 143.822 72.5759 143.692 73.2535C143.54 74.0235 144.073 74.5834 144.85 74.4437C145.059 74.4063 145.122 74.4569 145.16 74.6505C145.218 74.9563 145.248 75.2666 145.252 75.5778C145.258 75.6504 145.241 75.7231 145.204 75.7856C145.166 75.8481 145.11 75.897 145.043 75.9254C144.179 76.3709 143.357 76.2114 142.609 75.6878C141.816 75.1323 141.509 74.2897 141.463 73.3547C141.402 72.1975 141.554 71.0513 141.704 69.9061C141.898 68.4365 142.212 66.9845 142.358 65.5061C142.405 65.0243 142.247 64.5645 142.205 64.0915C142.187 63.9463 142.161 63.8 142.132 63.6119Z" fill="#162D4C"/>
<path d="M137.789 53.0463L133.609 53.626C133.622 53.505 133.719 53.4676 133.781 53.4115C134.53 52.7516 135.28 52.0938 136.034 51.4382C136.106 51.3755 136.174 51.2391 136.299 51.3788L137.789 53.0463Z" fill="#DCAA10"/>
</svg>
