<svg width="263" height="153" viewBox="0 0 263 153" fill="none" xmlns="http://www.w3.org/2000/svg">
<g clip-path="url(#clip0_3_293)">
<rect width="263" height="153" rx="5" fill="white"/>
<path d="M66.9111 52.2889C68.3593 52.2889 69.5333 51.1149 69.5333 49.6667C69.5333 48.2184 68.3593 47.0444 66.9111 47.0444C65.4629 47.0444 64.2889 48.2184 64.2889 49.6667C64.2889 51.1149 65.4629 52.2889 66.9111 52.2889Z" fill="#3A4195"/>
<path d="M84.3185 95C84.5558 95 84.7481 94.8077 84.7481 94.5704C84.7481 94.3331 84.5558 94.1407 84.3185 94.1407C84.0812 94.1407 83.8889 94.3331 83.8889 94.5704C83.8889 94.8077 84.0812 95 84.3185 95Z" fill="#3A4195"/>
<path d="M177.119 62.6741C169.83 62.6741 163.489 66.8074 160.348 72.8519L149.696 69.7111L149.267 72.763L159.133 75.7852C158.541 77.6074 158.23 79.563 158.23 81.5778C158.23 92.0222 166.689 100.481 177.133 100.481C187.578 100.481 196.037 92.0222 196.037 81.5778C196.037 71.1333 187.563 62.6741 177.119 62.6741ZM186.689 93.7407C186.911 93.2074 186.97 92.8519 186.97 92.8519C186.911 86.8815 181.963 83.0296 181.963 83.0296C181.963 83.0296 181.919 82.7333 181.948 82.6889H181.756C182.956 81.4593 183.711 79.7852 183.711 77.9333C183.711 74.1852 180.674 71.1481 176.926 71.1481C173.178 71.1481 170.141 74.1852 170.141 77.9333C170.141 79.7852 170.882 81.4593 172.082 82.6889C167.444 86.037 166.526 92.837 166.526 92.8519C163.533 90.037 161.652 86.0222 161.652 81.5926C161.652 73.0444 168.585 66.1259 177.119 66.1259C185.667 66.1259 192.585 73.0593 192.585 81.5926C192.6 86.5111 190.289 90.9111 186.689 93.7407Z" fill="#A9CE43"/>
<path d="M145.281 83.8296C145.044 83.8296 144.807 83.8444 144.57 83.8444L143.874 79.5333L140.911 80.0815L141.074 80.4074L141.637 84.363C136.348 85.9333 132.481 90.837 132.481 96.6444C132.481 103.726 138.215 109.459 145.296 109.459C152.378 109.459 158.111 103.726 158.111 96.6444C158.111 89.563 152.348 83.8296 145.281 83.8296ZM150.881 103.37C150.644 100.244 147.933 98.2444 147.933 98.2444C147.933 98.2444 147.904 98.0815 147.919 98.0518H147.8C148.511 97.3704 148.956 96.4222 148.956 95.3852C148.956 93.2815 147.163 91.5778 144.941 91.5778C142.719 91.5778 140.926 93.2815 140.926 95.3852C140.926 96.4222 141.37 97.3704 142.067 98.0518C140.022 99.4593 139.207 101.963 138.926 103.119C137.178 101.474 136.067 99.1481 136.067 96.5556C136.067 91.6074 140.081 87.5926 145.03 87.5926C149.978 87.5926 153.993 91.6074 153.993 96.5556C154.007 99.2815 152.793 101.726 150.881 103.37Z" fill="#F58733"/>
<path d="M160.23 49.2074C156.496 49.2074 153.474 52.2296 153.474 55.963C153.474 56.6 153.563 57.2222 153.741 57.8148L148.615 60.6593L149.267 63.3852L155.193 60.4518C156.437 61.8444 158.23 62.7185 160.23 62.7185C163.963 62.7185 166.985 59.6963 166.985 55.963C166.985 52.2296 163.963 49.2074 160.23 49.2074ZM162.867 58.5407C162.481 57.5481 161.667 56.9407 161.667 56.9407C161.667 56.9407 161.652 56.8667 161.667 56.8518H161.607C161.948 56.5259 162.156 56.0815 162.156 55.5926C162.156 54.6 161.311 53.8 160.274 53.8C159.237 53.8 158.393 54.6 158.393 55.5926C158.393 56.0815 158.6 56.5259 158.926 56.837C158.244 57.2963 157.859 58.0222 157.637 58.6C156.956 57.9333 156.526 57 156.526 55.963C156.526 53.9185 158.185 52.2741 160.215 52.2741C162.259 52.2741 163.904 53.9333 163.904 55.963C163.919 56.9704 163.519 57.8741 162.867 58.5407Z" fill="#23ADE4"/>
<path d="M147.03 48.6741C147.03 46.3926 145.178 44.5408 142.896 44.5408C140.615 44.5408 138.763 46.3926 138.763 48.6741C138.763 50.1556 139.548 51.4593 140.733 52.1852L139.726 56.4667L142.733 57.0593L143.533 52.7482C145.519 52.4519 147.03 50.7482 147.03 48.6741ZM143.919 50.2741C143.904 49.7111 143.415 49.3408 143.415 49.3408V49.3111H143.4C143.519 49.1926 143.593 49.0297 143.593 48.8667C143.593 48.5111 143.281 48.2297 142.911 48.2297C142.541 48.2297 142.23 48.5111 142.23 48.8667C142.23 49.0445 142.304 49.2074 142.422 49.3111C141.978 49.6223 141.874 50.2297 141.874 50.2741C141.356 49.9334 141 49.3556 141 48.6741C141 47.6223 141.844 46.7778 142.896 46.7778C143.948 46.7778 144.793 47.6223 144.793 48.6741C144.793 49.3556 144.452 49.9334 143.919 50.2741Z" fill="#6E508D"/>
<path d="M69.2518 55.2815L64.6444 57.5037V82.4371L69.2518 79.8296V55.2815Z" fill="#3A4195"/>
<path d="M92.0963 81.8741L92.037 48.4074L96.5555 46.3926V58.0074C96.5555 58.0074 100.081 53.3259 106.496 57.4296C107.578 58.1259 108.481 59.1481 109.222 60.2148C109.237 60.2296 109.252 60.2444 109.252 60.2592C109.933 61.2518 110.6 62.6296 110.6 63.8296V79.7407L106.022 81.8592V65.0148C106.022 63.9037 105.696 62.8074 105.044 61.9037C104.333 60.9259 103.133 59.9778 101.148 59.9629C101.148 59.9629 96.7481 60.1259 96.5852 64.1259L96.6148 79.8444L92.0963 81.8741Z" fill="#3A4195"/>
<path d="M116.481 55.4445L111.815 57.6222V73.1334C111.815 73.1334 111.83 73.4889 111.919 74.0667C112.556 77.5778 115.296 80.3334 118.778 81.0741C121 81.5482 124.319 81.6963 127.044 79.5186C128.926 77.9926 130.437 75.7852 130.496 73.3704V55.4445L125.83 57.563L126.067 72.6741C126.081 73.4 125.948 74.1111 125.652 74.7778C125.119 75.963 123.904 77.3852 121.133 77.4297C121.133 77.4297 117.059 77.4 116.541 73.5778C116.511 73.3408 116.496 73.0889 116.496 72.8519L116.481 55.4445Z" fill="#3A4195"/>
<path d="M123.341 95.3853L122.689 95.6964V97.889C122.689 97.889 122.689 97.9334 122.704 98.0223C122.793 98.526 123.178 98.9112 123.652 99.0149C123.963 99.089 124.422 99.1038 124.793 98.7927C125.059 98.5705 125.267 98.2594 125.267 97.9186V95.3853L124.615 95.6816L124.644 97.8149C124.644 97.9186 124.63 98.0223 124.585 98.1112C124.511 98.2742 124.348 98.4816 123.963 98.4816C123.963 98.4816 123.4 98.4816 123.326 97.9334V97.8297L123.341 95.3853Z" fill="#3A4195"/>
<path d="M141.044 56.0519C140.526 55.9778 138.763 55.6667 136.289 57.7852L136.259 46.3334L131.637 48.5556V72.4074C131.637 74.0815 132.067 75.7408 132.941 77.163C133.756 78.4815 135.059 79.8445 137.163 80.6889C139.059 81.4445 141.148 81.5482 143.133 81.1037C143.193 81.0889 143.267 81.0741 143.341 81.0593C147.252 80.1408 150.244 76.8667 150.244 72.8519V64.2148C150.244 62.6297 149.533 61.0445 148.63 59.726C147.474 58.0371 144.793 56.1852 141.43 56.0667C141.311 56.0815 141.178 56.0667 141.044 56.0519ZM145.741 73C145.741 75.7852 144.111 77.1333 141.252 77.4C138.733 77.6222 136.244 75.3556 136.244 72.8222V64.8963C136.244 62.363 138.156 60.2 140.674 59.9926C143.504 59.7704 145.667 62.0519 145.667 64.8371L145.741 73Z" fill="#3A4195"/>
<path d="M127.667 95.4444C127.593 95.4296 127.341 95.3852 127 95.6963V94.0222L126.348 94.3481V97.8148C126.348 98.0519 126.407 98.3037 126.526 98.5111C126.644 98.7037 126.822 98.8963 127.119 99.0296C127.385 99.1333 127.681 99.1481 127.963 99.0889H127.993C128.541 98.9556 128.97 98.4815 128.97 97.8889V96.6296C128.97 96.3926 128.867 96.1704 128.748 95.9778C128.585 95.7259 128.215 95.4593 127.741 95.4444C127.711 95.4593 127.696 95.4593 127.667 95.4444ZM128.333 97.9185C128.333 98.3185 128.111 98.5259 127.696 98.5556C127.341 98.5852 126.985 98.2593 126.985 97.8889V96.7333C126.985 96.363 127.252 96.0519 127.607 96.0222C128.007 95.9926 128.304 96.3185 128.304 96.7333L128.333 97.9185Z" fill="#3A4195"/>
<path d="M89.4741 82.2593V65.489C89.4741 63.5038 89.2074 61.5482 88.1407 59.8741C84.6148 54.3778 78.2 56.0815 78.2 56.0815C71.5778 57.963 71.0889 63.7112 71.0889 63.7112V72.6445C71.0889 76.526 73.9185 80.0075 77.6815 81.0001C78.5852 81.2371 79.1926 81.2519 79.1926 81.2519C83.9333 81.5779 85.0741 79.4593 85.0741 79.4593V82.2445C84.9852 84.2742 83.8593 85.3408 82.8074 85.9038C82.0518 86.3038 81.1926 86.4964 80.3481 86.4964H75.2815L73.3259 90.4223H80.5852C82.3333 90.4223 84.0667 89.963 85.563 89.0297C89.5333 86.5112 89.4741 82.2593 89.4741 82.2593ZM85.0592 72.7927C85.0592 75.4445 83.0592 77.4741 80.3926 77.4741C77.7259 77.4741 75.563 75.4741 75.563 72.8223V64.7038C75.563 62.0519 77.7407 59.8741 80.3926 59.8741C83.0444 59.8741 85.0592 62.0667 85.0592 64.7334V72.7927Z" fill="#3A4195"/>
<path d="M64.1555 94.1111L63.5037 94.4074V99.2222L64.1555 98.8518V94.1111Z" fill="#3A4195"/>
<path d="M65.1926 99.0444V96.3334C65.1926 96.2889 65.2074 96.2445 65.2222 96.2C65.3111 95.9926 65.6222 95.4297 66.4518 95.4297C66.4518 95.4297 67.4889 95.4 67.6518 96.2741V98.7778L67.1629 99.0444L67.1926 96.526C67.1926 96.4963 67.1926 96.4519 67.1778 96.4223C67.1333 96.2889 67.1333 95.9186 66.437 95.9186C66.437 95.9186 65.8444 95.9186 65.7703 96.4519L65.7555 98.7482L65.1926 99.0444Z" fill="#3A4195"/>
<path d="M68.7333 99.0444V96.3333C68.7333 96.274 68.7481 96.2296 68.763 96.1703C68.8518 95.9481 69.1778 95.4148 69.9778 95.4148C69.9778 95.4148 71.0148 95.3852 71.1778 96.2592V98.7629L70.6889 99.0296L70.7185 96.4666C70.7185 96.4666 70.763 95.9037 69.9481 95.9037C69.9481 95.9037 69.2667 95.9037 69.2815 96.437L69.2667 98.7333L68.7333 99.0444Z" fill="#3A4195"/>
<path d="M89.1037 99.0444V96.3482C89.1037 96.2889 89.1185 96.2297 89.1333 96.1852C89.237 95.963 89.5481 95.4297 90.3481 95.4297C90.3481 95.4297 91.3852 95.4 91.5481 96.2741V98.7778L91.0592 99.0444L91.0889 96.4815C91.0889 96.4815 91.1481 95.9186 90.3185 95.9186C90.3185 95.9186 89.637 95.9186 89.6518 96.4519L89.637 98.7482L89.1037 99.0444Z" fill="#3A4195"/>
<path d="M73.3407 99.0296C72.3481 99.0296 71.9481 98.4666 71.9481 97.7407V96.7481C71.9481 96.037 72.3481 95.4592 73.3407 95.4592C74.3333 95.4592 74.7333 96.0222 74.7333 96.7481V97.7407C74.7333 98.4666 74.3481 99.0296 73.3407 99.0296ZM73.3407 95.9777C72.8074 95.9777 72.5407 96.2296 72.5407 96.7333V97.7703C72.5407 98.2741 72.8074 98.5259 73.3407 98.5259C73.8741 98.5259 74.1407 98.2741 74.1407 97.7703V96.7333C74.1407 96.2296 73.8741 95.9777 73.3407 95.9777Z" fill="#3A4195"/>
<path d="M86.9407 99.0296C85.9481 99.0296 85.5481 98.4666 85.5481 97.7407V96.7481C85.5481 96.037 85.9481 95.4592 86.9407 95.4592C87.9333 95.4592 88.3333 96.0222 88.3333 96.7481V97.7407C88.3333 98.4666 87.9333 99.0296 86.9407 99.0296ZM86.9407 95.9777C86.4074 95.9777 86.1407 96.2296 86.1407 96.7333V97.7703C86.1407 98.2741 86.4074 98.5259 86.9407 98.5259C87.4741 98.5259 87.7407 98.2741 87.7407 97.7703V96.7333C87.7407 96.2296 87.4741 95.9777 86.9407 95.9777Z" fill="#3A4195"/>
<path d="M102.63 99.0296C101.637 99.0296 101.237 98.4666 101.237 97.7407V96.7481C101.237 96.037 101.637 95.4592 102.63 95.4592C103.622 95.4592 104.022 96.0222 104.022 96.7481V97.7407C104.022 98.4666 103.637 99.0296 102.63 99.0296ZM102.63 95.9777C102.096 95.9777 101.83 96.2296 101.83 96.7333V97.7703C101.83 98.2741 102.096 98.5259 102.63 98.5259C103.163 98.5259 103.43 98.2741 103.43 97.7703V96.7333C103.43 96.2296 103.163 95.9777 102.63 95.9777Z" fill="#3A4195"/>
<path d="M79.3111 96.9112C79.7259 96.9112 80.037 97.0593 80.1555 97.2075V96.8075C80.1555 96.3482 79.8444 96.0964 79.3704 96.0964C78.9704 96.0964 78.6444 96.2445 78.4222 96.3779L78.2296 96.0223C78.4518 95.889 78.8815 95.6667 79.4296 95.6667C80.3185 95.6667 80.6592 96.1556 80.6592 96.8519V98.9853H80.2296L80.1704 98.7186C80.0074 98.9112 79.7259 99.0741 79.2963 99.0741C78.5852 99.0741 78.0667 98.6297 78.0667 97.9927C78.0667 97.3556 78.5852 96.9112 79.3111 96.9112ZM79.3852 98.6445C79.8592 98.6445 80.1852 98.363 80.1852 97.9778C80.1852 97.5778 79.8592 97.3112 79.3704 97.3112C78.8815 97.3112 78.5555 97.5927 78.5555 97.9778C78.5704 98.3334 78.8815 98.6445 79.3852 98.6445Z" fill="#3A4195"/>
<path d="M75.0444 95.6222L75.5333 95.3259L76.4222 98.1704L77.3852 95.3407L77.8592 95.6667L76.8074 98.763L76.1852 99.1481L75.0444 95.6222Z" fill="#3A4195"/>
<path d="M82.5704 94.0371L81.8296 94.4223V95.5779H81.2815L81.0889 96.1112H81.8296V99.1482L82.5704 98.689V96.0964L83.1333 96.1112L83.3704 95.563H82.5704V94.0371Z" fill="#3A4195"/>
<path d="M111.222 94.0371L110.481 94.4223V95.5779H109.933L109.756 96.1112H110.481V99.1482L111.222 98.689V96.0964L111.785 96.1112L112.022 95.563H111.237L111.222 94.0371Z" fill="#3A4195"/>
<path d="M84.6444 95.4297L83.9333 95.7704V99.1482L84.6889 98.3926L84.6444 95.4297Z" fill="#3A4195"/>
<path d="M97.6519 95.9778L98.2296 95.6075C98.2296 95.6075 98.3185 94.126 96.6889 94.126C96.6889 94.126 95.1481 94.2149 95.1481 95.4149V97.9926C95.1481 97.9926 95.2815 99.0445 96.4667 99.0445C96.4667 99.0445 98.2296 99.0889 98.2296 97.8445V96.2889H96.7926L96.3778 96.8815H97.637V97.9334C97.637 97.9334 97.2815 98.4815 96.6889 98.4815C96.6889 98.4815 95.8 98.6149 95.6815 97.6519V95.4297C95.6815 95.4297 95.7407 94.7778 96.6889 94.7778C96.6889 94.763 97.6519 94.5704 97.6519 95.9778Z" fill="#3A4195"/>
<path d="M99.2666 99.0445V96.3778C99.2666 96.3778 99.2814 95.8889 100.022 95.4297H100.941L100.674 96.126H100.007C100.007 96.126 99.7703 96.3038 99.8148 96.6001V98.7186L99.2666 99.0445Z" fill="#3A4195"/>
<path d="M105.415 95.252L104.822 95.6371V98.0964C104.822 98.0964 104.911 99.0445 106.022 99.0445C106.022 99.0445 106.467 99.1038 107.119 98.4668C107.119 98.4668 107.326 99.0445 108.289 99.0445C108.289 99.0445 109.104 99.1482 109.326 98.0816V95.326L108.733 95.6075V98.0964C108.733 98.0964 108.615 98.4964 108.096 98.4964C108.096 98.4964 107.415 98.5705 107.4 97.9779V95.252L106.778 95.5779V98.0519C106.778 98.0519 106.63 98.4816 105.978 98.4816C105.978 98.4816 105.474 98.5705 105.444 97.9482L105.415 95.252Z" fill="#3A4195"/>
<path d="M113.267 94.0371L112.63 94.3482V99.1482L113.341 98.7038V96.3038C113.341 96.3038 113.652 95.9927 114.111 95.9927C114.111 95.9927 114.615 95.9186 114.615 96.5853V99.1482L115.252 98.8075V96.3482C115.252 96.3482 115.252 95.4149 113.933 95.4149C113.933 95.4149 113.785 95.3556 113.326 95.7853L113.267 94.0371Z" fill="#3A4195"/>
<path d="M119.281 94.0371L118.585 94.3778V99.2371L119.281 98.7334V96.8519H121.059V99.2371L121.785 98.6593V94.0371L121.03 94.4371V96.2593H119.267L119.281 94.0371Z" fill="#3A4195"/>
</g>
<defs>
<clipPath id="clip0_3_293">
<rect width="263" height="153" rx="5" fill="white"/>
</clipPath>
</defs>
</svg>
