<svg width="263" height="153" viewBox="0 0 263 153" fill="none" xmlns="http://www.w3.org/2000/svg">
<rect width="263" height="153" rx="5" fill="white"/>
<g clip-path="url(#clip0_3_302)">
<path d="M132.821 123.848H132.76C130.885 123.145 82.4532 104.125 89.3448 39.9522C89.3448 39.9522 101.56 30.6738 132.76 30.6738H132.816C164.015 30.6738 176.231 39.9522 176.231 39.9522C183.128 104.125 134.696 123.145 132.821 123.848Z" fill="url(#paint0_linear_3_302)"/>
<path d="M131.147 122.174H131.086C129.211 121.471 80.7792 102.452 87.6709 38.2784C87.6709 38.2784 99.8863 29 131.086 29H131.142C162.341 29 174.557 38.2784 174.557 38.2784C181.454 102.452 133.022 121.471 131.147 122.174Z" fill="url(#paint1_linear_3_302)"/>
<path d="M131.142 116.885C131.142 116.885 117.235 111.797 105.902 97.274L105.857 97.2293C103.132 93.7265 100.772 89.9538 98.8146 85.9704C93.3906 74.9457 90.0871 60.4172 92.1183 41.5368C92.1183 41.5368 96.4319 38.2673 106.555 35.8236C112.581 34.3674 120.673 33.2069 131.142 33.2069C131.086 33.1455 131.142 116.885 131.142 116.885Z" fill="#8D267D"/>
<path d="M163.117 86.5673V86.6064C161.254 90.2954 159.043 93.7983 156.515 97.0675C145.143 111.741 131.086 116.885 131.086 116.885V97.2796V79.2863V33.2069C159.144 33.2069 170.148 41.5368 170.148 41.5368C172.185 60.763 168.72 75.4756 163.117 86.5673Z" fill="#94939B"/>
<path d="M131.086 79.3198V97.2962L110.478 61.5051L105.902 97.274L105.857 97.2293C103.132 93.7265 100.772 89.9538 98.8146 85.9704L98.7812 85.8977L106.532 35.8235L131.086 79.3198H131.086Z" fill="white"/>
<path d="M163.401 85.909C163.306 86.1377 163.212 86.3553 163.117 86.5785V86.6175C161.253 90.3027 159.043 93.8019 156.515 97.0676L156.286 97.2962L151.733 61.5051L131.086 97.2795V79.2863L155.639 35.8235L163.401 85.909Z" fill="white"/>
</g>
<defs>
<linearGradient id="paint0_linear_3_302" x1="174.054" y1="61.4549" x2="105.073" y2="83.0373" gradientUnits="userSpaceOnUse">
<stop stop-color="#D3D2D2"/>
<stop offset="1" stop-color="#D3D2D2"/>
</linearGradient>
<linearGradient id="paint1_linear_3_302" x1="87.0012" y1="75.5983" x2="175.232" y2="75.5983" gradientUnits="userSpaceOnUse">
<stop stop-color="#939598"/>
<stop offset="1" stop-color="#FDFDFD"/>
</linearGradient>
<clipPath id="clip0_3_302">
<rect width="90" height="94.8649" fill="white" transform="translate(87 29)"/>
</clipPath>
</defs>
</svg>
