<svg width="263" height="153" viewBox="0 0 263 153" fill="none" xmlns="http://www.w3.org/2000/svg">
<rect width="263" height="153" rx="5" fill="white"/>
<g clip-path="url(#clip0_3_253)">
<path fill-rule="evenodd" clip-rule="evenodd" d="M50.7095 98.4189C62.6993 98.4189 72.4189 88.6993 72.4189 76.7095C72.4189 64.7196 62.6993 55 50.7095 55C38.7196 55 29 64.7196 29 76.7095C29 88.6993 38.7196 98.4189 50.7095 98.4189ZM42.7838 72.9189C43.5761 72.9189 44.3518 72.6913 45.0184 72.2631C45.6851 71.835 46.2147 71.2243 46.5443 70.5037C46.8738 69.7832 46.9894 68.9831 46.8774 68.1988C46.7653 67.4144 46.4302 66.6788 45.912 66.0794C47.6491 65.1376 49.5943 64.6458 51.5703 64.6486C53.3428 64.6486 55.0238 65.036 56.5345 65.7307C56.1226 66.1077 55.7913 66.5643 55.5606 67.0728C55.33 67.5813 55.2047 68.1313 55.1923 68.6896C55.18 69.2479 55.2809 69.8029 55.4888 70.3211C55.6968 70.8393 56.0076 71.3101 56.4025 71.7049C56.7973 72.0998 57.2681 72.4106 57.7863 72.6186C58.3045 72.8266 58.8595 72.9274 59.4178 72.9151C59.9761 72.9027 60.5261 72.7775 61.0346 72.5468C61.5432 72.3161 61.9997 71.9848 62.3767 71.5729C63.0925 73.1299 63.4619 74.8236 63.4595 76.5372C63.4595 83.1031 58.1368 88.4257 51.5709 88.4257C45.005 88.4257 39.6824 83.1031 39.6824 76.5372C39.6824 75.0161 39.9678 73.5612 40.4888 72.2242C41.1679 72.6785 41.9668 72.9203 42.7838 72.9189ZM62.3767 71.5736C61.187 68.9927 59.1154 66.9211 56.5345 65.7314C57.3201 65.0122 58.353 64.624 59.4178 64.6475C60.4826 64.671 61.4973 65.1045 62.2504 65.8577C63.0036 66.6108 63.4371 67.6255 63.4606 68.6903C63.4841 69.7551 63.0959 70.788 62.3767 71.5736ZM45.912 66.0794C43.4354 67.4231 41.5143 69.5998 40.4888 72.2242C39.9983 71.8967 39.5835 71.468 39.2723 70.9669C38.9611 70.4659 38.7607 69.9041 38.6846 69.3192C38.6084 68.7343 38.6583 68.1399 38.8308 67.5759C39.0033 67.0118 39.2945 66.4912 39.6848 66.049C40.075 65.6068 40.5554 65.2532 41.0936 65.0119C41.6319 64.7706 42.2155 64.6473 42.8053 64.6502C43.3951 64.6531 43.9775 64.7821 44.5133 65.0286C45.0492 65.2751 45.5261 65.6334 45.912 66.0794Z" fill="black"/>
<path d="M91.3826 70.8824C89.9258 69.7496 88.1336 69.1335 86.2882 69.1312C81.7395 69.1312 78.0324 72.8383 78.0324 77.387C78.0324 81.9356 81.7395 85.6428 86.2882 85.6428C88.2896 85.6428 90.1318 84.915 91.5646 83.7323L89.5177 81.3898C86.5156 83.6641 81.5803 81.8674 81.5803 77.387C81.5803 73.1112 86.2427 71.2463 89.3358 73.2477L91.3826 70.8824ZM101.085 72.5654V69.3813H94.5123V72.5654H96.218V82.1403H94.5123V85.3244H101.085V82.1403H99.4021V72.5654H101.085ZM103.813 69.3586V85.3016H106.997V75.4765L108.589 78.9108V78.9335L111.568 85.3244H114.957L111.637 78.5014C113.615 78.1602 114.866 76.0906 114.866 74.1574C114.866 71.5192 112.728 69.3586 110.09 69.3586H103.813ZM108.725 72.5427H110.09C110.977 72.5427 111.682 73.2704 111.682 74.1574C111.683 74.5435 111.542 74.9165 111.287 75.2057C111.031 75.4949 110.678 75.6803 110.295 75.7267L108.725 72.5427ZM130.006 70.8824C128.549 69.7496 126.757 69.1335 124.912 69.1312C120.363 69.1312 116.656 72.8383 116.656 77.387C116.656 81.9356 120.363 85.6428 124.912 85.6428C126.913 85.6428 128.755 84.915 130.188 83.7323L128.141 81.3898C125.139 83.6641 120.204 81.8674 120.204 77.387C120.204 73.1112 124.866 71.2463 127.959 73.2477L130.006 70.8824ZM136.32 69.3813H133.136V85.3016H142.256V82.1403H136.32V69.3813ZM155.395 69.3813H144.774V85.3244H155.327V82.1403H147.958V78.6833H154.099V75.4993H147.958V72.5654H155.395V69.3813ZM158.299 69.3813V85.3244H161.483V78.9562H163.462C164.728 78.9562 165.943 78.4531 166.839 77.5574C167.734 76.6617 168.238 75.4469 168.238 74.1802C168.238 71.5419 166.1 69.3813 163.462 69.3813H158.299ZM161.483 75.7722V72.5654H163.462C164.326 72.5654 165.054 73.2932 165.054 74.1802C165.052 74.602 164.884 75.0062 164.586 75.3045C164.288 75.6028 163.883 75.7709 163.462 75.7722H161.483ZM177.064 69.3813H176.132L168.444 84.4829V85.3244H184.205V84.4829L177.064 69.3813ZM173.198 82.1403L176.518 75.6357L179.566 82.1403H173.198ZM198.319 85.3244L189.358 76.0224V85.3244H186.174V69.3813H187.174L195.976 78.2967V69.3813H199.16V85.3244H198.319ZM202.121 69.3813V85.3016H203.417V85.3244H206.624C207.693 85.3244 208.739 85.1197 209.717 84.6875C210.672 84.3009 211.514 83.7096 212.242 82.9818C212.982 82.2697 213.563 81.4095 213.947 80.4573C214.38 79.4793 214.584 78.4332 214.584 77.3415C214.584 76.2725 214.38 75.2264 213.947 74.2484C213.561 73.2932 212.992 72.4517 212.242 71.7012C211.517 70.9758 210.66 70.3967 209.717 69.9954C208.737 69.5871 207.686 69.3784 206.624 69.3813H202.121ZM206.624 72.5654C207.443 72.5654 208.216 72.7701 208.876 73.134L205.305 80.8894V72.5654H206.624ZM206.397 82.1403L210.127 74.0892C210.923 74.9307 211.4 76.0906 211.4 77.3415C211.4 79.9797 209.262 82.1403 206.624 82.1403H206.397ZM224.083 69.3813H223.15L215.463 84.4829V85.3244H231.224V84.4829L224.083 69.3813ZM220.216 82.1403L223.537 75.6357L226.584 82.1403H220.216Z" fill="black"/>
</g>
<defs>
<clipPath id="clip0_3_253">
<rect width="204" height="43.4189" fill="white" transform="translate(29 55)"/>
</clipPath>
</defs>
</svg>
