<svg width="263" height="153" viewBox="0 0 263 153" fill="none" xmlns="http://www.w3.org/2000/svg">
<rect width="263" height="153" rx="5" fill="white"/>
<g clip-path="url(#clip0_3_282)">
<path fill-rule="evenodd" clip-rule="evenodd" d="M77 21H186.679V132H77V21Z" fill="#D94F00"/>
<path fill-rule="evenodd" clip-rule="evenodd" d="M139.402 42.5242H167.518V70.697H139.402V42.5242ZM105.411 84.9477V87.7038H110.257V102.285H113.598V87.5924H118.11V84.8363L105.411 84.9496V84.9477ZM102.915 88.3645V85.6084C100.234 84.3965 97.1518 84.0302 93.9954 85.6084C88.8192 87.9228 88.6342 99.3834 93.8123 101.624C96.7855 103.131 102.987 102.432 103.612 101.109V92.0362H97.4462V94.4242H100.161V99.2002C91.2412 103.535 89.5894 82.7069 102.915 88.3645ZM123.544 94.277H126.737C129.38 94.3884 130.078 99.3834 126.627 99.3456H123.544V94.277ZM123.544 87.2621H126.737C129.38 87.7397 128.426 91.67 126.627 91.7795H123.544V87.2621ZM120.241 84.5815V102.138H129.013C133.491 100.522 133.676 93.5804 129.013 92.8442C133.308 92.3685 133.529 84.4701 126.114 84.4701L120.241 84.5815ZM135.73 89.5028V92.1098C138.078 91.4491 143.181 89.6123 142.703 93.5068C138.226 93.2123 135.179 94.0202 134.665 96.8103C133.821 102.836 140.281 103.423 142.998 100.448V101.881H146.08V91.3019C145.31 87.885 140.21 87.4452 135.73 89.5028ZM138.335 96.2988C139.033 95.3794 141.272 95.4153 142.777 95.857V98.1714C140.319 100.814 136.355 99.6042 138.337 96.2969L138.335 96.2988ZM152.469 92.6252C153.277 91.7436 157.571 90.0899 158.232 92.6252V101.954H161.681V92.074C160.947 87.9587 157.018 87.2243 152.248 90.0163V88.474H148.982V102.028H152.431L152.469 92.6252ZM172.509 88.3268L167.995 94.3865L172.768 101.843L176.915 101.734L171.667 94.5715L176.402 88.4363L172.511 88.3268H172.509ZM164.252 83.8811H167.665V101.843H164.25V83.883L164.252 83.8811Z" fill="white"/>
<path fill-rule="evenodd" clip-rule="evenodd" d="M139.402 42.5242H167.518V70.697H139.402V42.5242Z" fill="white"/>
</g>
<defs>
<clipPath id="clip0_3_282">
<rect width="109.679" height="111" fill="white" transform="translate(77 21)"/>
</clipPath>
</defs>
</svg>
