<svg width="263" height="153" viewBox="0 0 263 153" fill="none" xmlns="http://www.w3.org/2000/svg">
<rect width="263" height="153" rx="5" fill="white"/>
<g clip-path="url(#clip0_3_322)">
<path d="M160.348 83.5623V89.6841H156.688V69.7284C158.005 69.8481 159.527 68.8563 160.621 70.5321C164.64 68.5143 167.718 68.8734 170.129 71.6607C172.437 74.3283 172.574 78.9282 170.454 81.8694C168.162 85.0671 165.17 85.5972 160.348 83.5623ZM167.991 76.9788C167.974 74.5335 166.333 72.8235 164.041 72.8577C161.75 72.8919 160.125 74.6703 160.142 77.0814C160.177 79.4754 161.87 81.2367 164.127 81.2196C166.384 81.2025 168.008 79.407 167.991 76.9788ZM178.61 78.0903C179.26 80.9802 181.945 82.485 184.271 80.9631C186.323 79.6293 187.537 80.6895 189.11 81.459C186.921 84.7935 182.543 85.8708 178.85 84.0924C175.361 82.3995 173.754 78.1587 175.105 74.2428C176.422 70.4466 180.149 68.5314 184.424 69.4377C188.101 70.2072 190.358 73.6101 189.999 78.0903H178.61ZM178.867 75.0123H186.134C185.314 73.2168 183.98 72.5328 182.321 72.6012C180.799 72.6867 179.465 73.2339 178.867 75.0123Z" fill="#253E4B"/>
<path d="M133.552 64.6838C135.929 64.6838 138.203 64.5299 140.46 64.718C143.744 65.0087 145.419 67.0265 145.419 70.3268C145.419 73.4561 143.556 75.6107 140.409 76.0211C139.452 76.1408 138.494 76.1237 137.382 76.175V84.2975H133.535C133.552 77.7995 133.552 71.3015 133.552 64.6838ZM137.485 72.2078C140.546 72.242 141.452 71.7803 141.401 70.2755C141.35 68.7878 140.375 68.3261 137.485 68.4629V72.2078Z" fill="#233C49"/>
<path d="M83.5345 64C89.5879 64 94.0681 68.446 94.0852 74.4481C94.0852 80.4844 89.6221 84.9475 83.5858 84.9475C77.6692 84.9475 73.1377 80.4673 73.1206 74.6191C73.1206 68.5999 77.635 64 83.5345 64ZM83.5687 66.2743C79.1056 66.2743 75.412 70.0534 75.4633 74.602C75.4975 79.0651 79.1569 82.7245 83.5516 82.7587C88.066 82.7758 91.7425 79.0822 91.7596 74.5165C91.7938 69.9679 88.1002 66.2743 83.5687 66.2743ZM130.542 77.2354H117.683C117.564 79.7833 118.778 81.6301 120.984 82.468C123.549 83.4427 125.806 82.5535 128.49 79.4584C129.003 79.6978 129.551 79.9543 130.098 80.2279C128.439 84.1609 124.438 85.8538 120.3 84.4858C116.657 83.2717 114.537 79.1506 115.477 75.115C116.384 71.1478 119.992 68.7367 124.181 69.301C128.063 69.7969 130.748 73.0972 130.542 77.2354ZM127.977 75.286C127.516 72.8407 125.72 71.3872 123.138 71.3017C120.488 71.2162 118.641 72.6013 117.906 75.286H127.977Z" fill="#2A424F"/>
<path d="M100.481 84.349H98.4457V69.7456C99.0442 69.6943 99.6085 69.6601 100.292 69.5917C100.412 70.2415 100.515 70.7887 100.634 71.4385C100.925 71.2333 101.199 71.0794 101.438 70.8742C103.456 69.1642 105.713 68.6341 108.158 69.7285C110.57 70.8058 111.185 72.9775 111.202 75.3886C111.219 78.3127 111.202 81.2539 111.202 84.2977H109.082C109.082 81.5104 109.133 78.7744 109.065 76.0555C108.979 72.6355 108.09 71.4214 105.696 71.3188C103.097 71.1991 100.891 73.1314 100.617 75.97C100.446 77.851 100.515 79.7491 100.481 81.6472C100.463 82.4851 100.481 83.3401 100.481 84.349Z" fill="#2E4652"/>
<path d="M152.516 84.3319H148.857V69.7456H152.516V84.3319Z" fill="#27404C"/>
<path d="M83.107 88.2647C81.2773 88.2647 79.4647 88.3331 77.635 88.2134C77.1562 88.1792 76.6945 87.6149 76.2328 87.3071C76.6945 86.9822 77.1391 86.3666 77.6008 86.3495C81.3799 86.264 85.159 86.264 88.921 86.3495C89.3998 86.3666 89.8615 86.948 90.3232 87.2558C89.8615 87.5807 89.434 88.1792 88.9552 88.2134C87.0058 88.316 85.0564 88.2647 83.107 88.2647Z" fill="#008AB0"/>
<path d="M153.097 66.1717C152.995 67.7278 152.174 68.617 150.618 68.5828C149.062 68.5486 148.275 67.6252 148.275 66.052C148.292 64.4446 149.181 63.6238 150.703 63.6409C152.311 63.658 152.995 64.6669 153.097 66.1717Z" fill="#27404D"/>
</g>
<defs>
<clipPath id="clip0_3_322">
<rect width="118" height="27" fill="white" transform="translate(73 63)"/>
</clipPath>
</defs>
</svg>
