<svg width="263" height="153" viewBox="0 0 263 153" fill="none" xmlns="http://www.w3.org/2000/svg">
<rect width="263" height="153" rx="5" fill="white"/>
<g clip-path="url(#clip0_3_323)">
<path d="M177 31H85V123H177V31Z" fill="#FCE012"/>
<path d="M137.765 59.2291H122.522C122.824 59.7084 123.092 60.1427 123.368 60.5705C123.966 61.4969 124.586 62.4105 125.161 63.3479C125.684 64.2017 125.276 65.1199 124.304 65.3167C123.672 65.4455 123.25 65.0987 122.93 64.6129C121.757 62.8343 120.592 61.0556 119.434 59.2769C118.554 57.9313 117.677 56.5841 116.802 55.2354C116.68 55.0514 116.566 54.8536 116.402 54.5914C117.401 54.5914 118.312 54.5748 119.223 54.607C119.38 54.6126 119.568 54.791 119.678 54.9419C119.996 55.3725 120.248 55.8555 120.592 56.2621C120.767 56.4682 121.083 56.6761 121.336 56.677C126.81 56.7 132.284 56.6936 137.758 56.6918C137.806 56.6862 137.853 56.6782 137.9 56.6678C137.867 56.558 137.826 56.4507 137.778 56.3468C137.318 55.5326 136.881 54.7082 136.382 53.9207C136.262 53.7312 135.947 53.5748 135.713 53.5637C134.872 53.5205 134.028 53.5582 133.184 53.5426C132.144 53.5242 131.528 52.8066 131.776 51.9215C131.846 51.6607 132.001 51.4302 132.215 51.2656C132.43 51.1009 132.692 51.011 132.962 51.0098C134.281 51.0006 135.6 51.0006 136.918 51.0098C137.538 51.0098 137.935 51.3778 138.224 51.8847C140.403 55.6782 142.577 59.4744 144.747 63.2734C144.974 63.6718 145.151 63.7859 145.622 63.6221C150.031 62.0839 154.078 62.8254 157.661 65.7767C160.098 67.7851 161.387 70.4688 161.665 73.6115C161.998 77.3733 160.745 80.5722 158.035 83.1675C155.963 85.151 153.45 86.2302 150.576 86.3985C146.951 86.6111 143.828 85.4169 141.263 82.8713C139.382 81.0055 138.261 78.7313 137.978 76.0633C137.518 71.7393 139.014 68.2129 142.333 65.4336C142.483 65.3085 142.628 65.1769 142.784 65.0398L140.117 60.4131C139.737 61.0507 139.377 61.6441 139.027 62.243C136.545 66.4996 134.065 70.7558 131.589 75.0117C131.21 75.6658 130.674 75.9565 129.933 75.9464C128.201 75.9207 126.47 75.9115 124.738 75.8931C124.296 75.8885 124.055 76.0458 123.974 76.5325C123.33 80.4314 121.141 83.2402 117.723 85.1069C115.989 86.0526 114.093 86.4298 112.111 86.4041C109.301 86.3682 106.794 85.5034 104.607 83.7416C102.08 81.7066 100.708 79.0312 100.364 75.8296C100.02 72.628 100.848 69.7686 102.887 67.2736C104.951 64.7463 107.623 63.3277 110.859 62.9579C114.064 62.5899 116.965 63.3682 119.52 65.3259C122.023 67.2441 123.508 69.7935 123.999 72.9104C124.048 73.2195 124.207 73.3465 124.479 73.3474C126.058 73.3548 127.638 73.3732 129.216 73.3263C129.442 73.3198 129.728 73.0199 129.867 72.7853C131.356 70.2719 132.822 67.7446 134.294 65.2211C135.398 63.3314 136.502 61.4414 137.606 59.5511C137.652 59.4646 137.693 59.3708 137.765 59.2291ZM121.708 73.3539C121.395 69.4963 117.793 65.1079 112.273 65.0849C106.879 65.0628 102.636 69.2387 102.544 74.5269C102.452 79.5721 106.361 83.7627 111.396 84.162C117.525 84.6496 121.401 79.8583 121.748 75.974C121.718 75.9622 121.687 75.9545 121.656 75.951C120.123 75.951 118.59 75.9602 117.056 75.9354C116.652 75.9289 116.478 76.1102 116.276 76.4267C115.92 76.9869 115.552 77.573 115.066 78.0109C113.71 79.2299 111.679 79.4112 110.098 78.5436C108.422 77.6236 107.556 75.9409 107.798 74.065C108.031 72.2342 109.42 70.7125 111.191 70.3455C113.169 69.9361 115.119 70.6997 116.017 72.4127C116.43 73.2002 116.904 73.4146 117.729 73.3732C119.04 73.3051 120.357 73.3539 121.708 73.3539ZM146.252 65.8678C146.896 66.9921 147.596 68.0905 148.177 69.247C148.562 70.0115 149.022 70.3215 149.913 70.2801C151.746 70.1955 153.363 71.4016 154.021 73.1699C154.632 74.8093 154.101 76.8158 152.753 77.9631C151.012 79.4452 148.415 79.4452 146.832 77.9631C145.071 76.3144 144.822 73.9151 146.239 72.0005C146.484 71.6703 146.477 71.4191 146.278 71.0916C145.818 70.3326 145.387 69.5579 144.94 68.7916C144.613 68.2322 144.281 67.6747 143.948 67.1126C140.094 69.9342 138.741 75.5039 141.788 79.9926C144.777 84.3966 150.882 85.5126 155.312 82.4867C157.375 81.0775 158.8 78.9119 159.278 76.4593C159.756 74.0067 159.248 71.4647 157.864 69.3841C154.903 64.9524 149.314 64.2983 146.252 65.8678Z" fill="black" stroke="black" stroke-width="0.276" stroke-miterlimit="10"/>
<path d="M117.699 51.0062C119.016 51.0062 120.333 51.0007 121.65 51.0062C122.162 51.0062 122.57 51.2196 122.791 51.7072C123.012 52.1948 122.938 52.6327 122.646 53.0504C122.37 53.4433 121.946 53.5353 121.513 53.5371C118.955 53.5475 116.397 53.5475 113.839 53.5371C112.991 53.5371 112.459 52.9851 112.487 52.1911C112.508 51.4607 113.043 51.0043 113.884 51.0034C115.156 51.0046 116.427 51.0056 117.699 51.0062Z" fill="black" stroke="black" stroke-width="0.276" stroke-miterlimit="10"/>
<path d="M101.133 95.4327V95.9079C101.133 96.4727 101.062 96.979 100.921 97.4267C100.78 97.8745 100.577 98.255 100.311 98.5684C100.046 98.8818 99.7276 99.1212 99.3557 99.2865C98.9872 99.4518 98.5739 99.5345 98.1159 99.5345C97.6716 99.5345 97.2635 99.4518 96.8915 99.2865C96.523 99.1212 96.2027 98.8818 95.9306 98.5684C95.662 98.255 95.4536 97.8745 95.3055 97.4267C95.1574 96.979 95.0834 96.4727 95.0834 95.9079V95.4327C95.0834 94.8678 95.1557 94.3633 95.3004 93.919C95.4485 93.4713 95.6568 93.0907 95.9255 92.7773C96.1941 92.4605 96.5127 92.2194 96.8812 92.0541C97.2531 91.8888 97.6612 91.8061 98.1055 91.8061C98.5636 91.8061 98.9769 91.8888 99.3454 92.0541C99.7173 92.2194 100.036 92.4605 100.301 92.7773C100.57 93.0907 100.775 93.4713 100.916 93.919C101.06 94.3633 101.133 94.8678 101.133 95.4327ZM100.146 95.9079V95.4223C100.146 94.9746 100.1 94.5785 100.007 94.2341C99.9171 93.8897 99.7845 93.6004 99.6088 93.3662C99.4332 93.1321 99.2179 92.9547 98.9631 92.8341C98.7117 92.7136 98.4258 92.6533 98.1055 92.6533C97.7956 92.6533 97.5149 92.7136 97.2635 92.8341C97.0155 92.9547 96.802 93.1321 96.6229 93.3662C96.4472 93.6004 96.3112 93.8897 96.2148 94.2341C96.1183 94.5785 96.0701 94.9746 96.0701 95.4223V95.9079C96.0701 96.3591 96.1183 96.7586 96.2148 97.1064C96.3112 97.4508 96.4489 97.7419 96.628 97.9795C96.8106 98.2137 97.0258 98.3911 97.2738 98.5116C97.5252 98.6321 97.8059 98.6924 98.1159 98.6924C98.4396 98.6924 98.7272 98.6321 98.9786 98.5116C99.23 98.3911 99.4418 98.2137 99.614 97.9795C99.7896 97.7419 99.9222 97.4508 100.012 97.1064C100.101 96.7586 100.146 96.3591 100.146 95.9079ZM103.623 91.9094V99.4312H102.626V91.9094H103.623ZM108.164 91.9094L105.038 95.4172L103.282 97.2408L103.117 96.1766L104.439 94.7197L106.965 91.9094H108.164ZM107.203 99.4312L104.418 95.7633L105.012 94.9729L108.391 99.4312H107.203ZM112.054 92.5758L109.564 99.4312H108.546L111.413 91.9094H112.069L112.054 92.5758ZM114.141 99.4312L111.646 92.5758L111.63 91.9094H112.286L115.164 99.4312H114.141ZM114.012 96.6467V97.4629H109.786V96.6467H114.012ZM118.206 99.4312H116.636L116.646 98.6201H118.206C118.744 98.6201 119.191 98.5082 119.55 98.2843C119.908 98.057 120.176 97.7401 120.356 97.3337C120.538 96.9239 120.629 96.4452 120.629 95.8976V95.4378C120.629 95.0073 120.578 94.625 120.474 94.291C120.371 93.9535 120.22 93.6693 120.02 93.4386C119.82 93.2044 119.575 93.027 119.286 92.9065C119 92.7859 118.671 92.7257 118.299 92.7257H116.605V91.9094H118.299C118.792 91.9094 119.241 91.9921 119.648 92.1574C120.054 92.3193 120.404 92.5552 120.697 92.8651C120.993 93.1717 121.22 93.5436 121.378 93.981C121.537 94.415 121.616 94.904 121.616 95.4482V95.8976C121.616 96.4418 121.537 96.9325 121.378 97.3699C121.22 97.8039 120.991 98.1741 120.691 98.4806C120.395 98.7871 120.037 99.023 119.617 99.1883C119.2 99.3502 118.73 99.4312 118.206 99.4312ZM117.168 91.9094V99.4312H116.171V91.9094H117.168ZM125.785 92.5758L123.295 99.4312H122.277L125.144 91.9094H125.801L125.785 92.5758ZM127.872 99.4312L125.377 92.5758L125.361 91.9094H126.018L128.895 99.4312H127.872ZM127.743 96.6467V97.4629H123.517V96.6467H127.743ZM132.584 95.9131H130.677L130.667 95.1124H132.398C132.683 95.1124 132.933 95.0641 133.147 94.9677C133.36 94.8713 133.525 94.7335 133.643 94.5544C133.763 94.3719 133.823 94.1549 133.823 93.9035C133.823 93.628 133.77 93.4041 133.663 93.2319C133.56 93.0563 133.4 92.9289 133.183 92.8496C132.969 92.767 132.697 92.7257 132.367 92.7257H130.899V99.4312H129.902V91.9094H132.367C132.752 91.9094 133.097 91.949 133.4 92.0283C133.703 92.104 133.959 92.2246 134.169 92.3899C134.383 92.5517 134.545 92.7584 134.655 93.0098C134.765 93.2612 134.82 93.5626 134.82 93.9138C134.82 94.2238 134.741 94.5045 134.583 94.7559C134.424 95.0039 134.204 95.2071 133.922 95.3655C133.643 95.5239 133.315 95.6255 132.94 95.6703L132.584 95.9131ZM132.537 99.4312H130.285L130.848 98.6201H132.537C132.854 98.6201 133.122 98.565 133.343 98.4548C133.567 98.3446 133.737 98.1896 133.854 97.9898C133.971 97.7866 134.03 97.5473 134.03 97.2718C134.03 96.9928 133.98 96.7517 133.88 96.5485C133.78 96.3453 133.624 96.1886 133.41 96.0784C133.197 95.9682 132.921 95.9131 132.584 95.9131H131.163L131.173 95.1124H133.116L133.327 95.4017C133.689 95.4327 133.996 95.536 134.247 95.7116C134.498 95.8838 134.69 96.1042 134.82 96.3729C134.955 96.6415 135.022 96.9377 135.022 97.2614C135.022 97.7298 134.919 98.1259 134.712 98.4496C134.509 98.7699 134.221 99.0144 133.849 99.1832C133.477 99.3485 133.04 99.4312 132.537 99.4312ZM142.285 95.4327V95.9079C142.285 96.4727 142.215 96.979 142.073 97.4267C141.932 97.8745 141.729 98.255 141.464 98.5684C141.199 98.8818 140.88 99.1212 140.508 99.2865C140.14 99.4518 139.726 99.5345 139.268 99.5345C138.824 99.5345 138.416 99.4518 138.044 99.2865C137.675 99.1212 137.355 98.8818 137.083 98.5684C136.814 98.255 136.606 97.8745 136.458 97.4267C136.31 96.979 136.236 96.4727 136.236 95.9079V95.4327C136.236 94.8678 136.308 94.3633 136.453 93.919C136.601 93.4713 136.809 93.0907 137.078 92.7773C137.347 92.4605 137.665 92.2194 138.034 92.0541C138.406 91.8888 138.814 91.8061 139.258 91.8061C139.716 91.8061 140.129 91.8888 140.498 92.0541C140.87 92.2194 141.188 92.4605 141.454 92.7773C141.722 93.0907 141.927 93.4713 142.068 93.919C142.213 94.3633 142.285 94.8678 142.285 95.4327ZM141.299 95.9079V95.4223C141.299 94.9746 141.252 94.5785 141.159 94.2341C141.07 93.8897 140.937 93.6004 140.761 93.3662C140.586 93.1321 140.37 92.9547 140.116 92.8341C139.864 92.7136 139.578 92.6533 139.258 92.6533C138.948 92.6533 138.667 92.7136 138.416 92.8341C138.168 92.9547 137.954 93.1321 137.775 93.3662C137.6 93.6004 137.464 93.8897 137.367 94.2341C137.271 94.5785 137.223 94.9746 137.223 95.4223V95.9079C137.223 96.3591 137.271 96.7586 137.367 97.1064C137.464 97.4508 137.601 97.7419 137.781 97.9795C137.963 98.2137 138.178 98.3911 138.426 98.5116C138.678 98.6321 138.958 98.6924 139.268 98.6924C139.592 98.6924 139.88 98.6321 140.131 98.5116C140.382 98.3911 140.594 98.2137 140.766 97.9795C140.942 97.7419 141.075 97.4508 141.164 97.1064C141.254 96.7586 141.299 96.3591 141.299 95.9079ZM149.569 95.4327V95.9079C149.569 96.4727 149.499 96.979 149.358 97.4267C149.216 97.8745 149.013 98.255 148.748 98.5684C148.483 98.8818 148.164 99.1212 147.792 99.2865C147.424 99.4518 147.01 99.5345 146.552 99.5345C146.108 99.5345 145.7 99.4518 145.328 99.2865C144.96 99.1212 144.639 98.8818 144.367 98.5684C144.099 98.255 143.89 97.8745 143.742 97.4267C143.594 96.979 143.52 96.4727 143.52 95.9079V95.4327C143.52 94.8678 143.592 94.3633 143.737 93.919C143.885 93.4713 144.093 93.0907 144.362 92.7773C144.631 92.4605 144.949 92.2194 145.318 92.0541C145.69 91.8888 146.098 91.8061 146.542 91.8061C147 91.8061 147.413 91.8888 147.782 92.0541C148.154 92.2194 148.472 92.4605 148.738 92.7773C149.006 93.0907 149.211 93.4713 149.352 93.919C149.497 94.3633 149.569 94.8678 149.569 95.4327ZM148.583 95.9079V95.4223C148.583 94.9746 148.536 94.5785 148.443 94.2341C148.354 93.8897 148.221 93.6004 148.045 93.3662C147.87 93.1321 147.654 92.9547 147.4 92.8341C147.148 92.7136 146.862 92.6533 146.542 92.6533C146.232 92.6533 145.951 92.7136 145.7 92.8341C145.452 92.9547 145.239 93.1321 145.059 93.3662C144.884 93.6004 144.748 93.8897 144.651 94.2341C144.555 94.5785 144.507 94.9746 144.507 95.4223V95.9079C144.507 96.3591 144.555 96.7586 144.651 97.1064C144.748 97.4508 144.886 97.7419 145.065 97.9795C145.247 98.2137 145.462 98.3911 145.71 98.5116C145.962 98.6321 146.242 98.6924 146.552 98.6924C146.876 98.6924 147.164 98.6321 147.415 98.5116C147.667 98.3911 147.878 98.2137 148.051 97.9795C148.226 97.7419 148.359 97.4508 148.448 97.1064C148.538 96.7586 148.583 96.3591 148.583 95.9079ZM152.059 91.9094V99.4312H151.062V91.9094H152.059ZM156.6 91.9094L153.475 95.4172L151.718 97.2408L151.553 96.1766L152.876 94.7197L155.402 91.9094H156.6ZM155.639 99.4312L152.855 95.7633L153.449 94.9729L156.828 99.4312H155.639ZM161.715 97.5301C161.715 97.3544 161.687 97.1994 161.632 97.0651C161.58 96.9274 161.487 96.8034 161.353 96.6932C161.222 96.583 161.04 96.4779 160.805 96.378C160.575 96.2782 160.282 96.1766 159.927 96.0732C159.555 95.963 159.219 95.8408 158.92 95.7065C158.62 95.5687 158.364 95.412 158.15 95.2363C157.937 95.0607 157.773 94.8592 157.659 94.6319C157.546 94.4046 157.489 94.1446 157.489 93.8519C157.489 93.5591 157.549 93.2888 157.67 93.0408C157.79 92.7928 157.962 92.5776 158.186 92.395C158.414 92.2091 158.684 92.0644 158.997 91.9611C159.311 91.8578 159.66 91.8061 160.046 91.8061C160.611 91.8061 161.09 91.9146 161.482 92.1316C161.878 92.3451 162.18 92.6258 162.386 92.9736C162.593 93.318 162.696 93.6865 162.696 94.0792H161.704C161.704 93.7968 161.644 93.5471 161.524 93.3301C161.403 93.1097 161.22 92.9375 160.976 92.8135C160.731 92.6861 160.421 92.6223 160.046 92.6223C159.691 92.6223 159.399 92.6757 159.168 92.7825C158.937 92.8893 158.765 93.0339 158.651 93.2164C158.541 93.399 158.486 93.6073 158.486 93.8415C158.486 93.9999 158.519 94.1446 158.584 94.2755C158.653 94.4029 158.758 94.5217 158.899 94.6319C159.044 94.7421 159.226 94.8437 159.447 94.9367C159.671 95.0297 159.938 95.1193 160.248 95.2054C160.675 95.3259 161.043 95.4602 161.353 95.6083C161.663 95.7564 161.918 95.9234 162.118 96.1094C162.321 96.2919 162.471 96.5003 162.567 96.7345C162.667 96.9652 162.717 97.227 162.717 97.5197C162.717 97.8262 162.655 98.1035 162.531 98.3515C162.407 98.5994 162.23 98.8112 161.999 98.9869C161.768 99.1625 161.491 99.2986 161.167 99.395C160.847 99.488 160.489 99.5345 160.093 99.5345C159.745 99.5345 159.402 99.4863 159.065 99.3898C158.73 99.2934 158.426 99.1487 158.15 98.9559C157.878 98.763 157.659 98.5254 157.494 98.243C157.332 97.9571 157.251 97.6265 157.251 97.2511H158.243C158.243 97.5094 158.293 97.7315 158.393 97.9175C158.493 98.1 158.629 98.2516 158.801 98.3721C158.977 98.4927 159.175 98.5822 159.395 98.6408C159.619 98.6959 159.851 98.7234 160.093 98.7234C160.44 98.7234 160.735 98.6752 160.976 98.5788C161.217 98.4823 161.4 98.3446 161.524 98.1655C161.651 97.9864 161.715 97.7746 161.715 97.5301Z" fill="black"/>
<path d="M112.14 86.0618C118.466 86.0618 123.594 80.9337 123.594 74.6078C123.594 68.2819 118.466 63.1538 112.14 63.1538C105.814 63.1538 100.686 68.2819 100.686 74.6078C100.686 80.9337 105.814 86.0618 112.14 86.0618Z" stroke="black" stroke-width="1.748" stroke-miterlimit="10"/>
<path d="M149.768 86.0618C156.094 86.0618 161.222 80.9337 161.222 74.6078C161.222 68.2819 156.094 63.1538 149.768 63.1538C143.442 63.1538 138.314 68.2819 138.314 74.6078C138.314 80.9337 143.442 86.0618 149.768 86.0618Z" stroke="black" stroke-width="1.748" stroke-miterlimit="10"/>
<path d="M112.094 79.1159C114.558 79.1159 116.556 77.1182 116.556 74.6539C116.556 72.1896 114.558 70.1919 112.094 70.1919C109.63 70.1919 107.632 72.1896 107.632 74.6539C107.632 77.1182 109.63 79.1159 112.094 79.1159Z" fill="black"/>
<path d="M149.814 79.1159C152.278 79.1159 154.276 77.1182 154.276 74.6539C154.276 72.1896 152.278 70.1919 149.814 70.1919C147.35 70.1919 145.352 72.1896 145.352 74.6539C145.352 77.1182 147.35 79.1159 149.814 79.1159Z" fill="black"/>
</g>
<defs>
<clipPath id="clip0_3_323">
<rect width="92" height="92" fill="white" transform="translate(85 31)"/>
</clipPath>
</defs>
</svg>
