<svg width="263" height="153" viewBox="0 0 263 153" fill="none" xmlns="http://www.w3.org/2000/svg">
<rect width="263" height="153" rx="5" fill="white"/>
<g clip-path="url(#clip0_3_64)">
<path d="M136.651 54.6433C136.676 54.6006 136.705 54.6006 136.74 54.6433L136.688 54.6861L136.651 54.6433Z" fill="#0124DD"/>
<path d="M92.0081 69.5742C92.5697 67.8759 93.1021 66.2709 93.6229 64.6795C93.687 64.4852 93.8172 64.4405 93.9863 64.4094C96.7981 63.8848 99.6215 63.4378 102.494 63.5797C104.52 63.6749 106.469 64.0888 108.214 65.1769C110.581 66.6498 111.664 68.8688 111.817 71.5892C111.906 73.1534 111.652 74.6981 111.428 76.2293C110.964 79.3499 110.486 82.4667 110.037 85.5873C110.025 85.7181 109.978 85.8433 109.9 85.9496C109.823 86.0559 109.719 86.1395 109.598 86.1916C107.767 87.1962 105.781 87.7461 103.741 88.0803C101.216 88.5178 98.6406 88.5832 96.0966 88.2746C93.9766 88.0084 92.0003 87.3497 90.4613 85.7913C89.7935 85.1075 89.275 84.2923 88.9388 83.3975C88.6027 82.5026 88.4562 81.5477 88.5086 80.5933C88.5611 79.6389 88.8113 78.7058 89.2434 77.8532C89.6756 77.0006 90.2802 76.2471 91.019 75.6405C92.5969 74.3425 94.4624 73.6974 96.4269 73.2797C99.402 72.6501 102.404 72.7356 105.408 72.9649C105.783 72.9921 105.865 72.8774 105.883 72.5432C106.017 70.1998 104.61 68.5171 102.14 68.0644C100.426 67.7496 98.7432 68.0216 97.0604 68.2975C95.3434 68.5801 93.6533 69.0071 92.0081 69.5742ZM102.517 76.6432C101.447 76.6362 100.379 76.7148 99.3223 76.8783C98.1797 77.0726 97.0701 77.3738 96.1491 78.1316C95.1075 78.9885 94.8296 80.1388 95.0356 81.4057C95.2299 82.5619 96.0383 83.1953 97.0857 83.5684C97.5658 83.7373 98.0652 83.845 98.5722 83.889C100.445 84.0697 102.264 83.7433 104.071 83.2964C104.194 83.2802 104.306 83.2197 104.387 83.1262C104.468 83.0327 104.512 82.9128 104.511 82.7892C104.757 80.953 105.002 79.1148 105.274 77.2825C105.321 76.9657 105.216 76.9055 104.952 76.855C104.147 76.7221 103.333 76.6513 102.517 76.6432Z" fill="#114185"/>
<path d="M178.76 82.3714C178.449 83.3158 178.177 84.161 177.889 85.0063C177.66 85.7 177.415 86.3878 177.198 87.0874C177.177 87.1944 177.125 87.2929 177.048 87.3704C176.971 87.4478 176.873 87.5008 176.766 87.5226C173.793 88.3154 170.781 88.7448 167.711 88.3581C164.213 87.9171 161.322 86.415 159.55 83.207C158.459 81.2211 158.114 79.0584 158.261 76.8297C158.543 72.5899 160.309 69.0748 163.593 66.3525C165.589 64.697 167.917 63.8459 170.478 63.5933C172.245 63.4204 174.001 63.4534 175.725 63.9333C179.234 64.9049 181.574 67.6349 182.023 71.2491C182.281 73.3263 182.023 75.3666 181.686 77.4088C181.646 77.6633 181.517 77.6711 181.323 77.6711C180.381 77.6711 179.436 77.6711 178.494 77.6711C173.96 77.6711 169.426 77.6711 164.891 77.6711C164.526 77.6711 164.419 77.7605 164.413 78.1355C164.363 81.19 166.05 83.207 169.052 83.7219C171.271 84.1105 173.43 83.7744 175.585 83.3041C176.663 83.0632 177.723 82.7516 178.76 82.3714ZM170.832 73.7052H175.185C176.514 73.7052 176.514 73.7052 176.558 72.3761C176.65 69.6849 175.004 67.9303 172.328 67.7807C169.128 67.6 166.11 69.9181 165.333 73.3574C165.268 73.643 165.333 73.713 165.624 73.711C167.355 73.6974 169.083 73.7052 170.832 73.7052Z" fill="#114185"/>
<path d="M189.933 88.4359C187.08 88.4169 184.248 87.9447 181.543 87.0368C181.273 86.9436 181.201 86.8658 181.298 86.5724C181.742 85.2265 182.168 83.8741 182.575 82.5152C182.676 82.181 182.794 82.2082 183.062 82.3365C185.66 83.6073 188.595 84.021 191.443 83.5179C192.111 83.4161 192.746 83.1563 193.293 82.7601C193.546 82.5845 193.757 82.3543 193.91 82.0866C194.062 81.8188 194.153 81.5203 194.175 81.2129C194.197 80.9055 194.15 80.597 194.037 80.3103C193.924 80.0235 193.748 79.7657 193.522 79.5559C193.029 79.0987 192.474 78.7116 191.875 78.4056C190.388 77.5739 188.876 76.7947 187.464 75.831C183.669 73.233 184.131 67.8254 187.868 65.4528C189.523 64.4016 191.336 63.875 193.262 63.6749C196.472 63.3426 199.576 63.8925 202.634 64.8136C202.914 64.8971 202.986 64.9729 202.879 65.2702C202.418 66.5468 201.973 67.8312 201.556 69.1234C201.445 69.4634 201.313 69.4381 201.05 69.3177C199.137 68.415 197.043 67.963 194.927 67.9964C193.901 68.0216 192.901 68.1907 192.032 68.7969C191.663 69.0324 191.381 69.3825 191.23 69.7936C191.079 70.2046 191.067 70.6539 191.196 71.0723C191.364 71.5415 191.68 71.9434 192.096 72.2168C192.996 72.893 194.026 73.3496 195.011 73.8898C196.216 74.5191 197.367 75.2484 198.45 76.07C201.653 78.6115 201.328 83.4538 198.256 85.9137C196.274 87.4974 193.954 88.1308 191.486 88.3562C190.866 88.4106 190.25 88.4203 189.933 88.4359Z" fill="#114185"/>
<path d="M210.895 88.4359C208.079 88.4087 205.286 87.9412 202.615 87.0504C202.306 86.9475 202.226 86.8561 202.341 86.5297C202.78 85.2123 203.196 83.8871 203.6 82.558C203.697 82.2354 203.794 82.1888 204.109 82.3404C206.696 83.5994 209.614 84.014 212.449 83.5256C213.057 83.4303 213.639 83.2135 214.161 82.8883C215.45 82.0664 215.607 80.5566 214.519 79.4995C214.062 79.0894 213.555 78.74 213.009 78.46C211.454 77.5778 209.84 76.7889 208.376 75.7396C205.001 73.301 205.421 68.8882 207.484 66.6731C208.876 65.1827 210.632 64.3822 212.581 63.9528C215.168 63.3698 217.752 63.5097 220.335 63.9877C221.423 64.182 222.488 64.4774 223.553 64.765C223.906 64.8641 224.035 64.969 223.885 65.3732C223.436 66.5915 223.028 67.8234 222.632 69.0651C222.521 69.4051 222.41 69.4537 222.076 69.308C220.188 68.4217 218.126 67.9708 216.04 67.9886C215.069 68.0061 214.13 68.1499 213.283 68.659C212.48 69.1389 212.074 69.8365 212.195 70.7964C212.27 71.4065 212.638 71.832 213.1 72.1818C214.072 72.9182 215.189 73.404 216.246 73.9869C217.451 74.6534 218.64 75.3471 219.692 76.2429C222.637 78.7689 222.305 83.4518 219.35 85.8613C217.762 87.1573 215.92 87.8296 213.932 88.1774C212.928 88.3406 211.912 88.427 210.895 88.4359Z" fill="#114185"/>
<path d="M133.911 82.7154C133.812 83.2983 133.561 83.821 133.377 84.3709C133.025 85.4182 132.65 86.4559 132.302 87.5051C132.277 87.61 132.218 87.7042 132.136 87.774C132.054 87.8438 131.951 87.8857 131.844 87.8937C129.512 88.2824 127.155 88.5291 124.786 88.3504C121.251 88.0842 118.22 86.7959 116.137 83.7841C114.668 81.6622 114.149 79.2508 114.279 76.7112C114.497 72.4752 116.292 69.0087 119.601 66.3544C121.498 64.8349 123.729 64.0888 126.105 63.7779C129.047 63.3609 132.043 63.54 134.914 64.3045C135.462 64.4541 135.99 64.6639 136.529 64.8388C136.723 64.901 136.773 64.9845 136.702 65.1963C136.243 66.5371 135.788 67.8817 135.359 69.2322C135.264 69.5295 135.13 69.4692 134.937 69.3934C133.565 68.8309 132.112 68.4904 130.633 68.385C127.433 68.2043 124.65 69.0845 122.652 71.7485C120.781 74.2454 120.491 78.392 122.495 80.8986C123.74 82.4531 125.384 83.2769 127.335 83.5043C129.44 83.7491 131.474 83.343 133.484 82.7659C133.612 82.729 133.742 82.7037 133.872 82.6726L133.911 82.7154Z" fill="#114185"/>
<path d="M156.064 82.6882C155.617 83.9745 155.104 85.2472 154.736 86.5608C154.47 87.5187 154.021 87.9734 152.976 88.0783C150.061 88.3698 147.146 88.6963 144.231 87.9248C139.647 86.7065 136.653 83.0496 136.404 78.2968C136.132 73.132 138.11 69.0048 142.271 65.9522C144.02 64.6717 146.06 64.0655 148.19 63.7876C151.131 63.372 154.125 63.5504 156.996 64.3122C157.529 64.458 158.04 64.6756 158.57 64.8291C158.848 64.9107 158.856 65.037 158.765 65.2799C158.32 66.5798 157.879 67.8798 157.465 69.1894C157.366 69.5023 157.247 69.4906 156.992 69.3935C154.956 68.6162 152.873 68.1946 150.675 68.4219C146.942 68.8222 144.101 71.2899 143.384 74.9216C142.867 77.5428 143.341 79.9406 145.43 81.7963C147.096 83.2731 149.122 83.685 151.281 83.5587C152.804 83.4584 154.309 83.1713 155.762 82.7037C155.85 82.6882 155.928 82.6163 156.064 82.6882Z" fill="#114185"/>
<path d="M82.0356 77.3407L57.8293 53.1355V56.8507L78.3202 77.3407L78.328 77.3485L60.5789 95.0968L60.5575 95.0754L42.82 77.3407L42.8045 77.3252L51.5119 68.6182H47.7324L39.0172 77.333L39.025 77.3407L60.5497 98.8645L60.5575 98.8567L82.0551 77.3602L82.0356 77.3407Z" fill="#FE6309"/>
<path d="M57.8215 59.4078V63.1231L72.0476 77.3485L60.5867 88.8089L49.116 77.3407L49.1005 77.3252L57.8079 68.6182H54.0284L45.3132 77.333L45.3209 77.3407L58.6882 90.7073L60.5575 92.5766L62.458 90.6782L75.7747 77.3602L57.8215 59.4078Z" fill="#FE6309"/>
<path d="M69.5001 77.3407L62.4016 70.2348L60.5128 68.3461L58.6551 70.2037L51.5197 77.333L58.659 84.4719L60.5284 86.3412L62.4249 84.4428L69.5195 77.3602L69.5001 77.3407ZM60.5614 82.5871L55.3148 77.3407L55.2992 77.3252L60.5323 72.0924L65.7789 77.3388L60.5614 82.5871Z" fill="#FE6309"/>
</g>
<defs>
<clipPath id="clip0_3_64">
<rect width="185" height="46" fill="white" transform="translate(39 53)"/>
</clipPath>
</defs>
</svg>
