<svg width="263" height="153" viewBox="0 0 263 153" fill="none" xmlns="http://www.w3.org/2000/svg">
<rect width="263" height="153" rx="5" fill="white"/>
<g clip-path="url(#clip0_14_3451)">
<path d="M112.128 77.8762V82.5972C111.918 82.6794 111.689 82.8485 111.461 82.8462C106.856 82.8097 102.241 82.9651 97.6545 82.6474C91.2815 82.2087 86.396 76.7543 86.1767 70.2784C85.9642 63.9351 90.6874 58.2179 96.9576 57.2536C97.6608 57.1347 98.3719 57.0682 99.0849 57.0548C103.36 57.0365 107.636 57.0548 112.048 57.0548V62.034C108.015 62.034 103.952 61.9997 99.8893 62.034C96.4617 62.0705 93.7196 63.3867 92.2024 66.6498C89.9973 71.3753 92.7896 76.8868 97.9561 77.5815C100.828 77.9676 103.776 77.81 106.69 77.874C108.44 77.906 110.19 77.8762 112.128 77.8762ZM169.458 57.0023V62.0157C168.123 62.0157 166.791 61.9905 165.461 62.0157C161.967 62.0979 158.435 61.9106 154.993 62.379C151.086 62.9114 148.625 66.3984 148.769 70.3264C148.816 72.1641 149.532 73.9215 150.784 75.268C152.035 76.6146 153.735 77.4576 155.565 77.6386C158.263 77.9082 161.001 77.8283 163.72 77.8671C165.585 77.8968 167.449 77.8671 169.401 77.8671V83.1227C163.885 82.8577 158.332 83.0999 152.971 82.1973C147.089 81.2056 143.189 75.2804 143.538 69.401C143.918 63.0188 148.387 58.0534 154.562 57.1965C155.59 57.0643 156.626 57.0002 157.662 57.0045C161.54 56.9908 165.416 57.0023 169.458 57.0023ZM83.4552 57.1554V62.0157C79.9248 62.0157 76.3852 61.9837 72.8479 62.0317C71.4312 62.0522 69.9848 62.0979 68.6092 62.3996C65.0491 63.1833 62.5675 66.6223 62.7457 70.3081C62.924 73.9939 65.7163 77.2433 69.3427 77.602C72.2356 77.8877 75.165 77.8145 78.0784 77.8694C79.8174 77.9014 81.5563 77.8694 83.3958 77.8694V82.8782C82.0681 82.8782 80.7428 82.8919 79.4152 82.8782C76.0447 82.8325 72.6651 82.9399 69.3107 82.6863C66.1749 82.4755 63.2319 81.0975 61.062 78.8239C58.892 76.5504 57.6527 73.5463 57.5883 70.4041C57.4078 63.6266 62.0396 57.85 68.7577 57.2399C73.5632 56.8035 78.4418 57.1554 83.4552 57.1554Z" fill="#060606"/>
<path d="M224.397 78.6783V82.7685H219.37V78.9776C217.46 77.9471 215.655 77.1884 214.092 76.0847C212.583 75.0571 211.336 73.6915 210.448 72.0969C209.56 70.5022 209.057 68.7223 208.978 66.8988C208.786 63.686 208.939 60.4527 208.939 57.1142H214.174C214.174 60.2036 214.064 63.2313 214.204 66.2544C214.364 69.7117 216.272 72.079 219.478 73.2284C224.601 75.0565 229.532 71.1353 229.676 65.1439C229.742 62.4978 229.676 59.8494 229.676 57.1028H235C234.806 61.1199 235.057 65.1782 234.314 69.0445C233.323 74.1973 229.484 77.0787 224.397 78.6783Z" fill="#070707"/>
<path d="M190.551 62.0683H180.364V57.1143H206.071V61.9974H195.871V82.7914H190.551V62.0683Z" fill="#090909"/>
<path d="M54.8051 62.0225H44.5087V82.7913H39.333V62.0659H29V57.0845H54.8051V62.0225Z" fill="#050505"/>
<path d="M120.032 72.4196V82.7503H114.961V57.1143H120.002V67.3444H132.403V72.4173L120.032 72.4196Z" fill="#030303"/>
<path d="M140.796 82.8075H135.769V57.1189H140.796V82.8075Z" fill="#0F0F0F"/>
<path d="M177.277 82.7913H172.298V57.1416H177.286L177.277 82.7913Z" fill="#060606"/>
<path d="M70.0807 72.3237C70.0464 71.8804 69.9961 71.5033 69.9916 71.1263V67.5593H83.43V72.3237H70.0807Z" fill="#070707"/>
<path d="M150.851 96.2551C148.851 96.1911 147.21 94.571 147.242 92.695C147.279 90.6841 149.116 89.1166 151.337 89.2034C153.282 89.2788 154.939 91.0086 154.849 92.8732C154.756 94.8361 152.996 96.3236 150.851 96.2551Z" fill="#D9A80D"/>
<path d="M135.623 92.7452C135.602 94.7423 133.921 96.2847 131.805 96.2482C129.689 96.2116 128.059 94.6189 128.11 92.6172C128.158 90.7595 129.851 89.1896 131.832 89.1896C133.909 89.1691 135.641 90.7892 135.623 92.7452Z" fill="#18B2D3"/>
<path d="M112.679 89.2123C114.964 89.2535 116.312 90.6222 116.264 92.8684C116.221 94.9547 114.815 96.2458 112.587 96.2435C110.49 96.2435 108.851 94.6005 108.931 92.5874C109.002 90.6451 110.634 89.1758 112.679 89.2123Z" fill="#86B203"/>
</g>
<defs>
<clipPath id="clip0_14_3451">
<rect width="206" height="39.2572" fill="white" transform="translate(29 57)"/>
</clipPath>
</defs>
</svg>
