<svg width="263" height="153" viewBox="0 0 263 153" fill="none" xmlns="http://www.w3.org/2000/svg">
<rect width="263" height="153" rx="5" fill="white"/>
<g clip-path="url(#clip0_14_3269)">
<path fill-rule="evenodd" clip-rule="evenodd" d="M50 76.5728C50 83.1317 54.0662 89.4254 59.4052 92.148C61.067 92.9789 63.5421 94.0043 65.9641 94.0043V80.8688C65.2569 81.0456 64.4437 82.1417 63.931 82.6721C62.8172 83.7858 62.6405 84.4046 61.2261 84.4046C60.3775 84.4046 59.7588 83.6798 59.7588 82.6367C59.7588 81.2931 62.5874 79.4191 63.2946 78.3407C60.0593 78.3407 57.2484 79.0832 57.2484 76.4314C57.2484 75.9187 57.5312 75.4591 57.8318 75.2469C58.5036 74.7519 62.1101 74.9464 63.2946 74.9464C63.1531 74.3983 61.8803 73.3022 61.4206 72.8426C60.8549 72.2945 59.7588 71.4813 59.7588 70.5089C59.7588 69.2714 60.4306 68.7411 61.5267 68.7411C62.5344 68.7411 63.878 70.4382 64.815 71.3575C65.1862 71.7465 65.4161 72.1354 65.9641 72.2945C65.9641 70.2261 65.3807 67.8571 67.732 67.8571C68.5629 67.8571 69.1463 68.4935 69.3054 69.2361C69.4645 69.9432 69.3585 71.499 69.3585 72.2945C70.7728 71.3399 72.028 68.7411 73.9373 68.7411C75.1041 68.7411 75.4223 69.6957 75.4223 70.6681C75.4223 71.499 74.2555 72.3476 73.7605 72.8426L72.7882 73.7972C72.4169 74.1685 72.0103 74.3983 71.8689 74.9464C72.8235 74.9464 76.7306 74.7165 77.3847 75.2115C78.5338 76.0778 78.3394 78.3054 76.0057 78.3584C74.6445 78.3761 73.2478 78.3407 71.8689 78.3407C73.3009 80.4799 75.4223 80.7804 75.4223 83.0787C75.4223 84.3692 74.2555 84.4046 73.4953 84.4046C72.3462 84.4046 70.7374 81.7881 69.3585 80.8688V94.0043C71.7628 94.0043 73.9903 93.0142 75.6698 92.1833C81.0619 89.5138 85.1634 83.3439 85.1634 77.3153C85.1634 72.7188 83.9613 68.3521 80.9205 65.1522C79.683 63.8617 79.294 63.3136 77.5085 62.0761C66.0348 54.1029 50 62.6065 50 76.5728ZM173.983 80.2677V75.5474C173.983 73.479 179.304 73.479 179.304 75.5474V80.2677C179.304 80.8335 179.056 81.081 178.703 81.3108C177.518 82.071 173.983 82.0887 173.983 80.2677ZM179.304 71.994C177.907 71.8879 178.455 71.6934 176.051 71.6934C174.018 71.6934 171.472 72.8426 171.472 74.8049V81.0102C171.472 82.1947 172.232 82.8135 173.01 83.3085C174.531 84.3162 177.271 84.2985 179.021 83.8212C180.294 83.4676 178.597 84.1041 181.072 84.1041C181.408 84.1041 181.814 83.7151 181.814 83.3792V66.814C181.814 65.9124 179.711 65.6472 179.357 66.8848C179.216 67.3975 179.304 68.0516 179.304 68.5996V71.994ZM129.06 80.2677V75.5474C129.06 74.964 129.29 74.7165 129.644 74.5044C130.669 73.8503 132.773 73.8503 133.781 74.5044C134.134 74.7165 134.382 74.964 134.382 75.5474V80.2677C134.382 82.0887 130.828 82.071 129.644 81.3108C129.29 81.081 129.06 80.8335 129.06 80.2677ZM134.382 71.994C133.003 71.8879 133.533 71.6934 131.129 71.6934C129.096 71.6934 126.55 72.8426 126.55 74.8049V81.0102C126.55 82.1947 127.31 82.8135 128.088 83.3085C129.608 84.3162 132.349 84.2985 134.099 83.8212C135.372 83.4676 133.675 84.1041 136.15 84.1041C136.485 84.1041 136.892 83.7151 136.892 83.3792V66.814C136.892 65.9124 134.788 65.6472 134.435 66.8848C134.293 67.3975 134.382 68.0516 134.382 68.5996V71.994ZM141.17 80.2677V75.5474C141.17 74.964 141.4 74.7165 141.754 74.5044C142.779 73.8503 144.883 73.8503 145.908 74.5044C146.262 74.7165 146.492 74.964 146.492 75.5474V80.2677C146.492 82.0887 142.956 82.071 141.754 81.3108C141.4 81.081 141.17 80.8335 141.17 80.2677ZM138.66 66.814V83.3792C138.66 84.2632 139.844 84.1041 140.286 84.1041C140.64 84.1041 140.728 83.8742 141.029 83.6621C142.673 84.4576 145.891 84.2101 147.358 83.3439C147.941 83.008 149.002 82.0179 149.002 81.1517V74.8049C149.002 72.8602 146.439 71.6934 144.423 71.6934C142.019 71.6934 142.549 71.8879 141.17 71.994V68.5996C141.17 66.3367 141.206 66.0892 139.402 66.0892C139.049 66.0892 138.66 66.4781 138.66 66.814ZM116.933 75.5474C116.933 73.479 122.254 73.479 122.254 75.5474V76.1309H116.933V75.5474ZM114.422 74.8049V81.0102C114.422 85.3769 124.764 84.8819 124.764 81.1517C124.764 79.3307 124.87 79.2423 123.138 79.2423C121.971 79.2423 122.696 81.7528 120.486 81.7528C116.756 81.7528 116.933 81.3992 116.933 78.3407H124.039C125.1 78.3407 124.764 76.3076 124.764 74.8049C124.764 72.8602 122.201 71.6934 120.185 71.6934H119.001C116.968 71.6934 114.422 72.8426 114.422 74.8049ZM104.822 75.5474C104.822 73.7265 108.358 73.7442 109.56 74.5044C110.232 74.9287 110.144 75.3353 110.144 76.1309H104.822V75.5474ZM102.312 74.8049V81.0102C102.312 85.3769 112.654 84.8819 112.654 81.1517C112.654 79.3307 112.76 79.2423 111.028 79.2423C109.861 79.2423 110.586 81.7528 108.376 81.7528C104.628 81.7528 104.822 81.3992 104.822 78.3407H111.912C112.99 78.3407 112.654 76.3076 112.654 74.8049C112.654 72.8602 110.091 71.6934 108.075 71.6934H106.891C104.858 71.6934 102.312 72.8426 102.312 74.8049ZM186.093 75.5474C186.093 73.479 191.414 73.479 191.414 75.5474V76.1309H186.093V75.5474ZM183.582 74.8049V81.0102C183.582 82.1947 184.36 82.8135 185.12 83.3085C187.613 84.9526 193.924 84.051 193.924 81.1517C193.924 79.3307 194.03 79.2423 192.298 79.2423C191.502 79.2423 191.52 80.2324 191.308 80.7627C190.76 82.1594 186.093 82.3008 186.093 80.2677V78.3407H193.182C194.26 78.3407 193.924 76.3076 193.924 74.8049C193.924 72.8602 191.361 71.6934 189.346 71.6934H188.161C186.128 71.6934 183.582 72.8426 183.582 74.8049ZM202.64 74.5044V75.5474C202.64 80.3031 210.472 78.1286 210.472 80.2677C210.472 82.0356 208.492 81.8942 207.078 81.8942C203.984 81.8942 206.194 78.9418 203.825 78.9418C202.393 78.9418 202.64 80.0909 202.64 81.3108C202.64 82.9019 205.133 84.2632 207.219 84.2632C208.916 84.2632 210.03 84.3516 211.55 83.3969C212.982 82.513 212.982 81.5053 212.982 80.1263C212.982 75.8303 205.151 77.7043 205.151 75.6889C205.151 73.7088 206.777 73.921 208.704 73.921C209.27 73.921 210.207 74.4337 210.384 74.8933C210.755 75.8657 210.224 76.5728 211.957 76.5728C213.194 76.5728 212.982 75.6535 212.982 74.8049C212.982 72.8956 210.649 71.552 208.704 71.552C207.131 71.552 205.522 71.4636 204.178 72.3476C203.559 72.7542 202.64 73.5851 202.64 74.5044ZM90.0428 74.5044V75.5474C90.0428 80.3031 97.8746 78.1286 97.8746 80.2677C97.8746 82.0356 95.8946 81.8942 94.4803 81.8942C91.3864 81.8942 93.5963 78.9418 91.2273 78.9418C89.7953 78.9418 90.0428 80.0909 90.0428 81.3108C90.0428 82.9019 92.5356 84.2632 94.6217 84.2632C96.3189 84.2632 97.4326 84.3516 98.953 83.3969C100.385 82.513 100.385 81.5053 100.385 80.1263C100.385 75.8303 92.5533 77.7043 92.5533 75.6889C92.5533 73.7088 94.1797 73.921 96.1067 73.921C97.9277 73.921 97.91 75.7596 98.0161 75.9894C98.4934 76.9794 100.385 76.6435 100.385 75.8303V74.8049C100.385 72.8956 98.0514 71.552 96.1067 71.552C94.5333 71.552 92.9245 71.4636 91.5809 72.3476C90.9622 72.7542 90.0428 73.5851 90.0428 74.5044ZM150.929 72.436V81.0102C150.929 82.9726 153.475 84.1041 155.508 84.1041H156.693C158.708 84.1041 161.271 82.9549 161.271 81.0102V72.436C161.271 71.5343 159.274 71.2868 158.849 72.3829C158.69 72.7895 158.761 73.4083 158.761 73.921V80.2677C158.602 82.1771 155.225 82.0003 154.111 81.3638C153.015 80.7274 153.44 79.2954 153.44 77.1739L153.387 72.489C153.033 71.2515 150.929 71.5166 150.929 72.436ZM167.176 66.814V83.3792C167.176 84.3692 169.687 84.5991 169.687 82.9372V67.2737C169.687 65.5942 167.176 65.824 167.176 66.814ZM195.692 72.436V83.3792C195.692 84.2985 197.991 84.6344 198.203 83.061V77.0148C198.203 75.2469 198.026 74.7165 199.387 74.2038C200.589 73.7442 202.057 74.5221 202.057 72.7365C202.057 71.0924 199.529 71.6934 198.592 71.9586C196.983 72.4006 198.892 71.6934 196.435 71.6934C196.099 71.6934 195.692 72.1001 195.692 72.436ZM163.039 72.436V83.3792C163.039 84.3692 165.55 84.5991 165.55 82.9372V72.8779C165.55 71.2161 163.039 71.4459 163.039 72.436ZM163.039 66.814C163.039 68.7941 162.916 68.8825 164.666 68.8825C165.85 68.8825 165.85 66.0892 164.666 66.0892C164.224 66.0892 163.039 65.9301 163.039 66.814Z" fill="#1AA657"/>
</g>
<defs>
<clipPath id="clip0_14_3269">
<rect width="163" height="35.0043" fill="white" transform="translate(50 59)"/>
</clipPath>
</defs>
</svg>
