<svg width="263" height="153" viewBox="0 0 263 153" fill="none" xmlns="http://www.w3.org/2000/svg">
<rect width="263" height="153" rx="5" fill="white"/>
<g clip-path="url(#clip0_3_242)">
<path fill-rule="evenodd" clip-rule="evenodd" d="M102.771 76.9668C101.787 78.0722 101.294 79.396 101.294 80.9392C101.294 82.4825 101.787 83.8074 102.771 84.9116C103.756 86.017 104.962 86.5686 106.39 86.5686C107.846 86.5686 109.066 86.017 110.052 84.9116C111.037 83.8074 111.529 82.4825 111.529 80.9392C111.529 79.396 111.037 78.0733 110.051 76.9668C109.066 75.8625 107.846 75.3098 106.389 75.3098C104.962 75.3098 103.756 75.8625 102.771 76.9668ZM101.586 72.6236C102.152 71.7945 103.015 71.1213 104.176 70.6016C105.337 70.083 106.618 69.8237 108.018 69.8237C110.936 69.8237 113.446 70.8756 115.545 72.9784C117.644 75.0823 118.694 77.8379 118.694 81.2451C118.694 84.6228 117.629 87.3772 115.498 89.5107C113.37 91.643 110.832 92.7098 107.885 92.7098C106.543 92.7098 105.308 92.4585 104.177 91.9547C103.044 91.4509 102.166 90.7696 101.541 89.9099V91.6385C101.544 91.7624 101.522 91.8855 101.475 92.0005C101.429 92.1154 101.36 92.2197 101.272 92.307C101.184 92.3943 101.079 92.4628 100.964 92.5082C100.849 92.5536 100.725 92.575 100.602 92.571L96.1355 92.5722C95.8376 92.5722 95.601 92.4835 95.4213 92.3061C95.3332 92.2194 95.2638 92.1155 95.2176 92.0008C95.1715 91.8862 95.1494 91.7632 95.153 91.6396V61.9129C95.153 61.6457 95.2417 61.4239 95.4213 61.2454C95.5999 61.068 95.8376 60.9792 96.1355 60.9792H100.648C100.886 60.9792 101.101 61.068 101.295 61.2454C101.489 61.4239 101.586 61.6457 101.586 61.9129V72.6225V72.6236ZM128.107 70.0489V81.5692C128.107 83.0363 128.475 84.194 129.208 85.0436C129.942 85.8954 131.028 86.3196 132.467 86.3196C133.878 86.3196 134.969 85.8954 135.748 85.0436C136.526 84.194 136.916 83.0647 136.916 81.6568V70.0489C136.916 69.8134 137.012 69.6087 137.202 69.4325C137.373 69.2649 137.602 69.1702 137.841 69.1686H142.29C142.582 69.1686 142.818 69.2641 142.994 69.4541C143.168 69.638 143.263 69.883 143.259 70.1364V90.6263C143.262 90.7486 143.241 90.8703 143.195 90.9837C143.149 91.0972 143.081 91.2001 142.994 91.286C142.818 91.4622 142.582 91.5509 142.289 91.5509H137.841C137.598 91.5582 137.361 91.471 137.181 91.3076C137.094 91.227 137.024 91.1283 136.979 91.0183C136.933 90.9084 136.912 90.7897 136.916 90.6707V88.8272C135.331 90.7344 133.186 91.6863 130.486 91.6863C127.814 91.6863 125.692 90.8583 124.121 89.2002C122.551 87.5444 121.765 85.3518 121.765 82.6246V70.0489C121.765 69.8134 121.867 69.6087 122.072 69.4325C122.253 69.2663 122.488 69.1724 122.734 69.1686H127.138C127.403 69.1686 127.63 69.2562 127.821 69.4325C127.91 69.5086 127.982 69.6031 128.031 69.7094C128.081 69.8158 128.106 69.9316 128.107 70.0489ZM156.06 69.1686C157.994 69.1686 159.701 69.4518 161.182 70.0147C162.662 70.5788 163.798 71.2418 164.589 72.0027C165.292 72.5827 165.322 73.2536 164.678 74.0145L163.05 75.933C162.523 76.5733 161.82 76.6188 160.94 76.0718C159.211 74.8833 157.585 74.2885 156.061 74.2885C155.239 74.2885 154.571 74.4478 154.059 74.7685C153.548 75.088 153.291 75.477 153.291 75.933C153.291 76.8189 154.109 77.4274 155.753 77.7629L159.137 78.4475C163.563 79.3323 165.776 81.5715 165.776 85.1687C165.776 87.3613 164.881 89.1672 163.095 90.5843C161.307 92.0024 158.976 92.7098 156.104 92.7098C152.938 92.7098 150.227 91.8864 147.97 90.242C146.153 88.9318 145.845 87.7889 147.047 86.8143L148.981 85.2596C149.684 84.7103 150.403 84.757 151.135 85.3961C152.778 86.8905 154.506 87.6365 156.324 87.6365C157.261 87.6365 157.987 87.4534 158.5 87.0883C159.012 86.721 159.269 86.2809 159.269 85.7612C159.269 85.2437 159.028 84.84 158.545 84.55C158.06 84.2611 157.275 84.0098 156.192 83.796L152.675 83.0192C150.886 82.653 149.473 81.9081 148.432 80.7789C147.392 79.653 146.871 78.2041 146.871 76.4368C146.871 74.3647 147.707 72.635 149.377 71.2487C151.049 69.8623 153.275 69.1686 156.06 69.1686ZM184.974 91.817V81.0211C184.974 79.4437 184.549 78.178 183.697 77.2261C182.844 76.2742 181.671 75.7977 180.172 75.7977C178.674 75.7977 177.47 76.2821 176.559 77.2488C175.649 78.2155 175.193 79.4733 175.193 81.0211V91.817C175.197 91.9397 175.174 92.0618 175.124 92.1741C175.074 92.2864 175 92.3859 174.906 92.4653C174.717 92.628 174.474 92.7151 174.224 92.7098H169.774C169.651 92.7115 169.529 92.6884 169.415 92.6419C169.301 92.5953 169.198 92.5263 169.111 92.4389C169.025 92.3515 168.957 92.2476 168.911 92.1333C168.866 92.019 168.844 91.8968 168.847 91.7738V61.9163C168.847 61.6491 168.936 61.4273 169.112 61.2465C169.198 61.1589 169.301 61.09 169.415 61.0442C169.529 60.9984 169.651 60.9767 169.774 60.9804H174.223C174.489 60.9804 174.715 61.0623 174.906 61.226C175 61.305 175.074 61.4042 175.124 61.5161C175.173 61.628 175.197 61.7497 175.193 61.872V72.7623C176.779 70.829 179.099 69.8623 182.155 69.8623C184.945 69.8623 187.178 70.754 188.854 72.5394C190.528 74.3249 191.365 76.571 191.365 79.28V91.817C191.369 91.9398 191.346 92.0619 191.296 92.1742C191.246 92.2865 191.172 92.386 191.078 92.4653C190.889 92.6281 190.646 92.7152 190.396 92.7098H185.945C185.694 92.715 185.451 92.6275 185.261 92.4641C185.168 92.3849 185.093 92.2855 185.044 92.1735C184.994 92.0614 184.97 91.9395 184.974 91.817Z" fill="#000639"/>
<mask id="mask0_3_242" style="mask-type:alpha" maskUnits="userSpaceOnUse" x="194" y="69" width="24" height="24">
<path d="M194.435 69.1686H217.976V92.7098H194.435V69.1686Z" fill="white"/>
</mask>
<g mask="url(#mask0_3_242)">
<path fill-rule="evenodd" clip-rule="evenodd" d="M202.038 76.9668C201.063 78.0733 200.576 79.3959 200.576 80.9392C200.576 82.4825 201.063 83.8074 202.038 84.9116C203.012 86.017 204.232 86.5686 205.694 86.5686C207.156 86.5686 208.375 86.017 209.35 84.9116C210.324 83.8074 210.812 82.4825 210.812 80.9392C210.812 79.3959 210.324 78.0733 209.35 76.9668C208.375 75.8625 207.156 75.3098 205.694 75.3098C204.232 75.3098 203.012 75.8625 202.038 76.9668ZM197.673 89.4197C195.516 87.2237 194.435 84.3896 194.435 80.9165C194.435 77.4421 195.515 74.6161 197.673 72.4371C199.832 70.2581 202.387 69.1686 205.335 69.1686C206.734 69.1686 207.993 69.4518 209.108 70.0147C210.226 70.5788 211.052 71.3021 211.587 72.1857V70.315C211.587 70.042 211.684 69.8055 211.879 69.6065C212.072 69.4097 212.288 69.3108 212.527 69.3108H217.038C217.307 69.3108 217.53 69.4097 217.708 69.6065C217.885 69.7996 217.981 70.0532 217.976 70.315V91.6089C217.98 91.7354 217.959 91.8614 217.912 91.9792C217.866 92.0971 217.797 92.2044 217.708 92.2947C217.622 92.3843 217.517 92.455 217.402 92.5022C217.287 92.5493 217.163 92.572 217.038 92.5688H212.527C212.288 92.5688 212.072 92.4778 211.879 92.2958C211.784 92.2086 211.709 92.1022 211.659 91.9837C211.609 91.8653 211.585 91.7375 211.589 91.6089V89.6926C211.052 90.5774 210.226 91.3007 209.109 91.8648C207.993 92.4277 206.721 92.7098 205.29 92.7098C202.371 92.7098 199.832 91.6123 197.673 89.4186" fill="#000639"/>
</g>
<mask id="mask1_3_242" style="mask-type:alpha" maskUnits="userSpaceOnUse" x="51" y="56" width="33" height="24">
<path d="M51.1412 56.8863H83.8941V79.4039H51.1412V56.8863Z" fill="white"/>
</mask>
<g mask="url(#mask1_3_242)">
<path fill-rule="evenodd" clip-rule="evenodd" d="M81.1965 78.2121L79.328 79.4039L75.5034 72.5212C74.456 70.6427 72.9255 69.0784 71.0703 67.9902C69.2151 66.9021 67.1028 66.3297 64.952 66.3323H51.1412L64.6654 57.7164C65.6768 57.073 66.8763 56.791 68.0685 56.9164C69.2607 57.0417 70.3753 57.567 71.2308 58.4068L82.1598 69.1766C84.8232 71.8002 84.3547 76.2002 81.1965 78.2132" fill="#67C462"/>
</g>
<mask id="mask2_3_242" style="mask-type:alpha" maskUnits="userSpaceOnUse" x="45" y="69" width="36" height="28">
<path d="M45 69.1686H80.8235V96.8039H45V69.1686Z" fill="white"/>
</mask>
<g mask="url(#mask2_3_242)">
<path fill-rule="evenodd" clip-rule="evenodd" d="M75.3852 96.8039H59.3044C58.5099 96.8003 57.7331 96.568 57.067 96.1348C56.4009 95.7017 55.8736 95.0859 55.5481 94.3611L45.3094 71.9208L45.157 71.583C45.0557 71.3635 45.0022 71.125 45.0001 70.8832C44.9979 70.6415 45.0471 70.4021 45.1444 70.1808C45.1558 70.1501 45.1717 70.1239 45.1865 70.0909C45.3236 69.8148 45.5348 69.5822 45.7965 69.4193C46.0582 69.2564 46.3601 69.1696 46.6684 69.1686H64.2048C67.5438 69.1686 70.619 71.0178 72.2293 73.9951L76.1028 81.1473L80.1401 88.5975C82.1359 92.2856 79.5203 96.8039 75.3863 96.8039" fill="#74DF70"/>
</g>
</g>
<defs>
<clipPath id="clip0_3_242">
<rect width="174" height="39.8039" fill="white" transform="translate(45 57)"/>
</clipPath>
</defs>
</svg>
